{
.appVersion = "3243";
.formatVersion = 3;
DisplayStrings = (
"્/chanuktaprehalfgujr ઍ઼એ",
"ંઉ઼/sarastemgujr",
"ં",
"ુછ",
"/ngakagujr",

glyphs = (
{
glyphname = .notdef;
lastChange = "2021-10-11 16:28:52 +0000";
layers = (
{
layerId = UUID0;
shapes = (
{
closed = 1;
nodes = (
(505,0,l),
(505,714,l),
(94,714,l),
(94,0,l)
);
},
{
closed = 1;
nodes = (
(145,663,l),
(454,663,l),
(454,51,l),
(145,51,l)
);
}
);
width = 600;
},
{
layerId = "E837EE1F-8268-496F-836F-3DC25D441D7C";
shapes = (
{
closed = 1;
nodes = (
(505,0,l),
(505,714,l),
(94,714,l),
(94,0,l)
);
},
{
closed = 1;
nodes = (
(145,663,l),
(454,663,l),
(454,51,l),
(145,51,l)
);
}
);
width = 600;
},
{
layerId = "B78FB6F8-4888-4A20-9211-9CA65DB7E66A";
shapes = (
{
closed = 1;
nodes = (
(505,0,l),
(505,714,l),
(94,714,l),
(94,0,l)
);
},
{
closed = 1;
nodes = (
(145,663,l),
(454,663,l),
(454,51,l),
(145,51,l)
);
}
);
width = 600;
},
{
layerId = "E5C9A917-AA5F-4208-B63B-4C942A1E52F0";
shapes = (
{
closed = 1;
nodes = (
(505,0,l),
(505,714,l),
(94,714,l),
(94,0,l)
);
},
{
closed = 1;
nodes = (
(145,663,l),
(454,663,l),
(454,51,l),
(145,51,l)
);
}
);
width = 600;
},
{
layerId = "5004026F-C7B4-4F0F-B515-084BD38674AE";
shapes = (
{
closed = 1;
nodes = (
(505,0,l),
(505,714,l),
(94,714,l),
(94,0,l)
);
},
{
closed = 1;
nodes = (
(145,663,l),
(454,663,l),
(454,51,l),
(145,51,l)
);
}
);
width = 600;
},
{
layerId = "0BA4C117-BB0E-400D-AA02-27C87BA635D5";
shapes = (
{
closed = 1;
nodes = (
(505,0,l),
(505,714,l),
(94,714,l),
(94,0,l)
);
},
{
closed = 1;
nodes = (
(145,663,l),
(454,663,l),
(454,51,l),
(145,51,l)
);
}
);
width = 600;
}
);
script = gujarati;
},
{
glyphname = candrabindugujr;
lastChange = "2021-10-12 15:10:59 +0000";
layers = (
{
anchors = (
{
name = _t.candrabindugujr;
pos = (-175,603);
}
);
layerId = UUID0;
shapes = (
{
closed = 1;
nodes = (
(-49,655,o),
(23,695,o),
(65,787,c),
(-4,815,l),
(-30,759,o),
(-67,725,o),
(-133,725,cs),
(-198,725,o),
(-236,759,o),
(-261,815,c),
(-331,787,l),
(-288,693,o),
(-215,655,o),
(-133,655,cs)
);
},
{
closed = 1;
nodes = (
(-105,773,o),
(-82,797,o),
(-82,828,cs),
(-82,858,o),
(-105,882,o),
(-133,882,cs),
(-162,882,o),
(-185,858,o),
(-185,828,cs),
(-185,797,o),
(-162,773,o),
(-133,773,cs)
);
}
);
width = 0;
},
{
anchors = (
{
name = _t.candrabindugujr;
pos = (-134,603);
}
);
guides = (
{
pos = (-216,815);
}
);
layerId = "E837EE1F-8268-496F-836F-3DC25D441D7C";
shapes = (
{
closed = 1;
nodes = (
(-42,665,o),
(27,715,o),
(59,806,c),
(32,815,l),
(5,738,o),
(-45,691,o),
(-122,691,cs),
(-199,691,o),
(-249,738,o),
(-276,815,c),
(-303,806,l),
(-271,715,o),
(-202,665,o),
(-122,665,cs)
);
},
{
closed = 1;
nodes = (
(-105,788,o),
(-92,800,o),
(-92,826,cs),
(-92,849,o),
(-103,864,o),
(-122,864,cs),
(-140,864,o),
(-153,850,o),
(-153,826,cs),
(-153,801,o),
(-138,788,o),
(-122,788,cs)
);
}
);
width = 0;
},
{
anchors = (
{
name = _t.candrabindugujr;
pos = (-252,603);
}
);
layerId = "B78FB6F8-4888-4A20-9211-9CA65DB7E66A";
shapes = (
{
closed = 1;
nodes = (
(-42,618,o),
(40,683,o),
(82,805,c),
(-44,850,l),
(-68,772,o),
(-109,734,o),
(-168,734,cs),
(-227,734,o),
(-268,772,o),
(-292,850,c),
(-418,805,l),
(-377,683,o),
(-294,618,o),
(-168,618,cs)
);
},
{
closed = 1;
nodes = (
(-129,756,o),
(-98,787,o),
(-98,826,cs),
(-98,865,o),
(-129,896,o),
(-168,896,cs),
(-207,896,o),
(-238,865,o),
(-238,826,cs),
(-238,787,o),
(-207,756,o),
(-168,756,cs)
);
}
);
width = 0;
},
{
anchors = (
{
name = _t.candrabindugujr;
pos = (-104,603);
}
);
layerId = "E5C9A917-AA5F-4208-B63B-4C942A1E52F0";
shapes = (
{
closed = 1;
nodes = (
(-17,665,o),
(30,719,o),
(43,800,c),
(17,806,l),
(5,733,o),
(-29,691,o),
(-93,691,cs),
(-157,691,o),
(-191,733,o),
(-203,806,c),
(-229,800,l),
(-216,719,o),
(-168,665,o),
(-93,665,cs)
);
},
{
closed = 1;
nodes = (
(-76,789,o),
(-65,803,o),
(-65,826,cs),
(-65,849,o),
(-76,863,o),
(-93,863,cs),
(-110,863,o),
(-121,849,o),
(-121,826,cs),
(-121,803,o),
(-110,789,o),
(-93,789,cs)
);
}
);
width = 0;
},
{
anchors = (
{
name = _t.candrabindugujr;
pos = (-211,603);
}
);
layerId = "5004026F-C7B4-4F0F-B515-084BD38674AE";
shapes = (
{
closed = 1;
nodes = (
(-9,620,o),
(63,696,o),
(80,798,c),
(-32,831,l),
(-42,767,o),
(-75,730,o),
(-131,730,cs),
(-187,730,o),
(-220,767,o),
(-230,831,c),
(-342,798,l),
(-326,696,o),
(-253,620,o),
(-131,620,cs)
);
},
{
closed = 1;
nodes = (
(-96,756,o),
(-71,784,o),
(-71,826,cs),
(-71,868,o),
(-96,896,o),
(-131,896,cs),
(-166,896,o),
(-191,868,o),
(-191,826,cs),
(-191,784,o),
(-166,756,o),
(-131,756,cs)
);
}
);
width = 0;
},
{
anchors = (
{
name = _t.candrabindugujr;
pos = (-146,603);
}
);
layerId = "0BA4C117-BB0E-400D-AA02-27C87BA635D5";
shapes = (
{
closed = 1;
nodes = (
(-37,655,o),
(30,689,o),
(57,791,c),
(-6,815,l),
(-26,749,o),
(-53,720,o),
(-107,720,cs),
(-162,720,o),
(-195,750,o),
(-213,815,c),
(-275,793,l),
(-248,690,o),
(-178,655,o),
(-107,655,cs)
);
},
{
closed = 1;
nodes = (
(-84,774,o),
(-67,794,o),
(-67,828,cs),
(-67,862,o),
(-84,881,o),
(-110,881,cs),
(-136,881,o),
(-153,862,o),
(-153,828,cs),
(-153,794,o),
(-136,774,o),
(-110,774,cs)
);
}
);
width = 0;
}
);
script = gujarati;
unicode = 2689;
},
{
category = Mark;
glyphname = anusvaragujr;
lastChange = "2024-05-22 09:58:01 +0000";
layers = (
{
anchors = (
{
name = _t.candrabindugujr;
pos = (-175,603);
}
);
layerId = UUID0;
shapes = (
{
closed = 1;
nodes = (
(-102,703,o),
(-77,726,o),
(-77,762,cs),
(-77,798,o),
(-102,821,o),
(-133,821,cs),
(-165,821,o),
(-189,798,o),
(-189,762,cs),
(-189,726,o),
(-165,703,o),
(-133,703,cs)
);
}
);
width = 0;
},
{
anchors = (
{
name = _t.candrabindugujr;
pos = (-129,592);
}
);
layerId = "E837EE1F-8268-496F-836F-3DC25D441D7C";
shapes = (
{
closed = 1;
nodes = (
(-104,707,o),
(-91,719,o),
(-91,745,cs),
(-91,768,o),
(-102,783,o),
(-121,783,cs),
(-139,783,o),
(-152,769,o),
(-152,745,cs),
(-152,720,o),
(-137,707,o),
(-121,707,cs)
);
}
);
width = 0;
},
{
anchors = (
{
name = _t.candrabindugujr;
pos = (-252,603);
}
);
layerId = "B78FB6F8-4888-4A20-9211-9CA65DB7E66A";
shapes = (
{
closed = 1;
nodes = (
(-113,683,o),
(-75,721,o),
(-75,770,cs),
(-75,825,o),
(-113,860,o),
(-164,860,cs),
(-216,860,o),
(-254,825,o),
(-254,770,cs),
(-254,721,o),
(-216,683,o),
(-164,683,cs)
);
}
);
width = 0;
},
{
anchors = (
{
name = _t.candrabindugujr;
pos = (-104,603);
}
);
layerId = "E5C9A917-AA5F-4208-B63B-4C942A1E52F0";
shapes = (
{
closed = 1;
nodes = (
(-74,708,o),
(-62,718,o),
(-62,745,cs),
(-62,769,o),
(-73,782,o),
(-90,782,cs),
(-106,782,o),
(-119,770,o),
(-119,745,cs),
(-119,719,o),
(-105,708,o),
(-91,708,cs)
);
}
);
width = 0;
},
{
anchors = (
{
name = _t.candrabindugujr;
pos = (-211,603);
}
);
layerId = "5004026F-C7B4-4F0F-B515-084BD38674AE";
shapes = (
{
closed = 1;
nodes = (
(-77,691,o),
(-48,724,o),
(-48,773,cs),
(-48,821,o),
(-77,855,o),
(-129,855,cs),
(-182,855,o),
(-211,821,o),
(-211,773,cs),
(-211,724,o),
(-182,691,o),
(-129,691,cs)
);
}
);
width = 0;
},
{
anchors = (
{
name = _t.candrabindugujr;
pos = (-146,603);
}
);
layerId = "0BA4C117-BB0E-400D-AA02-27C87BA635D5";
shapes = (
{
closed = 1;
nodes = (
(-76,707,o),
(-59,729,o),
(-59,762,cs),
(-59,794,o),
(-76,817,o),
(-108,817,cs),
(-139,817,o),
(-157,794,o),
(-157,762,cs),
(-157,729,o),
(-139,707,o),
(-108,707,cs)
);
}
);
width = 0;
}
);
script = gujarati;
subCategory = Nonspacing;
unicode = 2690;
},
{
glyphname = visargagujr;
lastChange = "2021-10-13 09:53:05 +0000";
layers = (
{
layerId = UUID0;
shapes = (
{
closed = 1;
nodes = (
(157,357,o),
(185,381,o),
(185,421,cs),
(185,462,o),
(157,485,o),
(124,485,cs),
(91,485,o),
(63,462,o),
(63,421,cs),
(63,381,o),
(91,357,o),
(124,357,cs)
);
},
{
closed = 1;
nodes = (
(157,50,o),
(185,74,o),
(185,114,cs),
(185,154,o),
(157,178,o),
(124,178,cs),
(91,178,o),
(63,154,o),
(63,114,cs),
(63,74,o),
(91,50,o),
(124,50,cs)
);
}
);
width = 248;
},
{
layerId = "E837EE1F-8268-496F-836F-3DC25D441D7C";
shapes = (
{
closed = 1;
nodes = (
(117,409,o),
(130,421,o),
(130,447,cs),
(130,470,o),
(119,485,o),
(100,485,cs),
(82,485,o),
(69,471,o),
(69,447,cs),
(69,422,o),
(84,409,o),
(100,409,cs)
);
},
{
closed = 1;
nodes = (
(117,50,o),
(130,62,o),
(130,88,cs),
(130,111,o),
(119,126,o),
(100,126,cs),
(82,126,o),
(69,112,o),
(69,88,cs),
(69,63,o),
(84,50,o),
(100,50,cs)
);
}
);
width = 199;
},
{
layerId = "B78FB6F8-4888-4A20-9211-9CA65DB7E66A";
shapes = (
{
closed = 1;
nodes = (
(196,331,o),
(235,372,o),
(235,424,cs),
(235,476,o),
(196,518,o),
(143,518,cs),
(90,518,o),
(51,476,o),
(51,424,cs),
(51,372,o),
(90,331,o),
(143,331,cs)
);
},
{
closed = 1;
nodes = (
(196,41,o),
(235,82,o),
(235,134,cs),
(235,186,o),
(196,228,o),
(143,228,cs),
(90,228,o),
(51,186,o),
(51,134,cs),
(51,82,o),
(90,41,o),
(143,41,cs)
);
}
);
width = 286;
},
{
layerId = "E5C9A917-AA5F-4208-B63B-4C942A1E52F0";
shapes = (
{
closed = 1;
nodes = (
(98,409,o),
(110,420,o),
(110,447,cs),
(110,472,o),
(99,485,o),
(80,485,cs),
(63,485,o),
(50,473,o),
(50,447,cs),
(50,420,o),
(64,409,o),
(80,409,cs)
);
},
{
closed = 1;
nodes = (
(98,50,o),
(110,61,o),
(110,88,cs),
(110,113,o),
(99,126,o),
(80,126,cs),
(63,126,o),
(50,114,o),
(50,88,cs),
(50,61,o),
(64,50,o),
(80,50,cs)
);
}
);
width = 160;
},
{
layerId = "5004026F-C7B4-4F0F-B515-084BD38674AE";
shapes = (
{
closed = 1;
nodes = (
(167,342,o),
(200,377,o),
(200,430,cs),
(200,483,o),
(167,518,o),
(120,518,cs),
(72,518,o),
(40,484,o),
(40,430,cs),
(40,376,o),
(72,342,o),
(120,342,cs)
);
},
{
closed = 1;
nodes = (
(168,40,o),
(200,75,o),
(200,128,cs),
(200,181,o),
(168,216,o),
(120,216,cs),
(72,216,o),
(40,181,o),
(40,128,cs),
(40,75,o),
(72,40,o),
(120,40,cs)
);
}
);
width = 240;
},
{
layerId = "0BA4C117-BB0E-400D-AA02-27C87BA635D5";
shapes = (
{
closed = 1;
nodes = (
(133,357,o),
(156,381,o),
(156,421,cs),
(156,461,o),
(133,485,o),
(102,485,cs),
(71,485,o),
(48,461,o),
(48,421,cs),
(48,381,o),
(71,357,o),
(102,357,cs)
);
},
{
closed = 1;
nodes = (
(133,50,o),
(156,74,o),
(156,114,cs),
(156,154,o),
(133,178,o),
(102,178,cs),
(71,178,o),
(48,154,o),
(48,114,cs),
(48,74,o),
(71,50,o),
(102,50,cs)
);
}
);
width = 204;
}
);
script = gujarati;
unicode = 2691;
},
{
glyphname = agujr;
lastChange = "2024-05-22 09:46:33 +0000";
layers = (
{
anchors = (
{
name = b.nuktagujr;
pos = (393,0);
},
{
name = t.candrabindugujr;
pos = (701,603);
}
);
layerId = "E837EE1F-8268-496F-836F-3DC25D441D7C";
shapes = (
{
closed = 1;
nodes = (
(450,124,o),
(520,204,o),
(520,329,cs),
(520,440,l),
(494,444,l),
(494,329,ls),
(494,269,o),
(477,222,o),
(445,191,cs),
(417,164,o),
(378,150,o),
(328,150,cs),
(238,150,o),
(187,198,o),
(155,264,c),
(155,274,l),
(139,304,o),
(115,326,o),
(81,326,cs),
(55,326,o),
(42,313,o),
(42,294,cs),
(42,268,o),
(64,254,o),
(109,254,cs),
(232,254,o),
(325,330,o),
(325,435,cs),
(325,528,o),
(259,602,o),
(146,602,cs),
(107,602,o),
(72,595,o),
(38,582,c),
(48,555,l),
(80,567,o),
(114,576,o),
(146,576,cs),
(248,576,o),
(298,516,o),
(298,435,cs),
(298,350,o),
(233,291,o),
(129,281,c),
(128,261,l),
(166,176,o),
(235,124,o),
(329,124,cs)
);
},
{
closed = 1;
nodes = (
(652,253,o),
(689,282,o),
(711,314,c),
(704,345,l),
(680,309,o),
(646,279,o),
(597,279,cs),
(562,279,o),
(532,298,o),
(515,323,c),
(499,303,l),
(521,269,o),
(561,253,o),
(597,253,cs)
);
},
{
closed = 1;
nodes = (
(830,0,l),
(833,26,l),
(800,26,o),
(777,29,o),
(759,41,cs),
(737,56,o),
(727,80,o),
(727,129,cs),
(727,598,l),
(701,602,l),
(701,128,ls),
(701,74,o),
(716,43,o),
(740,23,cs),
(761,6,o),
(787,0,o),
(821,0,cs)
);
}
);
width = 835;
},
{
anchors = (
{
name = b.nuktagujr;
pos = (421,0);
},
{
name = t.candrabindugujr;
pos = (708,603);
}
);
guides = (
{
angle = 90;
pos = (33,377);
}
);
layerId = UUID0;
shapes = (
{
closed = 1;
nodes = (
(473,103,o),
(566,184,o),
(566,349,cs),
(566,437,l),
(486,447,l),
(486,371,ls),
(486,297,o),
(479,253,o),
(446,216,cs),
(423,190,o),
(387,175,o),
(337,175,cs),
(276,175,o),
(225,204,o),
(201,256,c),
(187,295,l),
(158,329,o),
(135,346,o),
(94,346,cs),
(54,346,o),
(35,323,o),
(35,297,cs),
(35,258,o),
(63,237,o),
(117,237,cs),
(244,237,o),
(352,317,o),
(352,428,cs),
(352,539,o),
(282,603,o),
(161,603,cs),
(113,603,o),
(63,590,o),
(31,576,c),
(58,508,l),
(89,522,o),
(129,530,o),
(158,530,cs),
(236,530,o),
(272,494,o),
(272,430,cs),
(272,363,o),
(213,314,o),
(138,303,c),
(117,245,l),
(173,138,o),
(250,103,o),
(343,103,cs)
);
},
{
closed = 1;
nodes = (
(683,228,o),
(716,251,o),
(750,291,c),
(733,373,l),
(703,328,o),
(671,300,o),
(623,300,cs),
(591,300,o),
(565,313,o),
(555,356,c),
(497,333,l),
(525,251,o),
(574,228,o),
(624,228,cs)
);
},
{
closed = 1;
nodes = (
(867,0,l),
(875,73,l),
(847,73,o),
(814,73,o),
(800,92,cs),
(792,103,o),
(788,116,o),
(788,152,cs),
(788,592,l),
(708,603,l),
(708,148,ls),
(708,89,o),
(717,60,o),
(739,37,cs),
(762,13,o),
(799,0,o),
(856,0,cs)
);
}
);
width = 883;
},
{
anchors = (
{
name = b.nuktagujr;
pos = (433,0);
},
{
name = t.candrabindugujr;
pos = (723,603);
}
);
guides = (
{
angle = 90;
pos = (1,348);
}
);
layerId = "B78FB6F8-4888-4A20-9211-9CA65DB7E66A";
shapes = (
{
closed = 1;
nodes = (
(550,88,o),
(654,179,o),
(654,378,cs),
(654,450,l),
(477,460,l),
(477,377,ls),
(477,318,o),
(466,285,o),
(446,261,cs),
(425,236,o),
(398,226,o),
(354,226,cs),
(312,226,o),
(276,249,o),
(249,291,c),
(234,316,l),
(204,350,o),
(167,379,o),
(108,379,cs),
(54,379,o),
(17,346,o),
(17,295,cs),
(17,230,o),
(68,201,o),
(141,201,cs),
(297,201,o),
(409,295,o),
(409,414,cs),
(409,530,o),
(321,602,o),
(181,602,cs),
(128,602,o),
(80,592,o),
(27,572,c),
(77,446,l),
(105,458,o),
(129,464,o),
(157,464,cs),
(205,464,o),
(232,442,o),
(232,405,cs),
(232,364,o),
(200,340,o),
(138,333,c),
(107,232,l),
(161,147,o),
(250,88,o),
(364,88,cs)
);
},
{
closed = 1;
nodes = (
(714,192,o),
(743,205,o),
(761,230,c),
(744,377,l),
(731,347,o),
(709,330,o),
(682,330,cs),
(663,330,o),
(652,338,o),
(644,351,c),
(559,247,l),
(585,209,o),
(623,192,o),
(673,192,cs)
);
},
{
closed = 1;
nodes = (
(959,0,l),
(972,138,l),
(943,138,o),
(926,141,o),
(915,151,cs),
(903,162,o),
(900,180,o),
(900,209,cs),
(900,592,l),
(723,602,l),
(723,194,ls),
(723,122,o),
(736,74,o),
(767,43,cs),
(798,12,o),
(847,0,o),
(919,0,cs)
);
}
);
width = 975;
},
{
anchors = (
{
name = b.nuktagujr;
pos = (282,0);
},
{
name = t.candrabindugujr;
pos = (495,603);
}
);
layerId = "E5C9A917-AA5F-4208-B63B-4C942A1E52F0";
shapes = (
{
closed = 1;
nodes = (
(327,136,o),
(372,181,o),
(372,282,cs),
(372,426,l),
(346,430,l),
(346,297,ls),
(346,239,o),
(338,208,o),
(320,188,cs),
(304,171,o),
(282,162,o),
(251,162,cs),
(199,162,o),
(161,185,o),
(123,264,c),
(120,279,l),
(107,306,o),
(86,325,o),
(60,325,cs),
(40,325,o),
(27,314,o),
(27,296,cs),
(27,268,o),
(56,259,o),
(93,259,cs),
(180,259,o),
(243,333,o),
(243,434,cs),
(243,531,o),
(194,602,o),
(103,602,cs),
(78,602,o),
(53,597,o),
(27,588,c),
(35,563,l),
(59,572,o),
(81,576,o),
(104,576,cs),
(179,576,o),
(216,517,o),
(216,434,cs),
(216,347,o),
(167,281,o),
(82,281,c),
(96,262,l),
(138,170,o),
(186,136,o),
(251,136,cs)
);
},
{
closed = 1;
nodes = (
(463,263,o),
(490,277,o),
(508,296,c),
(508,333,l),
(485,304,o),
(459,289,o),
(428,289,cs),
(399,289,o),
(372,303,o),
(356,326,c),
(356,288,l),
(376,272,o),
(401,263,o),
(428,263,cs)
);
},
{
closed = 1;
nodes = (
(593,0,l),
(596,26,l),
(571,26,o),
(553,30,o),
(541,39,cs),
(527,50,o),
(521,69,o),
(521,98,cs),
(521,598,l),
(495,602,l),
(495,98,ls),
(495,61,o),
(504,35,o),
(523,19,cs),
(538,6,o),
(558,0,o),
(585,0,cs)
);
}
);
width = 599;
},
{
anchors = (
{
name = b.nuktagujr;
pos = (345,0);
},
{
name = t.candrabindugujr;
pos = (568,603);
}
);
guides = (
{
pos = (476,74);
},
{
angle = 90;
pos = (64,400);
}
);
layerId = "5004026F-C7B4-4F0F-B515-084BD38674AE";
shapes = (
{
closed = 1;
nodes = (
(448,90,o),
(522,171,o),
(522,319,cs),
(522,432,l),
(367,442,l),
(367,333,ls),
(367,292,o),
(363,268,o),
(353,251,cs),
(343,234,o),
(327,226,o),
(300,226,cs),
(257,226,o),
(238,245,o),
(216,281,c),
(208,304,l),
(170,343,o),
(138,373,o),
(94,373,cs),
(37,373,o),
(15,334,o),
(15,293,cs),
(15,232,o),
(68,202,o),
(120,202,cs),
(236,202,o),
(331,286,o),
(331,414,cs),
(331,522,o),
(262,602,o),
(150,602,cs),
(98,602,o),
(59,593,o),
(18,576,c),
(60,453,l),
(78,460,o),
(101,464,o),
(116,464,cs),
(152,464,o),
(174,440,o),
(174,407,cs),
(174,362,o),
(147,345,o),
(108,327,c),
(78,237,l),
(125,161,o),
(186,90,o),
(314,90,cs)
);
},
{
closed = 1;
nodes = (
(564,202,o),
(584,211,o),
(603,231,c),
(586,364,l),
(578,343,o),
(563,327,o),
(544,327,cs),
(533,327,o),
(527,331,o),
(519,338,c),
(453,248,l),
(475,221,o),
(510,202,o),
(541,202,cs)
);
},
{
closed = 1;
nodes = (
(763,0,l),
(769,138,l),
(755,138,o),
(745,140,o),
(738,146,cs),
(730,152,o),
(727,163,o),
(727,180,cs),
(727,592,l),
(568,602,l),
(568,150,ls),
(568,98,o),
(582,59,o),
(611,34,cs),
(637,11,o),
(674,0,o),
(722,0,cs)
);
}
);
width = 779;
},
{
anchors = (
{
name = b.nuktagujr;
pos = (299,0);
},
{
name = t.candrabindugujr;
pos = (519,603);
}
);
layerId = "0BA4C117-BB0E-400D-AA02-27C87BA635D5";
shapes = (
{
closed = 1;
nodes = (
(370,108,o),
(426,177,o),
(426,289,cs),
(426,426,l),
(351,432,l),
(351,299,ls),
(351,253,o),
(343,222,o),
(326,201,cs),
(313,184,o),
(293,176,o),
(270,176,cs),
(221,176,o),
(185,205,o),
(154,267,c),
(150,282,l),
(125,325,o),
(101,341,o),
(75,341,cs),
(40,341,o),
(20,320,o),
(20,289,cs),
(20,253,o),
(54,228,o),
(103,228,cs),
(191,228,o),
(268,311,o),
(268,422,cs),
(268,526,o),
(208,602,o),
(111,602,cs),
(81,602,o),
(51,595,o),
(22,583,c),
(43,521,l),
(62,529,o),
(85,534,o),
(102,534,cs),
(162,534,o),
(193,488,o),
(193,422,cs),
(193,355,o),
(155,305,o),
(103,295,c),
(88,250,l),
(128,163,o),
(189,108,o),
(274,108,cs)
);
},
{
closed = 1;
nodes = (
(498,232,o),
(522,244,o),
(541,264,c),
(534,341,l),
(517,315,o),
(493,300,o),
(468,300,cs),
(447,300,o),
(426,310,o),
(413,328,c),
(389,264,l),
(411,243,o),
(440,232,o),
(467,232,cs)
);
},
{
closed = 1;
nodes = (
(653,0,l),
(657,68,l),
(633,68,o),
(621,72,o),
(612,79,cs),
(599,89,o),
(594,104,o),
(594,129,cs),
(594,592,l),
(519,602,l),
(519,117,ls),
(519,77,o),
(529,45,o),
(552,25,cs),
(572,8,o),
(598,0,o),
(633,0,cs)
);
}
);
width = 665;
}
);
metricRight = aavowelsigngujr;
script = gujarati;
unicode = 2693;
},
{
glyphname = aagujr;
lastChange = "2024-05-22 09:46:33 +0000";
layers = (
{
anchors = (
{
name = b.nuktagujr;
pos = (421,0);
},
{
name = t.candrabindugujr;
pos = (973,603);
}
);
layerId = UUID0;
shapes = (
{
closed = 1;
nodes = (
(473,103,o),
(566,184,o),
(566,349,cs),
(566,437,l),
(486,447,l),
(486,371,ls),
(486,297,o),
(479,253,o),
(446,216,cs),
(423,190,o),
(387,175,o),
(337,175,cs),
(276,175,o),
(225,204,o),
(201,256,c),
(187,295,l),
(158,329,o),
(135,346,o),
(94,346,cs),
(54,346,o),
(35,323,o),
(35,297,cs),
(35,258,o),
(63,237,o),
(117,237,cs),
(244,237,o),
(352,317,o),
(352,428,cs),
(352,539,o),
(282,603,o),
(161,603,cs),
(113,603,o),
(63,590,o),
(31,576,c),
(58,508,l),
(89,522,o),
(129,530,o),
(158,530,cs),
(236,530,o),
(272,494,o),
(272,430,cs),
(272,363,o),
(213,314,o),
(138,303,c),
(117,245,l),
(173,138,o),
(250,103,o),
(343,103,cs)
);
},
{
closed = 1;
nodes = (
(683,228,o),
(716,251,o),
(750,291,c),
(733,373,l),
(703,328,o),
(671,300,o),
(623,300,cs),
(591,300,o),
(565,313,o),
(555,356,c),
(497,333,l),
(525,251,o),
(574,228,o),
(624,228,cs)
);
},
{
closed = 1;
nodes = (
(867,0,l),
(875,73,l),
(847,73,o),
(814,73,o),
(800,92,cs),
(792,103,o),
(788,116,o),
(788,152,cs),
(788,592,l),
(708,603,l),
(708,148,ls),
(708,89,o),
(717,60,o),
(739,37,cs),
(762,13,o),
(799,0,o),
(856,0,cs)
);
},
{
closed = 1;
nodes = (
(1132,0,l),
(1140,73,l),
(1112,73,o),
(1079,73,o),
(1065,92,cs),
(1057,103,o),
(1053,116,o),
(1053,152,cs),
(1053,592,l),
(973,603,l),
(973,148,ls),
(973,89,o),
(982,60,o),
(1004,37,cs),
(1027,13,o),
(1064,0,o),
(1122,0,cs)
);
}
);
width = 1148;
},
{
anchors = (
{
name = b.nuktagujr;
pos = (393,0);
},
{
name = t.candrabindugujr;
pos = (938,603);
}
);
layerId = "E837EE1F-8268-496F-836F-3DC25D441D7C";
shapes = (
{
closed = 1;
nodes = (
(450,124,o),
(520,204,o),
(520,329,cs),
(520,440,l),
(494,444,l),
(494,329,ls),
(494,269,o),
(477,222,o),
(445,191,cs),
(417,164,o),
(378,150,o),
(328,150,cs),
(238,150,o),
(187,198,o),
(155,264,c),
(155,274,l),
(139,304,o),
(115,326,o),
(81,326,cs),
(55,326,o),
(42,313,o),
(42,294,cs),
(42,268,o),
(64,254,o),
(109,254,cs),
(232,254,o),
(325,330,o),
(325,435,cs),
(325,528,o),
(259,602,o),
(146,602,cs),
(107,602,o),
(72,595,o),
(38,582,c),
(48,555,l),
(80,567,o),
(114,576,o),
(146,576,cs),
(248,576,o),
(298,516,o),
(298,435,cs),
(298,350,o),
(233,291,o),
(129,281,c),
(128,261,l),
(166,176,o),
(235,124,o),
(329,124,cs)
);
},
{
closed = 1;
nodes = (
(652,253,o),
(689,282,o),
(711,314,c),
(704,345,l),
(680,309,o),
(646,279,o),
(597,279,cs),
(562,279,o),
(532,298,o),
(515,323,c),
(499,303,l),
(521,269,o),
(561,253,o),
(597,253,cs)
);
},
{
closed = 1;
nodes = (
(830,0,l),
(833,26,l),
(800,26,o),
(777,29,o),
(759,41,cs),
(737,56,o),
(727,80,o),
(727,129,cs),
(727,598,l),
(701,602,l),
(701,128,ls),
(701,74,o),
(716,43,o),
(740,23,cs),
(761,6,o),
(787,0,o),
(821,0,cs)
);
},
{
closed = 1;
nodes = (
(1067,0,l),
(1070,26,l),
(1037,26,o),
(1014,29,o),
(996,41,cs),
(974,56,o),
(964,80,o),
(964,129,cs),
(964,598,l),
(938,602,l),
(938,128,ls),
(938,74,o),
(953,43,o),
(977,23,cs),
(998,6,o),
(1024,0,o),
(1058,0,cs)
);
}
);
width = 1072;
},
{
anchors = (
{
name = b.nuktagujr;
pos = (282,0);
},
{
name = t.candrabindugujr;
pos = (672,603);
}
);
layerId = "E5C9A917-AA5F-4208-B63B-4C942A1E52F0";
shapes = (
{
closed = 1;
nodes = (
(327,136,o),
(372,181,o),
(372,282,cs),
(372,426,l),
(346,430,l),
(346,297,ls),
(346,239,o),
(338,208,o),
(320,188,cs),
(304,171,o),
(282,162,o),
(251,162,cs),
(199,162,o),
(161,185,o),
(123,264,c),
(120,279,l),
(107,306,o),
(86,325,o),
(60,325,cs),
(40,325,o),
(27,314,o),
(27,296,cs),
(27,268,o),
(56,259,o),
(93,259,cs),
(180,259,o),
(243,333,o),
(243,434,cs),
(243,531,o),
(194,602,o),
(103,602,cs),
(78,602,o),
(53,597,o),
(27,588,c),
(35,563,l),
(59,572,o),
(81,576,o),
(104,576,cs),
(179,576,o),
(216,517,o),
(216,434,cs),
(216,347,o),
(167,281,o),
(82,281,c),
(96,262,l),
(138,170,o),
(186,136,o),
(251,136,cs)
);
},
{
closed = 1;
nodes = (
(463,263,o),
(490,277,o),
(508,296,c),
(508,333,l),
(485,304,o),
(459,289,o),
(428,289,cs),
(399,289,o),
(372,303,o),
(356,326,c),
(356,288,l),
(376,272,o),
(401,263,o),
(428,263,cs)
);
},
{
closed = 1;
nodes = (
(593,0,l),
(596,26,l),
(571,26,o),
(553,30,o),
(541,39,cs),
(527,50,o),
(521,69,o),
(521,98,cs),
(521,598,l),
(495,602,l),
(495,98,ls),
(495,61,o),
(504,35,o),
(523,19,cs),
(538,6,o),
(558,0,o),
(585,0,cs)
);
},
{
closed = 1;
nodes = (
(770,0,l),
(773,26,l),
(748,26,o),
(730,30,o),
(718,39,cs),
(704,50,o),
(698,69,o),
(698,98,cs),
(698,598,l),
(672,602,l),
(672,98,ls),
(672,61,o),
(681,35,o),
(700,19,cs),
(715,6,o),
(735,0,o),
(762,0,cs)
);
}
);
width = 776;
},
{
anchors = (
{
name = b.nuktagujr;
pos = (338,0);
},
{
name = t.candrabindugujr;
pos = (831,603);
}
);
layerId = "5004026F-C7B4-4F0F-B515-084BD38674AE";
shapes = (
{
closed = 1;
nodes = (
(448,90,o),
(522,171,o),
(522,319,cs),
(522,432,l),
(367,442,l),
(367,333,ls),
(367,292,o),
(363,268,o),
(353,251,cs),
(343,234,o),
(327,226,o),
(300,226,cs),
(257,226,o),
(238,245,o),
(216,281,c),
(208,304,l),
(170,343,o),
(138,373,o),
(94,373,cs),
(37,373,o),
(15,334,o),
(15,293,cs),
(15,232,o),
(68,202,o),
(120,202,cs),
(236,202,o),
(331,286,o),
(331,414,cs),
(331,521,o),
(262,602,o),
(150,602,cs),
(98,602,o),
(59,593,o),
(18,576,c),
(60,453,l),
(78,460,o),
(101,464,o),
(116,464,cs),
(152,464,o),
(174,440,o),
(174,407,cs),
(174,362,o),
(147,345,o),
(108,327,c),
(78,237,l),
(125,161,o),
(186,90,o),
(314,90,cs)
);
},
{
closed = 1;
nodes = (
(564,202,o),
(584,211,o),
(603,231,c),
(586,364,l),
(578,343,o),
(563,327,o),
(544,327,cs),
(533,327,o),
(527,331,o),
(519,338,c),
(453,248,l),
(475,221,o),
(510,202,o),
(541,202,cs)
);
},
{
closed = 1;
nodes = (
(763,0,l),
(769,138,l),
(755,138,o),
(745,140,o),
(738,146,cs),
(730,152,o),
(727,163,o),
(727,180,cs),
(727,592,l),
(568,602,l),
(568,150,ls),
(568,98,o),
(582,59,o),
(611,34,cs),
(637,11,o),
(674,0,o),
(722,0,cs)
);
},
{
closed = 1;
nodes = (
(1026,0,l),
(1032,138,l),
(1018,138,o),
(1008,140,o),
(1001,146,cs),
(993,153,o),
(990,163,o),
(990,180,cs),
(990,592,l),
(831,602,l),
(831,150,ls),
(831,98,o),
(845,59,o),
(874,34,cs),
(900,11,o),
(937,0,o),
(985,0,cs)
);
}
);
width = 1042;
},
{
anchors = (
{
name = b.nuktagujr;
pos = (433,0);
},
{
name = t.candrabindugujr;
pos = (1039,603);
}
);
layerId = "B78FB6F8-4888-4A20-9211-9CA65DB7E66A";
shapes = (
{
closed = 1;
nodes = (
(550,88,o),
(654,179,o),
(654,378,cs),
(654,450,l),
(477,460,l),
(477,377,ls),
(477,318,o),
(466,285,o),
(446,261,cs),
(425,236,o),
(398,226,o),
(354,226,cs),
(312,226,o),
(276,249,o),
(249,291,c),
(234,316,l),
(204,350,o),
(167,379,o),
(108,379,cs),
(54,379,o),
(17,346,o),
(17,295,cs),
(17,230,o),
(68,201,o),
(141,201,cs),
(297,201,o),
(409,295,o),
(409,414,cs),
(409,530,o),
(321,602,o),
(181,602,cs),
(128,602,o),
(80,592,o),
(27,572,c),
(77,446,l),
(105,458,o),
(129,464,o),
(157,464,cs),
(205,464,o),
(232,442,o),
(232,405,cs),
(232,364,o),
(200,340,o),
(138,333,c),
(107,232,l),
(161,147,o),
(250,88,o),
(364,88,cs)
);
},
{
closed = 1;
nodes = (
(714,192,o),
(743,205,o),
(761,230,c),
(744,377,l),
(731,347,o),
(709,330,o),
(682,330,cs),
(663,330,o),
(652,338,o),
(644,351,c),
(559,247,l),
(585,209,o),
(623,192,o),
(673,192,cs)
);
},
{
closed = 1;
nodes = (
(959,0,l),
(972,138,l),
(943,138,o),
(926,141,o),
(915,151,cs),
(903,162,o),
(900,180,o),
(900,209,cs),
(900,592,l),
(723,602,l),
(723,194,ls),
(723,122,o),
(736,74,o),
(767,43,cs),
(798,12,o),
(847,0,o),
(919,0,cs)
);
},
{
closed = 1;
nodes = (
(1275,0,l),
(1288,138,l),
(1259,138,o),
(1242,141,o),
(1231,151,cs),
(1219,162,o),
(1216,180,o),
(1216,209,cs),
(1216,592,l),
(1039,602,l),
(1039,194,ls),
(1039,121,o),
(1052,73,o),
(1084,42,cs),
(1115,12,o),
(1164,0,o),
(1235,0,cs)
);
}
);
width = 1291;
},
{
anchors = (
{
name = b.nuktagujr;
pos = (299,0);
},
{
name = t.candrabindugujr;
pos = (731,603);
}
);
layerId = "0BA4C117-BB0E-400D-AA02-27C87BA635D5";
shapes = (
{
closed = 1;
nodes = (
(370,108,o),
(426,177,o),
(426,289,cs),
(426,426,l),
(351,432,l),
(351,299,ls),
(351,253,o),
(343,222,o),
(326,201,cs),
(313,184,o),
(293,176,o),
(270,176,cs),
(221,176,o),
(185,205,o),
(154,267,c),
(150,282,l),
(125,325,o),
(101,341,o),
(75,341,cs),
(40,341,o),
(20,320,o),
(20,289,cs),
(20,253,o),
(54,228,o),
(103,228,cs),
(191,228,o),
(268,311,o),
(268,422,cs),
(268,526,o),
(208,602,o),
(111,602,cs),
(81,602,o),
(51,595,o),
(22,583,c),
(43,521,l),
(62,529,o),
(85,534,o),
(102,534,cs),
(162,534,o),
(193,488,o),
(193,422,cs),
(193,355,o),
(155,305,o),
(103,295,c),
(88,250,l),
(128,163,o),
(189,108,o),
(274,108,cs)
);
},
{
closed = 1;
nodes = (
(498,232,o),
(522,244,o),
(541,264,c),
(534,341,l),
(517,315,o),
(493,300,o),
(468,300,cs),
(447,300,o),
(426,310,o),
(413,328,c),
(389,264,l),
(411,243,o),
(440,232,o),
(467,232,cs)
);
},
{
closed = 1;
nodes = (
(653,0,l),
(657,68,l),
(633,68,o),
(621,72,o),
(612,79,cs),
(599,89,o),
(594,104,o),
(594,129,cs),
(594,592,l),
(519,602,l),
(519,117,ls),
(519,77,o),
(529,45,o),
(552,25,cs),
(572,8,o),
(598,0,o),
(633,0,cs)
);
},
{
closed = 1;
nodes = (
(865,0,l),
(869,68,l),
(845,68,o),
(833,72,o),
(824,79,cs),
(811,89,o),
(806,104,o),
(806,129,cs),
(806,592,l),
(731,602,l),
(731,117,ls),
(731,77,o),
(741,45,o),
(764,25,cs),
(784,8,o),
(810,0,o),
(845,0,cs)
);
}
);
width = 877;
}
);
metricLeft = agujr;
metricRight = aavowelsigngujr;
script = gujarati;
unicode = 2694;
},
{
glyphname = igujr;
lastChange = "2021-10-13 09:53:05 +0000";
layers = (
{
anchors = (
{
name = b.nuktagujr;
pos = (314,0);
},
{
name = t.candrabindugujr;
pos = (216,603);
}
);
layerId = UUID0;
shapes = (
{
closed = 1;
nodes = (
(518,-10,o),
(590,107,o),
(590,236,cs),
(590,313,o),
(565,370,o),
(538,420,cs),
(499,492,o),
(483,522,o),
(483,563,cs),
(483,604,o),
(500,627,o),
(547,661,c),
(494,728,l),
(427,680,o),
(400,629,o),
(400,567,cs),
(400,508,o),
(419,470,o),
(457,402,cs),
(484,353,o),
(508,305,o),
(508,236,cs),
(508,129,o),
(434,63,o),
(314,63,cs),
(217,63,o),
(168,104,o),
(168,177,cs),
(168,253,o),
(229,286,o),
(300,286,cs),
(310,286,o),
(320,286,o),
(329,285,c),
(338,357,l),
(325,359,o),
(311,359,o),
(299,359,cs),
(164,359,o),
(88,278,o),
(88,176,cs),
(88,70,o),
(164,-10,o),
(311,-10,cs)
);
},
{
closed = 1;
nodes = (
(220,338,l),
(150,371,o),
(125,407,o),
(125,456,cs),
(125,499,o),
(157,529,o),
(219,529,cs),
(242,529,o),
(270,525,o),
(290,520,c),
(304,592,l),
(278,599,o),
(238,603,o),
(210,603,cs),
(102,603,o),
(44,537,o),
(44,461,cs),
(44,375,o),
(98,324,o),
(166,286,c)
);
}
);
width = 634;
},
{
anchors = (
{
name = b.nuktagujr;
pos = (309,0);
},
{
name = t.candrabindugujr;
pos = (216,603);
}
);
layerId = "E837EE1F-8268-496F-836F-3DC25D441D7C";
shapes = (
{
closed = 1;
nodes = (
(450,-10,o),
(541,84,o),
(541,222,cs),
(541,296,o),
(511,357,o),
(469,436,cs),
(444,483,o),
(425,528,o),
(425,578,cs),
(425,635,o),
(450,669,o),
(504,707,c),
(488,728,l),
(426,685,o),
(398,640,o),
(398,578,cs),
(398,524,o),
(419,476,o),
(445,427,cs),
(487,347,o),
(514,293,o),
(514,222,cs),
(514,98,o),
(434,16,o),
(304,16,cs),
(190,16,o),
(118,76,o),
(118,171,cs),
(118,260,o),
(180,319,o),
(276,319,cs),
(288,319,o),
(299,318,o),
(310,316,c),
(314,342,l),
(302,344,o),
(290,345,o),
(276,345,cs),
(167,345,o),
(91,273,o),
(91,171,cs),
(91,63,o),
(174,-10,o),
(304,-10,cs)
);
},
{
closed = 1;
nodes = (
(183,317,l),
(117,347,o),
(75,391,o),
(75,459,cs),
(75,535,o),
(132,576,o),
(211,576,cs),
(238,576,o),
(259,573,o),
(281,568,c),
(287,593,l),
(262,599,o),
(240,602,o),
(211,602,cs),
(117,602,o),
(48,550,o),
(48,459,cs),
(48,383,o),
(97,331,o),
(168,297,c)
);
}
);
width = 589;
},
{
anchors = (
{
name = b.nuktagujr;
pos = (342,0);
},
{
name = t.candrabindugujr;
pos = (145,603);
}
);
guides = (
{
pos = (517,728);
}
);
layerId = "B78FB6F8-4888-4A20-9211-9CA65DB7E66A";
shapes = (
{
closed = 1;
nodes = (
(529,-10,o),
(667,90,o),
(667,245,cs),
(667,299,o),
(657,350,o),
(619,418,cs),
(584,480,o),
(572,508,o),
(572,539,cs),
(572,574,o),
(591,593,o),
(633,621,c),
(521,764,l),
(428,712,o),
(390,658,o),
(390,568,cs),
(390,517,o),
(409,467,o),
(435,418,cs),
(468,356,o),
(489,309,o),
(489,252,cs),
(489,172,o),
(421,128,o),
(333,128,cs),
(269,128,o),
(237,146,o),
(237,182,cs),
(237,217,o),
(266,232,o),
(311,232,cs),
(324,232,o),
(337,231,o),
(345,230,c),
(360,367,l),
(345,369,o),
(329,370,o),
(314,370,cs),
(174,370,o),
(60,304,o),
(60,189,cs),
(60,69,o),
(163,-10,o),
(344,-10,cs)
);
},
{
closed = 1;
nodes = (
(268,350,l),
(228,370,o),
(201,391,o),
(201,422,cs),
(201,449,o),
(224,464,o),
(261,464,cs),
(278,464,o),
(289,463,o),
(306,460,c),
(330,591,l),
(297,598,o),
(269,602,o),
(229,602,cs),
(116,602,o),
(24,550,o),
(24,444,cs),
(24,372,o),
(73,316,o),
(148,271,c)
);
}
);
width = 691;
},
{
anchors = (
{
name = b.nuktagujr;
pos = (236,0);
},
{
name = t.candrabindugujr;
pos = (168,603);
}
);
layerId = "E5C9A917-AA5F-4208-B63B-4C942A1E52F0";
shapes = (
{
closed = 1;
nodes = (
(355,-10,o),
(421,74,o),
(421,204,cs),
(421,294,o),
(397,361,o),
(374,422,cs),
(354,474,o),
(337,524,o),
(337,578,cs),
(337,633,o),
(356,666,o),
(398,705,c),
(380,725,l),
(328,678,o),
(310,635,o),
(310,578,cs),
(310,522,o),
(329,466,o),
(349,414,cs),
(371,356,o),
(394,290,o),
(394,204,cs),
(394,89,o),
(340,16,o),
(237,16,cs),
(150,16,o),
(93,78,o),
(93,171,cs),
(93,254,o),
(138,319,o),
(214,319,cs),
(219,319,o),
(225,319,o),
(231,318,c),
(234,344,l),
(227,345,o),
(221,345,o),
(214,345,cs),
(125,345,o),
(66,272,o),
(66,171,cs),
(66,62,o),
(134,-10,o),
(237,-10,cs)
);
},
{
closed = 1;
nodes = (
(145,315,l),
(97,355,o),
(65,404,o),
(65,468,cs),
(65,532,o),
(104,577,o),
(177,577,cs),
(190,577,o),
(202,576,o),
(217,572,c),
(223,597,l),
(207,601,o),
(191,603,o),
(177,603,cs),
(80,603,o),
(38,541,o),
(38,469,cs),
(38,398,o),
(72,342,o),
(128,296,c)
);
}
);
width = 459;
},
{
anchors = (
{
name = b.nuktagujr;
pos = (295,0);
},
{
name = t.candrabindugujr;
pos = (114,603);
}
);
layerId = "5004026F-C7B4-4F0F-B515-084BD38674AE";
shapes = (
{
closed = 1;
nodes = (
(457,-10,o),
(557,85,o),
(557,242,cs),
(557,294,o),
(545,348,o),
(519,412,cs),
(491,481,o),
(480,513,o),
(480,545,cs),
(480,584,o),
(496,608,o),
(536,637,c),
(429,757,l),
(354,708,o),
(319,649,o),
(319,567,cs),
(319,518,o),
(331,469,o),
(359,402,cs),
(385,340,o),
(399,290,o),
(399,242,cs),
(399,170,o),
(356,128,o),
(285,128,cs),
(230,128,o),
(203,148,o),
(203,180,cs),
(203,212,o),
(230,230,o),
(267,230,cs),
(275,230,o),
(284,229,o),
(290,228,c),
(306,365,l),
(290,367,o),
(274,368,o),
(261,368,cs),
(144,368,o),
(47,302,o),
(47,194,cs),
(47,71,o),
(145,-10,o),
(292,-10,cs)
);
},
{
closed = 1;
nodes = (
(213,345,l),
(188,366,o),
(174,388,o),
(174,415,cs),
(174,445,o),
(194,464,o),
(224,464,cs),
(234,464,o),
(242,463,o),
(253,461,c),
(274,593,l),
(247,599,o),
(225,602,o),
(198,602,cs),
(90,602,o),
(18,545,o),
(18,442,cs),
(18,372,o),
(53,313,o),
(102,268,c)
);
}
);
width = 575;
},
{
anchors = (
{
name = b.nuktagujr;
pos = (257,0);
},
{
name = t.candrabindugujr;
pos = (167,603);
}
);
layerId = "0BA4C117-BB0E-400D-AA02-27C87BA635D5";
shapes = (
{
closed = 1;
nodes = (
(400,-10,o),
(475,91,o),
(475,209,cs),
(475,282,o),
(460,337,o),
(429,410,cs),
(401,476,o),
(385,524,o),
(385,559,cs),
(385,603,o),
(402,633,o),
(448,669,c),
(394,728,l),
(332,680,o),
(308,624,o),
(308,563,cs),
(308,511,o),
(322,468,o),
(352,397,cs),
(381,328,o),
(400,272,o),
(400,209,cs),
(400,119,o),
(350,57,o),
(266,57,cs),
(190,57,o),
(143,103,o),
(143,178,cs),
(143,247,o),
(183,291,o),
(247,291,cs),
(255,291,o),
(264,290,o),
(273,288,c),
(281,355,l),
(268,358,o),
(257,359,o),
(246,359,cs),
(144,359,o),
(68,282,o),
(68,177,cs),
(68,64,o),
(149,-10,o),
(267,-10,cs)
);
},
{
closed = 1;
nodes = (
(171,327,l),
(130,363,o),
(109,398,o),
(109,448,cs),
(109,497,o),
(141,529,o),
(195,529,cs),
(210,529,o),
(224,527,o),
(237,523,c),
(250,595,l),
(232,600,o),
(210,603,o),
(188,603,cs),
(88,603,o),
(34,534,o),
(34,453,cs),
(34,381,o),
(69,325,o),
(121,276,c)
);
}
);
width = 509;
}
);
script = gujarati;
unicode = 2695;
},
{
glyphname = iigujr;
lastChange = "2021-10-13 09:53:05 +0000";
layers = (
{
anchors = (
{
name = b.nuktagujr;
pos = (314,0);
},
{
name = t.candrabindugujr;
pos = (118,603);
}
);
layerId = UUID0;
shapes = (
{
closed = 1;
nodes = (
(520,-10,o),
(590,107,o),
(590,236,cs),
(590,334,o),
(555,419,o),
(504,518,cs),
(453,617,o),
(424,675,o),
(424,737,cs),
(424,802,o),
(464,825,o),
(506,825,cs),
(562,825,o),
(596,781,o),
(617,734,c),
(691,761,l),
(661,830,o),
(610,896,o),
(505,896,cs),
(400,896,o),
(341,827,o),
(341,739,cs),
(341,663,o),
(369,609,o),
(437,476,cs),
(487,378,o),
(508,321,o),
(508,236,cs),
(508,129,o),
(439,63,o),
(314,63,cs),
(217,63,o),
(168,104,o),
(168,177,cs),
(168,253,o),
(229,286,o),
(300,286,cs),
(310,286,o),
(320,286,o),
(329,285,c),
(338,357,l),
(325,359,o),
(311,359,o),
(299,359,cs),
(164,359,o),
(88,278,o),
(88,176,cs),
(88,70,o),
(164,-10,o),
(311,-10,cs)
);
},
{
closed = 1;
nodes = (
(220,338,l),
(150,371,o),
(125,407,o),
(125,456,cs),
(125,499,o),
(157,529,o),
(219,529,cs),
(242,529,o),
(270,525,o),
(290,520,c),
(304,592,l),
(278,599,o),
(238,603,o),
(210,603,cs),
(102,603,o),
(44,537,o),
(44,461,cs),
(44,375,o),
(98,324,o),
(166,286,c)
);
}
);
width = 634;
},
{
anchors = (
{
name = b.nuktagujr;
pos = (309,0);
},
{
name = t.candrabindugujr;
pos = (136,603);
}
);
layerId = "E837EE1F-8268-496F-836F-3DC25D441D7C";
shapes = (
{
closed = 1;
nodes = (
(450,-10,o),
(541,86,o),
(541,222,cs),
(541,314,o),
(519,386,o),
(460,503,cs),
(415,593,o),
(376,674,o),
(376,744,cs),
(376,820,o),
(418,870,o),
(489,870,cs),
(562,870,o),
(600,826,o),
(635,747,c),
(658,755,l),
(623,839,o),
(574,896,o),
(489,896,cs),
(404,896,o),
(349,833,o),
(349,744,cs),
(349,672,o),
(376,614,o),
(436,492,cs),
(495,372,o),
(514,309,o),
(514,222,cs),
(514,98,o),
(434,16,o),
(304,16,cs),
(190,16,o),
(118,76,o),
(118,171,cs),
(118,260,o),
(180,319,o),
(276,319,cs),
(288,319,o),
(299,318,o),
(310,316,c),
(314,342,l),
(302,344,o),
(290,345,o),
(276,345,cs),
(167,345,o),
(91,273,o),
(91,171,cs),
(91,63,o),
(174,-10,o),
(304,-10,cs)
);
},
{
closed = 1;
nodes = (
(183,317,l),
(117,347,o),
(75,391,o),
(75,459,cs),
(75,535,o),
(132,576,o),
(211,576,cs),
(238,576,o),
(259,573,o),
(281,568,c),
(287,593,l),
(262,599,o),
(240,602,o),
(211,602,cs),
(117,602,o),
(48,550,o),
(48,459,cs),
(48,383,o),
(97,331,o),
(168,297,c)
);
}
);
width = 589;
},
{
anchors = (
{
name = b.nuktagujr;
pos = (342,0);
},
{
name = t.candrabindugujr;
pos = (69,603);
}
);
layerId = "B78FB6F8-4888-4A20-9211-9CA65DB7E66A";
shapes = (
{
closed = 1;
nodes = (
(551,-10,o),
(667,98,o),
(667,259,cs),
(667,349,o),
(639,422,o),
(573,552,cs),
(530,636,o),
(513,677,o),
(513,711,cs),
(513,744,o),
(528,764,o),
(555,764,cs),
(584,764,o),
(608,740,o),
(630,692,c),
(777,756,l),
(730,844,o),
(663,896,o),
(546,896,cs),
(418,896,o),
(337,821,o),
(337,716,cs),
(337,656,o),
(358,598,o),
(424,477,cs),
(468,396,o),
(489,335,o),
(489,273,cs),
(489,180,o),
(431,128,o),
(327,128,cs),
(267,128,o),
(237,146,o),
(237,182,cs),
(237,217,o),
(266,232,o),
(311,232,cs),
(324,232,o),
(337,231,o),
(345,230,c),
(360,367,l),
(345,369,o),
(329,370,o),
(314,370,cs),
(174,370,o),
(60,304,o),
(60,189,cs),
(60,69,o),
(161,-10,o),
(334,-10,cs)
);
},
{
closed = 1;
nodes = (
(268,350,l),
(228,370,o),
(201,391,o),
(201,422,cs),
(201,449,o),
(224,464,o),
(261,464,cs),
(278,464,o),
(289,463,o),
(306,460,c),
(330,591,l),
(297,598,o),
(269,602,o),
(229,602,cs),
(116,602,o),
(24,550,o),
(24,444,cs),
(24,372,o),
(73,316,o),
(148,271,c)
);
}
);
width = 691;
},
{
anchors = (
{
name = b.nuktagujr;
pos = (236,0);
},
{
name = t.candrabindugujr;
pos = (111,603);
}
);
layerId = "E5C9A917-AA5F-4208-B63B-4C942A1E52F0";
shapes = (
{
closed = 1;
nodes = (
(355,-10,o),
(421,76,o),
(421,201,cs),
(421,283,o),
(396,383,o),
(352,505,cs),
(312,617,o),
(292,685,o),
(292,753,cs),
(292,827,o),
(322,870,o),
(376,870,cs),
(426,870,o),
(454,836,o),
(475,759,c),
(499,766,l),
(477,853,o),
(440,896,o),
(376,896,cs),
(306,896,o),
(265,841,o),
(265,753,cs),
(265,684,o),
(285,609,o),
(327,496,cs),
(372,376,o),
(394,280,o),
(394,201,cs),
(394,96,o),
(344,16,o),
(236,16,cs),
(150,16,o),
(93,78,o),
(93,171,cs),
(93,254,o),
(138,319,o),
(214,319,cs),
(219,319,o),
(225,319,o),
(231,318,c),
(234,344,l),
(227,345,o),
(221,345,o),
(214,345,cs),
(125,345,o),
(66,272,o),
(66,171,cs),
(66,66,o),
(131,-10,o),
(236,-10,cs)
);
},
{
closed = 1;
nodes = (
(145,315,l),
(97,355,o),
(65,404,o),
(65,468,cs),
(65,532,o),
(104,577,o),
(177,577,cs),
(190,577,o),
(202,576,o),
(217,572,c),
(223,597,l),
(207,601,o),
(191,603,o),
(177,603,cs),
(80,603,o),
(38,541,o),
(38,469,cs),
(38,398,o),
(72,342,o),
(128,296,c)
);
}
);
width = 459;
},
{
anchors = (
{
name = b.nuktagujr;
pos = (295,0);
},
{
name = t.candrabindugujr;
pos = (44,603);
}
);
layerId = "5004026F-C7B4-4F0F-B515-084BD38674AE";
shapes = (
{
closed = 1;
nodes = (
(452,-10,o),
(557,86,o),
(557,249,cs),
(557,344,o),
(537,422,o),
(493,524,cs),
(451,622,o),
(430,672,o),
(430,717,cs),
(430,744,o),
(442,762,o),
(464,762,cs),
(485,762,o),
(498,750,o),
(517,700,c),
(649,754,l),
(609,844,o),
(546,896,o),
(452,896,cs),
(341,896,o),
(269,828,o),
(269,719,cs),
(269,664,o),
(292,601,o),
(333,500,cs),
(382,379,o),
(399,329,o),
(399,255,cs),
(399,170,o),
(350,128,o),
(285,128,cs),
(228,128,o),
(203,148,o),
(203,180,cs),
(203,212,o),
(230,230,o),
(267,230,cs),
(275,230,o),
(284,229,o),
(290,228,c),
(306,365,l),
(290,367,o),
(274,368,o),
(261,368,cs),
(144,368,o),
(47,302,o),
(47,194,cs),
(47,71,o),
(139,-10,o),
(292,-10,cs)
);
},
{
closed = 1;
nodes = (
(213,345,l),
(188,366,o),
(174,388,o),
(174,415,cs),
(174,445,o),
(194,464,o),
(224,464,cs),
(234,464,o),
(242,463,o),
(253,461,c),
(274,593,l),
(247,599,o),
(225,602,o),
(198,602,cs),
(90,602,o),
(18,545,o),
(18,442,cs),
(18,372,o),
(53,313,o),
(102,268,c)
);
}
);
width = 575;
},
{
anchors = (
{
name = b.nuktagujr;
pos = (257,0);
},
{
name = t.candrabindugujr;
pos = (79,603);
}
);
layerId = "0BA4C117-BB0E-400D-AA02-27C87BA635D5";
shapes = (
{
closed = 1;
nodes = (
(390,-10,o),
(475,83,o),
(475,219,cs),
(475,320,o),
(451,394,o),
(406,519,cs),
(361,643,o),
(346,696,o),
(346,754,cs),
(346,803,o),
(369,830,o),
(406,830,cs),
(448,830,o),
(468,792,o),
(485,737,c),
(558,761,l),
(532,830,o),
(491,896,o),
(402,896,cs),
(319,896,o),
(268,836,o),
(268,754,cs),
(268,690,o),
(284,631,o),
(332,499,cs),
(377,375,o),
(400,304,o),
(400,219,cs),
(400,123,o),
(350,57,o),
(266,57,cs),
(190,57,o),
(143,103,o),
(143,178,cs),
(143,247,o),
(183,291,o),
(247,291,cs),
(255,291,o),
(264,290,o),
(273,288,c),
(281,355,l),
(268,358,o),
(257,359,o),
(246,359,cs),
(144,359,o),
(68,282,o),
(68,177,cs),
(68,64,o),
(149,-10,o),
(267,-10,cs)
);
},
{
closed = 1;
nodes = (
(171,327,l),
(130,363,o),
(109,398,o),
(109,448,cs),
(109,497,o),
(141,529,o),
(195,529,cs),
(210,529,o),
(224,527,o),
(237,523,c),
(250,595,l),
(232,600,o),
(210,603,o),
(188,603,cs),
(88,603,o),
(34,534,o),
(34,453,cs),
(34,381,o),
(69,325,o),
(121,276,c)
);
}
);
width = 511;
}
);
script = gujarati;
unicode = 2696;
},
{
glyphname = ugujr;
lastChange = "2021-10-13 09:53:05 +0000";
layers = (
{
anchors = (
{
name = b.nuktagujr;
pos = (338,0);
},
{
name = t.candrabindugujr;
pos = (554,603);
}
);
layerId = UUID0;
shapes = (
{
closed = 1;
nodes = (
(498,-10,o),
(576,57,o),
(576,167,cs),
(576,235,o),
(537,308,o),
(459,352,c),
(388,337,l),
(389,306,l),
(453,284,o),
(495,235,o),
(495,171,cs),
(495,97,o),
(444,63,o),
(364,63,cs),
(231,63,o),
(141,161,o),
(141,389,cs),
(141,568,o),
(203,760,o),
(417,760,cs),
(447,760,o),
(479,757,o),
(500,751,c),
(514,823,l),
(486,830,o),
(458,834,o),
(414,834,cs),
(152,834,o),
(58,616,o),
(58,392,cs),
(58,116,o),
(179,-10,o),
(367,-10,cs)
);
},
{
closed = 1;
nodes = (
(454,277,o),
(575,329,o),
(575,449,cs),
(575,537,o),
(519,603,o),
(396,603,cs),
(341,603,o),
(292,588,o),
(244,567,c),
(270,499,l),
(315,521,o),
(353,529,o),
(395,529,cs),
(457,529,o),
(495,498,o),
(495,446,cs),
(495,377,o),
(417,348,o),
(323,343,c),
(338,270,l)
);
}
);
width = 625;
},
{
anchors = (
{
name = b.nuktagujr;
pos = (352,0);
},
{
name = t.candrabindugujr;
pos = (526,603);
}
);
layerId = "E837EE1F-8268-496F-836F-3DC25D441D7C";
shapes = (
{
closed = 1;
nodes = (
(462,-10,o),
(534,60,o),
(534,158,cs),
(534,225,o),
(503,286,o),
(440,338,c),
(419,336,l),
(420,321,l),
(481,276,o),
(507,223,o),
(507,158,cs),
(507,75,o),
(447,16,o),
(349,16,cs),
(198,16,o),
(95,134,o),
(95,392,cs),
(95,646,o),
(209,808,o),
(398,808,cs),
(431,808,o),
(457,804,o),
(479,797,c),
(485,822,l),
(460,830,o),
(433,834,o),
(398,834,cs),
(194,834,o),
(68,662,o),
(68,392,cs),
(68,117,o),
(183,-10,o),
(349,-10,cs)
);
},
{
closed = 1;
nodes = (
(453,303,o),
(531,357,o),
(531,456,cs),
(531,537,o),
(471,602,o),
(370,602,cs),
(323,602,o),
(273,588,o),
(225,567,c),
(236,542,l),
(282,562,o),
(328,576,o),
(370,576,cs),
(458,576,o),
(504,525,o),
(504,456,cs),
(504,368,o),
(432,327,o),
(304,320,c),
(310,294,l)
);
}
);
width = 593;
},
{
anchors = (
{
name = b.nuktagujr;
pos = (357,0);
},
{
name = t.candrabindugujr;
pos = (541,603);
}
);
layerId = "B78FB6F8-4888-4A20-9211-9CA65DB7E66A";
shapes = (
{
closed = 1;
nodes = (
(583,-10,o),
(671,60,o),
(671,174,cs),
(671,262,o),
(610,331,o),
(504,383,c),
(402,337,l),
(402,285,l),
(460,263,o),
(494,228,o),
(494,189,cs),
(494,150,o),
(462,128,o),
(392,128,cs),
(290,128,o),
(215,207,o),
(215,391,cs),
(215,606,o),
(311,705,o),
(467,705,cs),
(505,705,o),
(543,702,o),
(571,695,c),
(597,833,l),
(561,842,o),
(519,847,o),
(475,847,cs),
(188,847,o),
(38,674,o),
(38,397,cs),
(38,139,o),
(167,-10,o),
(399,-10,cs)
);
},
{
closed = 1;
nodes = (
(553,249,o),
(669,322,o),
(669,434,cs),
(669,532,o),
(595,602,o),
(471,602,cs),
(406,602,o),
(342,590,o),
(290,570,c),
(334,443,l),
(369,455,o),
(404,464,o),
(436,464,cs),
(477,464,o),
(494,449,o),
(494,426,cs),
(494,388,o),
(440,374,o),
(364,368,c),
(392,240,l)
);
}
);
width = 703;
},
{
anchors = (
{
name = b.nuktagujr;
pos = (250,0);
},
{
name = t.candrabindugujr;
pos = (411,603);
}
);
layerId = "E5C9A917-AA5F-4208-B63B-4C942A1E52F0";
shapes = (
{
closed = 1;
nodes = (
(357,-10,o),
(415,48,o),
(415,160,cs),
(415,229,o),
(384,295,o),
(335,333,c),
(313,331,l),
(314,316,l),
(361,285,o),
(388,227,o),
(388,160,cs),
(388,66,o),
(343,16,o),
(265,16,cs),
(138,16,o),
(77,148,o),
(77,368,cs),
(77,639,o),
(156,808,o),
(325,808,cs),
(347,808,o),
(362,806,o),
(378,802,c),
(383,827,l),
(365,832,o),
(347,834,o),
(325,834,cs),
(141,834,o),
(50,656,o),
(50,368,cs),
(50,126,o),
(123,-10,o),
(265,-10,cs)
);
},
{
closed = 1;
nodes = (
(347,309,o),
(409,365,o),
(409,462,cs),
(409,542,o),
(360,602,o),
(269,602,cs),
(224,602,o),
(193,594,o),
(161,582,c),
(171,558,l),
(203,570,o),
(231,576,o),
(269,576,cs),
(348,576,o),
(382,525,o),
(382,462,cs),
(382,377,o),
(328,332,o),
(221,320,c),
(226,294,l)
);
}
);
width = 457;
},
{
anchors = (
{
name = b.nuktagujr;
pos = (310,0);
},
{
name = t.candrabindugujr;
pos = (456,603);
}
);
layerId = "5004026F-C7B4-4F0F-B515-084BD38674AE";
shapes = (
{
closed = 1;
nodes = (
(469,-10,o),
(551,57,o),
(551,168,cs),
(551,257,o),
(508,324,o),
(425,373,c),
(353,317,l),
(353,257,l),
(378,240,o),
(391,213,o),
(391,185,cs),
(391,150,o),
(368,128,o),
(324,128,cs),
(243,128,o),
(193,203,o),
(193,386,cs),
(193,623,o),
(255,705,o),
(391,705,cs),
(417,705,o),
(431,704,o),
(450,699,c),
(476,839,l),
(448,845,o),
(422,847,o),
(388,847,cs),
(175,847,o),
(34,714,o),
(34,383,cs),
(34,142,o),
(126,-10,o),
(328,-10,cs)
);
},
{
closed = 1;
nodes = (
(475,260,o),
(549,323,o),
(549,433,cs),
(549,527,o),
(482,602,o),
(359,602,cs),
(309,602,o),
(276,593,o),
(236,580,c),
(277,452,l),
(299,459,o),
(321,464,o),
(345,464,cs),
(375,464,o),
(393,450,o),
(393,427,cs),
(393,396,o),
(359,383,o),
(289,369,c),
(323,236,l)
);
}
);
width = 571;
},
{
anchors = (
{
name = b.nuktagujr;
pos = (286,0);
},
{
name = t.candrabindugujr;
pos = (411,603);
}
);
layerId = "0BA4C117-BB0E-400D-AA02-27C87BA635D5";
shapes = (
{
closed = 1;
nodes = (
(399,-10,o),
(459,59,o),
(459,165,cs),
(459,237,o),
(420,307,o),
(357,348,c),
(316,326,l),
(319,294,l),
(360,266,o),
(384,217,o),
(384,168,cs),
(384,99,o),
(351,58,o),
(284,58,cs),
(171,58,o),
(118,173,o),
(118,367,cs),
(118,627,o),
(206,765,o),
(351,765,cs),
(365,765,o),
(385,764,o),
(401,760,c),
(413,828,l),
(390,833,o),
(370,834,o),
(352,834,cs),
(164,834,o),
(43,680,o),
(43,369,cs),
(43,133,o),
(118,-10,o),
(286,-10,cs)
);
},
{
closed = 1;
nodes = (
(399,294,o),
(458,349,o),
(458,448,cs),
(458,535,o),
(399,602,o),
(298,602,cs),
(263,602,o),
(224,592,o),
(190,577,c),
(212,515,l),
(241,527,o),
(268,534,o),
(292,534,cs),
(352,534,o),
(383,499,o),
(383,446,cs),
(383,383,o),
(330,355,o),
(250,340,c),
(269,270,l)
);
}
);
width = 494;
}
);
script = gujarati;
unicode = 2697;
},
{
glyphname = uugujr;
lastChange = "2021-10-13 09:53:05 +0000";
layers = (
{
anchors = (
{
name = b.nuktagujr;
pos = (451,0);
},
{
name = t.candrabindugujr;
pos = (798,603);
}
);
layerId = UUID0;
shapes = (
{
closed = 1;
nodes = (
(498,-10,o),
(576,56,o),
(576,167,cs),
(576,235,o),
(537,308,o),
(459,352,c),
(388,337,l),
(389,306,l),
(453,284,o),
(495,235,o),
(495,171,cs),
(495,97,o),
(444,63,o),
(364,63,cs),
(230,63,o),
(141,161,o),
(141,383,cs),
(141,567,o),
(213,759,o),
(438,759,cs),
(574,759,o),
(666,675,o),
(714,557,c),
(714,148,ls),
(714,89,o),
(723,60,o),
(745,37,cs),
(768,13,o),
(805,0,o),
(862,0,cs),
(873,0,l),
(880,73,l),
(853,73,o),
(820,73,o),
(806,92,cs),
(798,103,o),
(794,116,o),
(794,152,cs),
(794,577,l),
(727,728,o),
(620,834,o),
(435,834,cs),
(164,834,o),
(58,615,o),
(58,382,cs),
(58,116,o),
(181,-10,o),
(362,-10,cs)
);
},
{
closed = 1;
nodes = (
(454,277,o),
(575,329,o),
(575,449,cs),
(575,537,o),
(519,603,o),
(396,603,cs),
(341,603,o),
(292,588,o),
(244,567,c),
(270,499,l),
(315,521,o),
(353,529,o),
(395,529,cs),
(457,529,o),
(495,498,o),
(495,446,cs),
(495,377,o),
(417,348,o),
(323,343,c),
(338,270,l)
);
}
);
width = 888;
},
{
anchors = (
{
name = b.nuktagujr;
pos = (428,0);
},
{
name = t.candrabindugujr;
pos = (770,603);
}
);
layerId = "E837EE1F-8268-496F-836F-3DC25D441D7C";
shapes = (
{
closed = 1;
nodes = (
(462,-10,o),
(534,60,o),
(534,158,cs),
(534,225,o),
(503,286,o),
(440,338,c),
(419,336,l),
(420,321,l),
(481,276,o),
(507,223,o),
(507,158,cs),
(507,75,o),
(447,16,o),
(349,16,cs),
(198,16,o),
(95,134,o),
(95,378,cs),
(95,646,o),
(225,808,o),
(417,808,cs),
(556,808,o),
(656,716,o),
(703,579,c),
(703,128,ls),
(703,74,o),
(718,43,o),
(742,23,cs),
(763,6,o),
(789,0,o),
(823,0,cs),
(832,0,l),
(835,26,l),
(802,26,o),
(779,29,o),
(761,41,cs),
(739,56,o),
(729,80,o),
(729,129,cs),
(729,586,l),
(679,730,o),
(569,834,o),
(417,834,cs),
(210,834,o),
(68,662,o),
(68,378,cs),
(68,117,o),
(183,-10,o),
(349,-10,cs)
);
},
{
closed = 1;
nodes = (
(453,303,o),
(531,357,o),
(531,456,cs),
(531,537,o),
(471,602,o),
(370,602,cs),
(323,602,o),
(273,588,o),
(225,567,c),
(236,542,l),
(282,562,o),
(328,576,o),
(370,576,cs),
(458,576,o),
(504,525,o),
(504,456,cs),
(504,368,o),
(432,327,o),
(304,320,c),
(310,294,l)
);
}
);
width = 837;
},
{
anchors = (
{
name = b.nuktagujr;
pos = (402,0);
},
{
name = t.candrabindugujr;
pos = (698,603);
}
);
layerId = "5004026F-C7B4-4F0F-B515-084BD38674AE";
shapes = (
{
closed = 1;
nodes = (
(469,-10,o),
(551,57,o),
(551,168,cs),
(551,257,o),
(508,324,o),
(425,373,c),
(353,317,l),
(353,257,l),
(378,240,o),
(391,213,o),
(391,185,cs),
(391,150,o),
(368,128,o),
(324,128,cs),
(241,128,o),
(193,213,o),
(193,391,cs),
(193,596,o),
(261,705,o),
(410,705,cs),
(515,705,o),
(579,623,o),
(610,516,c),
(610,150,ls),
(610,98,o),
(624,59,o),
(653,34,cs),
(679,11,o),
(716,0,o),
(764,0,cs),
(805,0,l),
(811,138,l),
(797,138,o),
(787,140,o),
(780,146,cs),
(772,153,o),
(769,163,o),
(769,180,cs),
(769,565,l),
(718,721,o),
(602,847,o),
(412,847,cs),
(183,847,o),
(34,696,o),
(34,396,cs),
(34,144,o),
(129,-10,o),
(333,-10,cs)
);
},
{
closed = 1;
nodes = (
(475,260,o),
(549,323,o),
(549,433,cs),
(549,527,o),
(482,602,o),
(359,602,cs),
(309,602,o),
(276,593,o),
(236,580,c),
(277,452,l),
(299,459,o),
(321,464,o),
(345,464,cs),
(375,464,o),
(393,450,o),
(393,427,cs),
(393,396,o),
(359,383,o),
(289,369,c),
(323,236,l)
);
}
);
width = 821;
},
{
anchors = (
{
name = b.nuktagujr;
pos = (495,0);
},
{
name = t.candrabindugujr;
pos = (844,603);
}
);
layerId = "B78FB6F8-4888-4A20-9211-9CA65DB7E66A";
shapes = (
{
closed = 1;
nodes = (
(583,-10,o),
(671,62,o),
(671,174,cs),
(671,256,o),
(617,328,o),
(504,383,c),
(402,337,l),
(402,285,l),
(460,263,o),
(494,228,o),
(494,189,cs),
(494,150,o),
(462,128,o),
(395,128,cs),
(290,128,o),
(215,207,o),
(215,382,cs),
(215,583,o),
(303,705,o),
(485,705,cs),
(614,705,o),
(698,626,o),
(745,508,c),
(745,194,ls),
(745,121,o),
(758,73,o),
(790,42,cs),
(821,12,o),
(870,0,o),
(941,0,cs),
(981,0,l),
(994,138,l),
(965,138,o),
(948,141,o),
(937,151,cs),
(925,162,o),
(922,180,o),
(922,209,cs),
(922,561,l),
(847,735,o),
(709,847,o),
(483,847,cs),
(210,847,o),
(38,677,o),
(38,391,cs),
(38,139,o),
(167,-10,o),
(399,-10,cs)
);
},
{
closed = 1;
nodes = (
(553,249,o),
(669,322,o),
(669,434,cs),
(669,532,o),
(595,602,o),
(464,602,cs),
(406,602,o),
(342,590,o),
(290,570,c),
(334,443,l),
(369,455,o),
(404,464,o),
(436,464,cs),
(477,464,o),
(494,449,o),
(494,426,cs),
(494,388,o),
(440,374,o),
(364,368,c),
(392,240,l)
);
}
);
width = 997;
},
{
anchors = (
{
name = b.nuktagujr;
pos = (343,0);
},
{
name = t.candrabindugujr;
pos = (651,603);
}
);
layerId = "0BA4C117-BB0E-400D-AA02-27C87BA635D5";
shapes = (
{
closed = 1;
nodes = (
(399,-10,o),
(459,59,o),
(459,165,cs),
(459,237,o),
(420,307,o),
(357,348,c),
(316,326,l),
(319,294,l),
(360,266,o),
(384,217,o),
(384,168,cs),
(384,99,o),
(351,58,o),
(284,58,cs),
(171,58,o),
(118,171,o),
(118,387,cs),
(118,624,o),
(203,766,o),
(356,766,cs),
(466,766,o),
(532,682,o),
(559,557,c),
(559,117,ls),
(559,77,o),
(569,45,o),
(592,25,cs),
(612,8,o),
(638,0,o),
(673,0,cs),
(693,0,l),
(697,68,l),
(673,68,o),
(661,72,o),
(652,79,cs),
(639,89,o),
(634,104,o),
(634,129,cs),
(634,577,l),
(598,739,o),
(497,834,o),
(355,834,cs),
(159,834,o),
(43,679,o),
(43,387,cs),
(43,133,o),
(118,-10,o),
(286,-10,cs)
);
},
{
closed = 1;
nodes = (
(399,294,o),
(458,349,o),
(458,448,cs),
(458,535,o),
(399,602,o),
(298,602,cs),
(263,602,o),
(224,592,o),
(190,577,c),
(212,515,l),
(241,527,o),
(268,534,o),
(292,534,cs),
(352,534,o),
(383,499,o),
(383,446,cs),
(383,383,o),
(330,355,o),
(250,340,c),
(269,270,l)
);
}
);
width = 705;
},
{
anchors = (
{
name = b.nuktagujr;
pos = (319,0);
},
{
name = t.candrabindugujr;
pos = (593,603);
}
);
layerId = "E5C9A917-AA5F-4208-B63B-4C942A1E52F0";
shapes = (
{
closed = 1;
nodes = (
(357,-10,o),
(415,48,o),
(415,160,cs),
(415,229,o),
(384,295,o),
(335,333,c),
(313,331,l),
(314,316,l),
(361,285,o),
(388,227,o),
(388,160,cs),
(388,66,o),
(343,16,o),
(267,16,cs),
(136,16,o),
(77,148,o),
(77,388,cs),
(77,639,o),
(157,808,o),
(330,808,cs),
(459,808,o),
(517,689,o),
(535,572,c),
(535,98,ls),
(535,61,o),
(544,35,o),
(563,19,cs),
(578,6,o),
(598,0,o),
(625,0,cs),
(633,0,l),
(636,26,l),
(611,26,o),
(593,30,o),
(581,39,cs),
(567,50,o),
(561,69,o),
(561,98,cs),
(561,577,l),
(539,709,o),
(472,834,o),
(330,834,cs),
(143,834,o),
(50,663,o),
(50,388,cs),
(50,123,o),
(123,-10,o),
(267,-10,cs)
);
},
{
closed = 1;
nodes = (
(347,309,o),
(409,365,o),
(409,462,cs),
(409,542,o),
(360,602,o),
(269,602,cs),
(224,602,o),
(193,594,o),
(161,582,c),
(171,558,l),
(203,570,o),
(231,576,o),
(269,576,cs),
(348,576,o),
(382,525,o),
(382,462,cs),
(382,377,o),
(328,332,o),
(221,320,c),
(226,294,l)
);
}
);
width = 639;
}
);
metricRight = aavowelsigngujr;
script = gujarati;
unicode = 2698;
},
{
glyphname = rvocalicgujr;
lastChange = "2021-10-13 09:53:05 +0000";
layers = (
{
anchors = (
{
name = b.nuktagujr;
pos = (457,0);
},
{
name = t.candrabindugujr;
pos = (407,603);
}
);
layerId = UUID0;
shapes = (
{
closed = 1;
nodes = (
(743,109,o),
(791,149,o),
(791,226,cs),
(791,281,o),
(770,327,o),
(715,403,c),
(683,407,l),
(655,389,o),
(645,385,o),
(614,385,cs),
(562,385,o),
(516,407,o),
(480,446,c),
(471,369,l),
(516,331,o),
(574,313,o),
(624,313,cs),
(704,313,o),
(775,354,o),
(775,418,cs),
(775,461,o),
(747,490,o),
(705,490,cs),
(669,490,o),
(638,471,o),
(638,429,cs),
(638,408,o),
(646,391,o),
(657,375,c),
(655,365,l),
(699,310,o),
(712,271,o),
(712,230,cs),
(712,180,o),
(675,159,o),
(641,143,c),
(682,79,l)
);
},
{
closed = 1;
nodes = (
(447,334,l),
(414,394,l),
(96,205,l),
(146,135,l)
);
},
{
closed = 1;
nodes = (
(401,383,l),
(314,494,o),
(265,533,o),
(161,533,cs),
(117,533,o),
(63,520,o),
(11,493,c),
(40,423,l),
(83,446,o),
(116,458,o),
(165,458,cs),
(226,458,o),
(277,440,o),
(348,334,c)
);
},
{
closed = 1;
nodes = (
(566,0,l),
(574,73,l),
(548,73,o),
(514,73,o),
(500,92,cs),
(491,105,o),
(487,115,o),
(487,152,cs),
(487,592,l),
(407,603,l),
(407,148,ls),
(407,89,o),
(416,60,o),
(438,37,cs),
(461,13,o),
(498,0,o),
(556,0,cs)
);
}
);
width = 831;
},
{
anchors = (
{
name = b.nuktagujr;
pos = (445,0);
},
{
name = t.candrabindugujr;
pos = (432,603);
}
);
layerId = "E837EE1F-8268-496F-836F-3DC25D441D7C";
shapes = (
{
closed = 1;
nodes = (
(733,129,o),
(761,170,o),
(761,224,cs),
(761,269,o),
(739,312,o),
(703,371,c),
(686,383,l),
(665,370,o),
(637,363,o),
(608,363,cs),
(553,363,o),
(495,389,o),
(449,431,c),
(441,405,l),
(494,361,o),
(550,337,o),
(608,337,cs),
(679,337,o),
(745,372,o),
(745,417,cs),
(745,442,o),
(728,462,o),
(698,462,cs),
(670,462,o),
(651,444,o),
(651,420,cs),
(651,402,o),
(660,388,o),
(676,367,c),
(683,355,l),
(716,304,o),
(734,265,o),
(734,224,cs),
(734,179,o),
(708,144,o),
(651,112,c),
(666,90,l)
);
},
{
closed = 1;
nodes = (
(450,366,l),
(435,387,l),
(111,177,l),
(127,155,l)
);
},
{
closed = 1;
nodes = (
(420,366,l),
(320,494,o),
(254,533,o),
(156,533,cs),
(107,533,o),
(57,517,o),
(10,494,c),
(22,469,l),
(70,492,o),
(115,507,o),
(157,507,cs),
(245,507,o),
(304,473,o),
(398,352,c)
);
},
{
closed = 1;
nodes = (
(561,0,l),
(564,26,l),
(531,26,o),
(508,29,o),
(490,41,cs),
(468,56,o),
(458,80,o),
(458,129,cs),
(458,598,l),
(432,602,l),
(432,128,ls),
(432,74,o),
(447,43,o),
(471,23,cs),
(492,6,o),
(518,0,o),
(552,0,cs)
);
}
);
width = 805;
},
{
anchors = (
{
name = b.nuktagujr;
pos = (321,0);
},
{
name = t.candrabindugujr;
pos = (308,603);
}
);
layerId = "E5C9A917-AA5F-4208-B63B-4C942A1E52F0";
shapes = (
{
closed = 1;
nodes = (
(536,127,o),
(558,165,o),
(558,223,cs),
(558,267,o),
(542,312,o),
(514,371,c),
(499,383,l),
(480,370,o),
(458,363,o),
(433,363,cs),
(391,363,o),
(359,378,o),
(327,402,c),
(321,375,l),
(356,350,o),
(395,337,o),
(434,337,cs),
(492,337,o),
(546,373,o),
(546,419,cs),
(546,444,o),
(533,462,o),
(509,462,cs),
(486,462,o),
(472,445,o),
(472,422,cs),
(472,404,o),
(478,388,o),
(490,367,c),
(495,355,l),
(519,304,o),
(531,262,o),
(531,223,cs),
(531,174,o),
(510,142,o),
(462,112,c),
(478,90,l)
);
},
{
closed = 1;
nodes = (
(323,351,l),
(313,375,l),
(75,186,l),
(93,165,l)
);
},
{
closed = 1;
nodes = (
(303,358,l),
(222,470,o),
(174,510,o),
(101,510,cs),
(67,510,o),
(35,501,o),
(7,489,c),
(17,464,l),
(48,477,o),
(68,484,o),
(101,484,cs),
(163,484,o),
(201,455,o),
(284,343,c)
);
},
{
closed = 1;
nodes = (
(406,0,l),
(409,26,l),
(384,26,o),
(366,30,o),
(354,39,cs),
(340,50,o),
(334,69,o),
(334,98,cs),
(334,598,l),
(308,602,l),
(308,98,ls),
(308,61,o),
(317,35,o),
(336,19,cs),
(351,6,o),
(371,0,o),
(398,0,cs)
);
}
);
width = 596;
},
{
anchors = (
{
name = b.nuktagujr;
pos = (437,0);
},
{
name = t.candrabindugujr;
pos = (345,603);
}
);
layerId = "5004026F-C7B4-4F0F-B515-084BD38674AE";
shapes = (
{
closed = 1;
nodes = (
(741,88,o),
(781,130,o),
(781,215,cs),
(781,288,o),
(754,351,o),
(702,422,c),
(645,439,l),
(619,420,o),
(598,414,o),
(574,414,cs),
(532,414,o),
(496,432,o),
(462,471,c),
(448,333,l),
(485,303,o),
(540,283,o),
(595,283,cs),
(684,283,o),
(762,335,o),
(762,422,cs),
(762,485,o),
(726,528,o),
(668,528,cs),
(613,528,o),
(579,493,o),
(579,445,cs),
(579,420,o),
(589,392,o),
(608,370,c),
(608,335,l),
(626,303,o),
(637,268,o),
(637,237,cs),
(637,204,o),
(622,182,o),
(592,163,c),
(681,46,l)
);
},
{
closed = 1;
nodes = (
(430,308,l),
(368,416,l),
(65,205,l),
(159,86,l)
);
},
{
closed = 1;
nodes = (
(348,396,l),
(276,509,o),
(224,556,o),
(125,556,cs),
(73,556,o),
(34,545,o),
(2,530,c),
(51,400,l),
(75,411,o),
(97,417,o),
(121,417,cs),
(170,417,o),
(202,390,o),
(246,326,c)
);
},
{
closed = 1;
nodes = (
(541,0,l),
(547,138,l),
(533,138,o),
(523,140,o),
(516,146,cs),
(508,152,o),
(505,163,o),
(505,180,cs),
(505,592,l),
(346,602,l),
(346,150,ls),
(346,98,o),
(360,59,o),
(389,34,cs),
(415,11,o),
(452,0,o),
(500,0,cs)
);
}
);
width = 800;
},
{
anchors = (
{
name = b.nuktagujr;
pos = (537,0);
},
{
name = t.candrabindugujr;
pos = (430,603);
}
);
layerId = "B78FB6F8-4888-4A20-9211-9CA65DB7E66A";
shapes = (
{
closed = 1;
nodes = (
(884,109,o),
(933,162,o),
(933,238,cs),
(933,304,o),
(898,362,o),
(840,427,c),
(784,445,l),
(754,427,o),
(728,419,o),
(697,419,cs),
(644,419,o),
(601,450,o),
(559,517,c),
(546,342,l),
(590,304,o),
(655,282,o),
(707,282,cs),
(825,282,o),
(910,340,o),
(910,430,cs),
(910,491,o),
(869,538,o),
(802,538,cs),
(738,538,o),
(699,500,o),
(699,450,cs),
(699,422,o),
(711,392,o),
(734,369,c),
(734,329,l),
(757,307,o),
(771,281,o),
(771,253,cs),
(771,219,o),
(752,198,o),
(713,178,c),
(793,57,l)
);
},
{
closed = 1;
nodes = (
(524,305,l),
(454,422,l),
(96,227,l),
(194,79,l)
);
},
{
closed = 1;
nodes = (
(433,399,l),
(360,501,o),
(300,562,o),
(182,562,cs),
(114,562,o),
(58,543,o),
(9,521,c),
(58,395,l),
(96,412,o),
(133,424,o),
(171,424,cs),
(238,424,o),
(271,388,o),
(316,327,c)
);
},
{
closed = 1;
nodes = (
(666,0,l),
(679,138,l),
(650,138,o),
(633,141,o),
(622,151,cs),
(610,162,o),
(607,180,o),
(607,209,cs),
(607,592,l),
(430,602,l),
(430,194,ls),
(430,121,o),
(443,73,o),
(475,42,cs),
(506,12,o),
(555,0,o),
(626,0,cs)
);
}
);
width = 957;
},
{
anchors = (
{
name = b.nuktagujr;
pos = (368,0);
},
{
name = t.candrabindugujr;
pos = (320,603);
}
);
layerId = "0BA4C117-BB0E-400D-AA02-27C87BA635D5";
shapes = (
{
closed = 1;
nodes = (
(607,116,o),
(639,152,o),
(639,218,cs),
(639,270,o),
(619,321,o),
(577,399,c),
(546,407,l),
(524,387,o),
(512,383,o),
(489,383,cs),
(449,383,o),
(411,399,o),
(382,426,c),
(377,357,l),
(413,329,o),
(456,317,o),
(502,317,cs),
(566,317,o),
(625,356,o),
(625,418,cs),
(625,461,o),
(601,490,o),
(564,490,cs),
(526,490,o),
(504,466,o),
(504,427,cs),
(504,410,o),
(509,392,o),
(517,375,c),
(522,359,l),
(551,304,o),
(565,266,o),
(565,230,cs),
(565,193,o),
(542,166,o),
(502,142,c),
(550,78,l)
);
},
{
closed = 1;
nodes = (
(360,340,l),
(326,394,l),
(70,203,l),
(120,144,l)
);
},
{
closed = 1;
nodes = (
(314,382,l),
(234,487,o),
(187,521,o),
(113,521,cs),
(77,521,o),
(42,512,o),
(7,497,c),
(34,431,l),
(62,444,o),
(84,451,o),
(114,451,cs),
(162,451,o),
(201,420,o),
(262,342,c)
);
},
{
closed = 1;
nodes = (
(454,0,l),
(458,68,l),
(434,68,o),
(422,72,o),
(413,79,cs),
(400,89,o),
(395,104,o),
(395,129,cs),
(395,592,l),
(320,602,l),
(320,117,ls),
(320,77,o),
(330,45,o),
(353,25,cs),
(373,8,o),
(399,0,o),
(434,0,cs)
);
}
);
width = 669;
}
);
metricLeft = taragujr;
script = gujarati;
unicode = 2699;
},
{
glyphname = lvocalicgujr;
lastChange = "2021-10-13 09:53:05 +0000";
layers = (
{
anchors = (
{
name = b.nuktagujr;
pos = (309,0);
},
{
name = t.candrabindugujr;
pos = (454,603);
}
);
layerId = UUID0;
shapes = (
{
closed = 1;
nodes = (
(264,88,l),
(175,168,o),
(125,232,o),
(125,296,cs),
(125,343,o),
(153,377,o),
(208,377,cs),
(258,377,o),
(294,351,o),
(335,316,c),
(368,382,l),
(319,426,o),
(267,450,o),
(203,450,cs),
(130,450,o),
(42,405,o),
(42,300,cs),
(42,202,o),
(117,120,o),
(210,36,c)
);
},
{
closed = 1;
nodes = (
(635,-87,o),
(681,-70,o),
(716,-52,c),
(688,18,l),
(643,-5,o),
(617,-15,o),
(575,-15,cs),
(534,-15,o),
(496,5,o),
(496,49,cs),
(496,97,o),
(531,125,o),
(614,138,c),
(598,205,l),
(472,186,o),
(421,128,o),
(421,54,cs),
(421,-29,o),
(480,-87,o),
(581,-87,cs)
);
},
{
closed = 1;
nodes = (
(637,180,o),
(654,234,o),
(654,288,cs),
(654,406,o),
(570,450,o),
(504,450,cs),
(391,450,o),
(310,383,o),
(278,257,c),
(354,233,l),
(390,354,o),
(444,380,o),
(494,380,cs),
(542,380,o),
(574,353,o),
(574,292,cs),
(574,237,o),
(551,196,o),
(529,158,c),
(614,138,l)
);
},
{
closed = 1;
nodes = (
(534,412,l),
(534,592,l),
(454,603,l),
(454,412,l)
);
}
);
width = 697;
},
{
anchors = (
{
name = b.nuktagujr;
pos = (292,0);
},
{
name = t.candrabindugujr;
pos = (478,603);
}
);
layerId = "E837EE1F-8268-496F-836F-3DC25D441D7C";
shapes = (
{
closed = 1;
nodes = (
(229,67,l),
(130,150,o),
(79,215,o),
(79,302,cs),
(79,378,o),
(124,424,o),
(199,424,cs),
(264,424,o),
(306,395,o),
(347,354,c),
(364,372,l),
(319,417,o),
(268,450,o),
(199,450,cs),
(111,450,o),
(52,391,o),
(52,302,cs),
(52,204,o),
(112,130,o),
(212,46,c)
);
},
{
closed = 1;
nodes = (
(620,-73,o),
(660,-58,o),
(698,-36,c),
(687,-12,l),
(647,-35,o),
(615,-47,o),
(575,-47,cs),
(498,-47,o),
(455,-5,o),
(455,54,cs),
(455,118,o),
(499,153,o),
(575,156,c),
(574,182,l),
(482,179,o),
(428,129,o),
(428,54,cs),
(428,-16,o),
(481,-73,o),
(574,-73,cs)
);
},
{
closed = 1;
nodes = (
(602,202,o),
(618,258,o),
(618,300,cs),
(618,389,o),
(564,450,o),
(484,450,cs),
(396,450,o),
(333,392,o),
(291,254,c),
(320,245,l),
(357,371,o),
(408,424,o),
(484,424,cs),
(549,424,o),
(591,376,o),
(591,301,cs),
(591,257,o),
(578,212,o),
(551,168,c),
(575,156,l)
);
},
{
closed = 1;
nodes = (
(504,437,l),
(504,598,l),
(478,602,l),
(478,437,l)
);
}
);
width = 667;
},
{
anchors = (
{
name = b.nuktagujr;
pos = (357,0);
},
{
name = t.candrabindugujr;
pos = (473,603);
}
);
layerId = "B78FB6F8-4888-4A20-9211-9CA65DB7E66A";
shapes = (
{
closed = 1;
nodes = (
(333,119,l),
(248,185,o),
(203,233,o),
(203,281,cs),
(203,313,o),
(224,334,o),
(260,334,cs),
(307,334,o),
(341,297,o),
(377,256,c),
(457,375,l),
(387,438,o),
(316,472,o),
(231,472,cs),
(108,472,o),
(26,402,o),
(26,294,cs),
(26,178,o),
(109,89,o),
(215,4,c)
);
},
{
closed = 1;
nodes = (
(742,-107,o),
(795,-92,o),
(838,-68,c),
(793,59,l),
(758,38,o),
(722,26,o),
(688,26,cs),
(653,26,o),
(632,39,o),
(632,64,cs),
(632,96,o),
(665,111,o),
(717,120,c),
(682,229,l),
(541,208,o),
(469,145,o),
(469,53,cs),
(469,-41,o),
(550,-107,o),
(676,-107,cs)
);
},
{
closed = 1;
nodes = (
(753,174,o),
(770,227,o),
(770,275,cs),
(770,377,o),
(692,469,o),
(565,469,cs),
(411,469,o),
(323,379,o),
(291,241,c),
(449,197,l),
(472,293,o),
(503,334,o),
(547,334,cs),
(579,334,o),
(595,312,o),
(595,281,cs),
(595,238,o),
(575,195,o),
(545,158,c),
(717,120,l)
);
},
{
closed = 1;
nodes = (
(650,407,l),
(650,592,l),
(473,602,l),
(473,407,l)
);
}
);
width = 800;
},
{
anchors = (
{
name = b.nuktagujr;
pos = (237,0);
},
{
name = t.candrabindugujr;
pos = (360,603);
}
);
layerId = "E5C9A917-AA5F-4208-B63B-4C942A1E52F0";
shapes = (
{
closed = 1;
nodes = (
(171,64,l),
(105,146,o),
(65,224,o),
(65,303,cs),
(65,379,o),
(105,424,o),
(168,424,cs),
(211,424,o),
(241,406,o),
(269,380,c),
(283,398,l),
(251,428,o),
(215,450,o),
(167,450,cs),
(90,450,o),
(38,392,o),
(38,303,cs),
(38,214,o),
(82,136,o),
(150,48,c)
);
},
{
closed = 1;
nodes = (
(480,-73,o),
(505,-66,o),
(532,-53,c),
(522,-28,l),
(496,-41,o),
(474,-47,o),
(447,-47,cs),
(391,-47,o),
(351,-9,o),
(351,45,cs),
(351,110,o),
(391,137,o),
(442,158,c),
(433,180,l),
(372,156,o),
(324,119,o),
(324,47,cs),
(324,-23,o),
(376,-73,o),
(447,-73,cs)
);
},
{
closed = 1;
nodes = (
(459,205,o),
(473,253,o),
(473,304,cs),
(473,399,o),
(431,450,o),
(370,450,cs),
(296,450,o),
(243,388,o),
(219,253,c),
(246,245,l),
(267,367,o),
(309,424,o),
(369,424,cs),
(416,424,o),
(446,388,o),
(446,305,cs),
(446,253,o),
(435,213,o),
(417,170,c),
(442,158,l)
);
},
{
closed = 1;
nodes = (
(386,437,l),
(386,598,l),
(360,602,l),
(360,437,l)
);
}
);
width = 510;
},
{
anchors = (
{
name = b.nuktagujr;
pos = (298,0);
},
{
name = t.candrabindugujr;
pos = (403,603);
}
);
layerId = "5004026F-C7B4-4F0F-B515-084BD38674AE";
shapes = (
{
closed = 1;
nodes = (
(269,103,l),
(194,183,o),
(178,226,o),
(178,273,cs),
(178,311,o),
(198,334,o),
(231,334,cs),
(260,334,o),
(282,320,o),
(307,298,c),
(373,403,l),
(325,446,o),
(273,471,o),
(206,471,cs),
(92,471,o),
(19,400,o),
(19,285,cs),
(19,198,o),
(64,112,o),
(159,10,c)
);
},
{
closed = 1;
nodes = (
(627,-103,o),
(667,-91,o),
(698,-76,c),
(650,48,l),
(637,40,o),
(617,30,o),
(581,30,cs),
(555,30,o),
(530,44,o),
(530,69,cs),
(530,100,o),
(562,114,o),
(601,124,c),
(542,235,l),
(433,204,o),
(373,148,o),
(373,62,cs),
(373,-35,o),
(453,-103,o),
(576,-103,cs)
);
},
{
closed = 1;
nodes = (
(630,176,o),
(643,230,o),
(643,282,cs),
(643,379,o),
(575,465,o),
(461,465,cs),
(333,465,o),
(264,374,o),
(242,240,c),
(383,205,l),
(398,294,o),
(418,334,o),
(453,334,cs),
(476,334,o),
(485,315,o),
(485,287,cs),
(485,240,o),
(465,195,o),
(440,158,c),
(601,124,l)
);
},
{
closed = 1;
nodes = (
(563,408,l),
(563,592,l),
(404,602,l),
(404,408,l)
);
}
);
width = 662;
},
{
anchors = (
{
name = b.nuktagujr;
pos = (262,0);
},
{
name = t.candrabindugujr;
pos = (367,603);
}
);
layerId = "0BA4C117-BB0E-400D-AA02-27C87BA635D5";
shapes = (
{
closed = 1;
nodes = (
(216,81,l),
(144,158,o),
(105,220,o),
(105,292,cs),
(105,346,o),
(135,381,o),
(189,381,cs),
(224,381,o),
(247,368,o),
(274,344,c),
(309,399,l),
(271,432,o),
(231,450,o),
(181,450,cs),
(106,450,o),
(29,404,o),
(29,296,cs),
(29,205,o),
(80,121,o),
(163,35,c)
);
},
{
closed = 1;
nodes = (
(528,-87,o),
(561,-79,o),
(588,-66,c),
(562,3,l),
(536,-9,o),
(516,-15,o),
(486,-15,cs),
(445,-15,o),
(416,8,o),
(416,45,cs),
(416,87,o),
(445,116,o),
(496,138,c),
(467,196,l),
(380,166,o),
(341,114,o),
(341,42,cs),
(341,-35,o),
(396,-87,o),
(488,-87,cs)
);
},
{
closed = 1;
nodes = (
(521,183,o),
(537,242,o),
(537,298,cs),
(537,389,o),
(489,450,o),
(406,450,cs),
(303,450,o),
(243,379,o),
(218,255,c),
(290,235,l),
(308,333,o),
(344,381,o),
(399,381,cs),
(442,381,o),
(461,351,o),
(461,302,cs),
(461,251,o),
(443,201,o),
(417,158,c),
(496,138,l)
);
},
{
closed = 1;
nodes = (
(442,412,l),
(442,592,l),
(367,602,l),
(367,412,l)
);
}
);
width = 570;
}
);
script = gujarati;
unicode = 2700;
},
{
glyphname = kagujr;
lastChange = "2021-10-13 13:39:55 +0000";
layers = (
{
anchors = (
{
name = b.nuktagujr;
pos = (272,0);
},
{
name = t.candrabindugujr;
pos = (324,603);
},
{
name = t.candrabinduleftgujr;
pos = (225,603);
}
);
layerId = "E837EE1F-8268-496F-836F-3DC25D441D7C";
shapes = (
{
closed = 1;
nodes = (
(336,-10,o),
(398,54,o),
(398,135,cs),
(398,227,o),
(328,276,o),
(258,320,c),
(244,329,l),
(180,369,o),
(121,407,o),
(121,472,cs),
(121,539,o),
(169,576,o),
(255,576,cs),
(293,576,o),
(326,571,o),
(360,562,c),
(366,588,l),
(327,597,o),
(295,602,o),
(255,602,cs),
(155,602,o),
(94,552,o),
(94,472,cs),
(94,399,o),
(152,358,o),
(215,318,c),
(226,311,l),
(298,267,o),
(371,222,o),
(371,135,cs),
(371,67,o),
(323,16,o),
(225,16,cs),
(154,16,o),
(99,41,o),
(37,85,c),
(22,63,l),
(84,19,o),
(147,-10,o),
(225,-10,cs)
);
},
{
closed = 1;
nodes = (
(248,308,l),
(448,379,l),
(439,404,l),
(225,327,l),
(42,262,l),
(51,238,l)
);
}
);
width = 460;
},
{
anchors = (
{
name = b.nuktagujr;
pos = (279,0);
},
{
name = t.candrabindugujr;
pos = (314,603);
},
{
name = t.candrabinduleftgujr;
pos = (214,603);
}
);
layerId = UUID0;
shapes = (
{
closed = 1;
nodes = (
(402,-10,o),
(453,68,o),
(453,142,cs),
(453,217,o),
(405,270,o),
(313,322,c),
(285,347,l),
(212,384,o),
(185,418,o),
(185,454,cs),
(185,500,o),
(218,529,o),
(286,529,cs),
(321,529,o),
(344,525,o),
(379,517,c),
(394,589,l),
(358,598,o),
(320,603,o),
(277,603,cs),
(171,603,o),
(103,545,o),
(103,461,cs),
(103,393,o),
(148,351,o),
(219,306,c),
(246,285,l),
(350,224,o),
(371,183,o),
(371,144,cs),
(371,92,o),
(335,63,o),
(254,63,cs),
(189,63,o),
(128,84,o),
(63,135,c),
(18,73,l),
(78,27,o),
(155,-10,o),
(259,-10,cs)
);
},
{
closed = 1;
nodes = (
(289,297,l),
(496,368,l),
(464,438,l),
(229,350,l),
(38,282,l),
(65,211,l)
);
}
);
width = 511;
},
{
anchors = (
{
name = b.nuktagujr;
pos = (266,0);
},
{
name = t.candrabindugujr;
pos = (285,603);
},
{
name = t.candrabinduleftgujr;
pos = (206,603);
}
);
guides = (
{
angle = 90;
pos = (525,142);
}
);
layerId = "B78FB6F8-4888-4A20-9211-9CA65DB7E66A";
shapes = (
{
closed = 1;
nodes = (
(424,-10,o),
(510,52,o),
(510,145,cs),
(510,225,o),
(462,280,o),
(366,321,c),
(338,366,l),
(303,383,o),
(273,398,o),
(273,426,cs),
(273,451,o),
(299,464,o),
(335,464,cs),
(368,464,o),
(404,458,o),
(433,449,c),
(460,585,l),
(408,596,o),
(356,602,o),
(309,602,cs),
(183,602,o),
(99,541,o),
(99,448,cs),
(99,391,o),
(139,349,o),
(185,315,c),
(228,255,l),
(296,232,o),
(333,211,o),
(333,176,cs),
(333,146,o),
(300,128,o),
(241,128,cs),
(196,128,o),
(132,143,o),
(84,169,c),
(17,50,l),
(94,9,o),
(193,-10,o),
(274,-10,cs)
);
},
{
closed = 1;
nodes = (
(304,250,l),
(554,307,l),
(513,441,l),
(265,378,l),
(35,325,l),
(77,191,l)
);
}
);
width = 567;
},
{
anchors = (
{
name = b.nuktagujr;
pos = (212,0);
},
{
name = t.candrabindugujr;
pos = (284,603);
},
{
name = t.candrabinduleftgujr;
pos = (225,603);
}
);
layerId = "0BA4C117-BB0E-400D-AA02-27C87BA635D5";
shapes = (
{
closed = 1;
nodes = (
(287,-10,o),
(350,50,o),
(350,132,cs),
(350,203,o),
(314,256,o),
(239,320,c),
(216,343,l),
(179,375,o),
(149,415,o),
(149,457,cs),
(149,506,o),
(180,534,o),
(236,534,cs),
(257,534,o),
(280,531,o),
(301,526,c),
(314,591,l),
(284,598,o),
(259,602,o),
(225,602,cs),
(135,602,o),
(74,546,o),
(74,465,cs),
(74,405,o),
(107,360,o),
(153,314,c),
(173,289,l),
(235,242,o),
(275,197,o),
(275,136,cs),
(275,87,o),
(240,58,o),
(175,58,cs),
(133,58,o),
(90,74,o),
(51,102,c),
(16,43,l),
(66,9,o),
(130,-10,o),
(186,-10,cs)
);
},
{
closed = 1;
nodes = (
(209,285,l),
(380,352,l),
(353,415,l),
(186,345,l),
(25,284,l),
(53,220,l)
);
}
);
width = 393;
},
{
anchors = (
{
name = b.nuktagujr;
pos = (207,0);
},
{
name = t.candrabindugujr;
pos = (246,603);
},
{
name = t.candrabinduleftgujr;
pos = (178,603);
}
);
layerId = "E5C9A917-AA5F-4208-B63B-4C942A1E52F0";
shapes = (
{
closed = 1;
nodes = (
(264,-10,o),
(317,50,o),
(317,125,cs),
(317,208,o),
(263,261,o),
(205,316,c),
(193,328,l),
(153,369,o),
(114,412,o),
(114,472,cs),
(114,539,o),
(153,576,o),
(225,576,cs),
(244,576,o),
(260,574,o),
(279,569,c),
(285,594,l),
(266,599,o),
(247,602,o),
(225,602,cs),
(141,602,o),
(87,551,o),
(87,472,cs),
(87,405,o),
(128,358,o),
(170,316,c),
(179,307,l),
(237,253,o),
(290,202,o),
(290,125,cs),
(290,62,o),
(252,16,o),
(175,16,cs),
(126,16,o),
(80,34,o),
(35,66,c),
(19,44,l),
(67,10,o),
(123,-10,o),
(175,-10,cs)
);
},
{
closed = 1;
nodes = (
(201,307,l),
(351,374,l),
(341,398,l),
(173,323,l),
(34,261,l),
(44,237,l)
);
}
);
width = 363;
},
{
anchors = (
{
name = b.nuktagujr;
pos = (224,0);
},
{
name = t.candrabindugujr;
pos = (223,603);
},
{
name = t.candrabinduleftgujr;
pos = (154,603);
}
);
layerId = "5004026F-C7B4-4F0F-B515-084BD38674AE";
shapes = (
{
closed = 1;
nodes = (
(349,-10,o),
(426,49,o),
(426,142,cs),
(426,214,o),
(385,267,o),
(310,320,c),
(282,375,l),
(255,390,o),
(238,403,o),
(238,426,cs),
(238,449,o),
(258,464,o),
(294,464,cs),
(318,464,o),
(340,461,o),
(360,456,c),
(386,589,l),
(347,597,o),
(311,602,o),
(264,602,cs),
(154,602,o),
(79,543,o),
(79,453,cs),
(79,394,o),
(110,353,o),
(151,320,c),
(184,250,l),
(244,224,o),
(266,197,o),
(266,167,cs),
(266,143,o),
(246,128,o),
(205,128,cs),
(154,128,o),
(114,145,o),
(77,169,c),
(12,50,l),
(78,9,o),
(163,-10,o),
(226,-10,cs)
);
},
{
closed = 1;
nodes = (
(320,268,l),
(463,307,l),
(420,440,l),
(150,358,l),
(23,324,l),
(69,191,l)
);
}
);
width = 472;
}
);
script = gujarati;
unicode = 2709;
},
{
glyphname = khagujr;
lastChange = "2024-05-22 09:46:33 +0000";
layers = (
{
anchors = (
{
name = b.nuktagujr;
pos = (297,168);
}
);
layerId = UUID0;
shapes = (
{
closed = 1;
nodes = (
(360,161,o),
(429,229,o),
(429,326,cs),
(429,471,l),
(349,481,l),
(349,351,ls),
(349,296,o),
(341,274,o),
(327,258,cs),
(311,240,o),
(289,233,o),
(262,233,cs),
(234,233,o),
(214,240,o),
(200,253,cs),
(181,271,o),
(173,297,o),
(173,351,cs),
(173,443,ls),
(173,503,o),
(164,532,o),
(142,555,cs),
(119,579,o),
(82,592,o),
(24,592,cs),
(14,592,l),
(6,519,l),
(34,519,o),
(67,519,o),
(81,500,cs),
(89,489,o),
(93,476,o),
(93,440,cs),
(93,351,ls),
(93,274,o),
(107,236,o),
(140,203,cs),
(168,175,o),
(208,161,o),
(261,161,cs)
);
},
{
closed = 1;
nodes = (
(546,262,o),
(579,285,o),
(614,325,c),
(597,407,l),
(566,362,o),
(535,334,o),
(486,334,cs),
(454,334,o),
(428,347,o),
(418,390,c),
(360,367,l),
(389,285,o),
(434,262,o),
(486,262,cs)
);
},
{
closed = 1;
nodes = (
(730,0,l),
(738,73,l),
(710,73,o),
(677,73,o),
(664,92,cs),
(656,104,o),
(651,116,o),
(651,152,cs),
(651,592,l),
(571,603,l),
(571,148,ls),
(571,89,o),
(580,60,o),
(603,37,cs),
(626,14,o),
(662,0,o),
(720,0,cs)
);
}
);
width = 746;
},
{
anchors = (
{
name = b.nuktagujr;
pos = (287,168);
}
);
layerId = "E837EE1F-8268-496F-836F-3DC25D441D7C";
shapes = (
{
closed = 1;
nodes = (
(338,163,o),
(390,220,o),
(390,319,cs),
(390,474,l),
(364,477,l),
(364,329,ls),
(364,280,o),
(355,247,o),
(336,224,cs),
(317,201,o),
(288,189,o),
(250,189,cs),
(213,189,o),
(185,199,o),
(166,220,cs),
(145,243,o),
(134,278,o),
(134,339,cs),
(134,464,ls),
(134,505,o),
(127,536,o),
(110,557,cs),
(92,580,o),
(63,592,o),
(22,592,cs),
(15,592,l),
(12,566,l),
(52,566,o),
(77,558,o),
(91,539,cs),
(103,523,o),
(108,499,o),
(108,464,cs),
(108,336,ls),
(108,274,o),
(121,234,o),
(144,207,cs),
(168,178,o),
(205,163,o),
(250,163,cs)
);
},
{
closed = 1;
nodes = (
(522,279,o),
(559,308,o),
(581,340,c),
(574,371,l),
(550,335,o),
(516,305,o),
(467,305,cs),
(432,305,o),
(402,324,o),
(385,349,c),
(371,330,l),
(393,296,o),
(431,279,o),
(467,279,cs)
);
},
{
closed = 1;
nodes = (
(700,0,l),
(703,26,l),
(670,26,o),
(647,29,o),
(629,41,cs),
(607,56,o),
(597,80,o),
(597,129,cs),
(597,598,l),
(571,602,l),
(571,128,ls),
(571,74,o),
(586,43,o),
(610,23,cs),
(631,6,o),
(657,0,o),
(691,0,cs)
);
}
);
width = 705;
},
{
anchors = (
{
name = b.nuktagujr;
pos = (213,168);
}
);
layerId = "E5C9A917-AA5F-4208-B63B-4C942A1E52F0";
shapes = (
{
closed = 1;
nodes = (
(256,163,o),
(296,211,o),
(296,289,cs),
(296,460,l),
(270,463,l),
(270,307,ls),
(270,252,o),
(261,227,o),
(244,210,cs),
(230,196,o),
(210,189,o),
(185,189,cs),
(159,189,o),
(139,196,o),
(125,211,cs),
(108,229,o),
(100,257,o),
(100,301,cs),
(100,494,ls),
(100,529,o),
(92,554,o),
(77,570,cs),
(63,585,o),
(42,592,o),
(15,592,cs),
(11,592,l),
(9,566,l),
(30,566,o),
(45,562,o),
(55,554,cs),
(69,543,o),
(74,524,o),
(74,494,cs),
(74,304,ls),
(74,246,o),
(86,215,o),
(107,193,cs),
(126,173,o),
(152,163,o),
(185,163,cs)
);
},
{
closed = 1;
nodes = (
(387,285,o),
(414,299,o),
(432,318,c),
(432,355,l),
(409,326,o),
(383,311,o),
(352,311,cs),
(323,311,o),
(296,325,o),
(280,348,c),
(280,310,l),
(300,294,o),
(325,285,o),
(352,285,cs)
);
},
{
closed = 1;
nodes = (
(517,0,l),
(520,26,l),
(495,26,o),
(477,30,o),
(465,39,cs),
(451,50,o),
(445,69,o),
(445,98,cs),
(445,598,l),
(419,602,l),
(419,98,ls),
(419,61,o),
(428,35,o),
(447,19,cs),
(462,6,o),
(482,0,o),
(509,0,cs)
);
}
);
width = 523;
},
{
anchors = (
{
name = b.nuktagujr;
pos = (261,162);
}
);
layerId = "5004026F-C7B4-4F0F-B515-084BD38674AE";
shapes = (
{
closed = 1;
nodes = (
(354,142,o),
(412,209,o),
(412,321,cs),
(412,450,l),
(257,460,l),
(257,321,ls),
(257,303,o),
(255,290,o),
(250,283,cs),
(246,278,o),
(241,276,o),
(234,276,cs),
(226,276,o),
(221,279,o),
(217,284,cs),
(212,291,o),
(210,303,o),
(210,321,cs),
(210,442,ls),
(210,494,o),
(196,533,o),
(167,558,cs),
(141,581,o),
(104,592,o),
(56,592,cs),
(13,592,l),
(7,454,l),
(24,454,o),
(35,451,o),
(42,444,cs),
(49,437,o),
(51,427,o),
(51,412,cs),
(51,325,ls),
(51,264,o),
(69,217,o),
(103,186,cs),
(134,157,o),
(178,142,o),
(233,142,cs)
);
},
{
closed = 1;
nodes = (
(453,250,o),
(475,261,o),
(505,281,c),
(489,422,l),
(469,391,o),
(455,375,o),
(436,375,cs),
(421,375,o),
(412,383,o),
(401,397,c),
(322,323,l),
(341,283,o),
(377,250,o),
(422,250,cs)
);
},
{
closed = 1;
nodes = (
(653,0,l),
(659,138,l),
(645,138,o),
(635,140,o),
(628,146,cs),
(620,153,o),
(617,163,o),
(617,180,cs),
(617,592,l),
(458,602,l),
(458,150,ls),
(458,98,o),
(472,59,o),
(501,34,cs),
(527,11,o),
(564,0,o),
(612,0,cs)
);
}
);
width = 669;
},
{
anchors = (
{
name = b.nuktagujr;
pos = (326,152);
}
);
layerId = "B78FB6F8-4888-4A20-9211-9CA65DB7E66A";
shapes = (
{
closed = 1;
nodes = (
(448,142,o),
(523,218,o),
(523,338,cs),
(523,482,l),
(346,492,l),
(346,342,ls),
(346,320,o),
(342,302,o),
(333,292,cs),
(326,284,o),
(317,280,o),
(304,280,cs),
(292,280,o),
(283,283,o),
(276,289,cs),
(265,299,o),
(261,317,o),
(261,342,cs),
(261,398,ls),
(261,443,o),
(258,505,o),
(221,545,cs),
(186,582,o),
(136,592,o),
(65,592,cs),
(19,592,l),
(10,454,l),
(39,454,o),
(58,450,o),
(69,438,cs),
(80,427,o),
(84,409,o),
(84,383,cs),
(84,342,ls),
(84,276,o),
(107,223,o),
(151,188,cs),
(188,158,o),
(239,142,o),
(304,142,cs)
);
},
{
closed = 1;
nodes = (
(579,241,o),
(607,256,o),
(628,281,c),
(611,426,l),
(601,394,o),
(580,379,o),
(557,379,cs),
(536,379,o),
(518,394,o),
(505,420,c),
(423,314,l),
(445,273,o),
(493,241,o),
(544,241,cs)
);
},
{
closed = 1;
nodes = (
(834,0,l),
(847,138,l),
(818,138,o),
(801,141,o),
(790,151,cs),
(778,162,o),
(775,180,o),
(775,209,cs),
(775,592,l),
(598,602,l),
(598,194,ls),
(598,121,o),
(611,73,o),
(643,42,cs),
(674,12,o),
(723,0,o),
(794,0,cs)
);
}
);
width = 850;
},
{
anchors = (
{
name = b.nuktagujr;
pos = (236,168);
}
);
layerId = "0BA4C117-BB0E-400D-AA02-27C87BA635D5";
shapes = (
{
closed = 1;
nodes = (
(289,155,o),
(337,216,o),
(337,310,cs),
(337,461,l),
(262,467,l),
(262,313,ls),
(262,287,o),
(258,258,o),
(245,241,cs),
(236,230,o),
(225,223,o),
(202,223,cs),
(180,223,o),
(167,230,o),
(157,243,cs),
(145,259,o),
(141,284,o),
(141,319,cs),
(141,475,ls),
(141,518,o),
(130,546,o),
(110,565,cs),
(89,585,o),
(61,592,o),
(30,592,cs),
(12,592,l),
(8,524,l),
(26,524,o),
(41,521,o),
(50,513,cs),
(64,501,o),
(66,482,o),
(66,463,cs),
(66,324,ls),
(66,258,o),
(78,223,o),
(101,196,cs),
(122,171,o),
(156,155,o),
(201,155,cs)
);
},
{
closed = 1;
nodes = (
(415,264,o),
(443,280,o),
(464,304,c),
(455,383,l),
(438,352,o),
(412,332,o),
(385,332,cs),
(359,332,o),
(339,348,o),
(326,375,c),
(292,321,l),
(306,290,o),
(340,264,o),
(380,264,cs)
);
},
{
closed = 1;
nodes = (
(573,0,l),
(577,68,l),
(553,68,o),
(541,72,o),
(532,79,cs),
(519,89,o),
(514,104,o),
(514,129,cs),
(514,592,l),
(439,602,l),
(439,117,ls),
(439,77,o),
(449,45,o),
(472,25,cs),
(492,8,o),
(518,0,o),
(553,0,cs)
);
}
);
width = 585;
}
);
metricRight = aavowelsigngujr;
script = gujarati;
unicode = 2710;
},
{
glyphname = gagujr;
lastChange = "2024-05-22 09:46:33 +0000";
layers = (
{
anchors = (
{
name = b.nuktagujr;
pos = (250,183);
}
);
layerId = UUID0;
shapes = (
{
closed = 1;
nodes = (
(288,178,o),
(380,213,o),
(380,383,cs),
(380,534,o),
(303,603,o),
(192,603,cs),
(149,603,o),
(98,592,o),
(54,570,c),
(79,503,l),
(108,519,o),
(146,530,o),
(188,530,cs),
(257,530,o),
(299,487,o),
(299,384,cs),
(299,289,o),
(260,251,o),
(206,251,cs),
(155,251,o),
(119,278,o),
(74,346,c),
(11,303,l),
(70,213,o),
(136,178,o),
(210,178,cs)
);
},
{
closed = 1;
nodes = (
(638,0,l),
(646,73,l),
(618,73,o),
(585,73,o),
(571,92,cs),
(563,103,o),
(559,116,o),
(559,152,cs),
(559,592,l),
(479,603,l),
(479,148,ls),
(479,89,o),
(488,60,o),
(510,37,cs),
(533,13,o),
(570,0,o),
(627,0,cs)
);
}
);
width = 654;
},
{
anchors = (
{
name = b.nuktagujr;
pos = (162,183);
}
);
layerId = "E5C9A917-AA5F-4208-B63B-4C942A1E52F0";
shapes = (
{
closed = 1;
nodes = (
(224,193,o),
(257,269,o),
(257,386,cs),
(257,515,o),
(217,602,o),
(121,602,cs),
(94,602,o),
(66,595,o),
(42,584,c),
(52,560,l),
(74,569,o),
(97,576,o),
(121,576,cs),
(201,576,o),
(230,501,o),
(230,386,cs),
(230,283,o),
(207,219,o),
(139,219,cs),
(90,219,o),
(58,253,o),
(35,327,c),
(11,317,l),
(38,229,o),
(82,193,o),
(140,193,cs)
);
},
{
closed = 1;
nodes = (
(447,0,l),
(450,26,l),
(425,26,o),
(407,30,o),
(395,39,cs),
(381,50,o),
(375,69,o),
(375,98,cs),
(375,598,l),
(349,602,l),
(349,98,ls),
(349,61,o),
(358,35,o),
(377,19,cs),
(392,6,o),
(412,0,o),
(439,0,cs)
);
}
);
width = 453;
},
{
anchors = (
{
name = b.nuktagujr;
pos = (221,167);
}
);
layerId = "5004026F-C7B4-4F0F-B515-084BD38674AE";
shapes = (
{
closed = 1;
nodes = (
(311,142,o),
(373,234,o),
(373,370,cs),
(373,506,o),
(312,602,o),
(175,602,cs),
(130,602,o),
(90,592,o),
(57,578,c),
(101,453,l),
(117,459,o),
(133,464,o),
(152,464,cs),
(197,464,o),
(214,434,o),
(214,370,cs),
(214,318,o),
(204,286,o),
(174,286,cs),
(150,286,o),
(138,305,o),
(123,353,c),
(3,311,l),
(31,212,o),
(82,142,o),
(194,142,cs)
);
},
{
closed = 1;
nodes = (
(609,0,l),
(615,138,l),
(601,138,o),
(591,140,o),
(584,146,cs),
(576,153,o),
(573,163,o),
(573,180,cs),
(573,592,l),
(414,602,l),
(414,150,ls),
(414,98,o),
(428,59,o),
(457,34,cs),
(483,11,o),
(520,0,o),
(568,0,cs)
);
}
);
width = 625;
},
{
anchors = (
{
name = b.nuktagujr;
pos = (267,162);
}
);
layerId = "B78FB6F8-4888-4A20-9211-9CA65DB7E66A";
shapes = (
{
closed = 1;
nodes = (
(404,142,o),
(463,242,o),
(463,370,cs),
(463,506,o),
(390,602,o),
(229,602,cs),
(167,602,o),
(105,586,o),
(62,566,c),
(107,441,l),
(136,454,o),
(167,464,o),
(204,464,cs),
(257,464,o),
(286,437,o),
(286,371,cs),
(286,316,o),
(265,286,o),
(221,286,cs),
(178,286,o),
(153,313,o),
(124,365,c),
(3,294,l),
(54,204,o),
(121,142,o),
(246,142,cs)
);
},
{
closed = 1;
nodes = (
(751,0,l),
(764,138,l),
(735,138,o),
(718,141,o),
(707,151,cs),
(695,162,o),
(692,180,o),
(692,209,cs),
(692,592,l),
(515,602,l),
(515,194,ls),
(515,121,o),
(528,73,o),
(560,42,cs),
(591,12,o),
(640,0,o),
(711,0,cs)
);
}
);
width = 767;
},
{
anchors = (
{
name = b.nuktagujr;
pos = (195,183);
}
);
layerId = "0BA4C117-BB0E-400D-AA02-27C87BA635D5";
shapes = (
{
closed = 1;
nodes = (
(256,178,o),
(300,259,o),
(300,380,cs),
(300,510,o),
(252,602,o),
(142,602,cs),
(109,602,o),
(76,594,o),
(49,582,c),
(71,520,l),
(91,528,o),
(113,534,o),
(133,534,cs),
(201,534,o),
(225,476,o),
(225,380,cs),
(225,299,o),
(207,246,o),
(153,246,cs),
(114,246,o),
(91,276,o),
(69,341,c),
(9,316,l),
(38,224,o),
(88,178,o),
(162,178,cs)
);
},
{
closed = 1;
nodes = (
(510,0,l),
(514,68,l),
(490,68,o),
(478,72,o),
(469,79,cs),
(456,89,o),
(451,104,o),
(451,129,cs),
(451,592,l),
(376,602,l),
(376,117,ls),
(376,77,o),
(386,45,o),
(409,25,cs),
(429,8,o),
(455,0,o),
(490,0,cs)
);
}
);
width = 522;
},
{
anchors = (
{
name = b.nuktagujr;
pos = (224,183);
}
);
layerId = "E837EE1F-8268-496F-836F-3DC25D441D7C";
shapes = (
{
closed = 1;
nodes = (
(302,193,o),
(348,271,o),
(348,389,cs),
(348,516,o),
(296,602,o),
(177,602,cs),
(134,602,o),
(92,591,o),
(54,575,c),
(64,549,l),
(100,564,o),
(139,576,o),
(177,576,cs),
(282,576,o),
(321,503,o),
(321,389,cs),
(321,285,o),
(288,219,o),
(194,219,cs),
(126,219,o),
(78,259,o),
(35,332,c),
(11,317,l),
(62,236,o),
(118,193,o),
(194,193,cs)
);
},
{
closed = 1;
nodes = (
(589,0,l),
(592,26,l),
(559,26,o),
(536,29,o),
(518,41,cs),
(496,56,o),
(486,80,o),
(486,129,cs),
(486,598,l),
(460,602,l),
(460,128,ls),
(460,74,o),
(475,43,o),
(499,23,cs),
(520,6,o),
(546,0,o),
(580,0,cs)
);
}
);
width = 594;
}
);
metricRight = aavowelsigngujr;
script = gujarati;
unicode = 2711;
},
{
glyphname = ghagujr;
lastChange = "2024-05-22 09:46:33 +0000";
layers = (
{
anchors = (
{
name = b.nuktagujr;
pos = (243,103);
}
);
layerId = "E837EE1F-8268-496F-836F-3DC25D441D7C";
shapes = (
{
closed = 1;
nodes = (
(341,117,o),
(400,141,o),
(467,201,c),
(467,237,l),
(401,170,o),
(343,143,o),
(266,143,cs),
(176,143,o),
(119,189,o),
(119,261,cs),
(119,327,o),
(171,374,o),
(247,374,cs),
(267,374,o),
(284,372,o),
(299,369,c),
(303,394,l),
(285,398,o),
(267,400,o),
(247,400,cs),
(157,400,o),
(92,342,o),
(92,261,cs),
(92,177,o),
(164,117,o),
(266,117,cs)
);
},
{
closed = 1;
nodes = (
(167,366,l),
(116,390,o),
(81,428,o),
(81,481,cs),
(81,537,o),
(122,577,o),
(198,577,cs),
(222,577,o),
(249,574,o),
(278,566,c),
(284,591,l),
(255,599,o),
(226,603,o),
(199,603,cs),
(112,603,o),
(54,554,o),
(54,481,cs),
(54,420,o),
(94,380,o),
(145,350,c)
);
},
{
closed = 1;
nodes = (
(589,0,l),
(592,26,l),
(559,26,o),
(536,29,o),
(518,41,cs),
(496,56,o),
(486,80,o),
(486,129,cs),
(486,598,l),
(460,602,l),
(460,128,ls),
(460,74,o),
(475,43,o),
(499,23,cs),
(520,6,o),
(546,0,o),
(580,0,cs)
);
}
);
width = 594;
},
{
anchors = (
{
name = b.nuktagujr;
pos = (256,103);
}
);
layerId = UUID0;
shapes = (
{
closed = 1;
nodes = (
(355,107,o),
(410,134,o),
(453,166,c),
(450,259,l),
(402,211,o),
(349,179,o),
(274,179,cs),
(208,179,o),
(164,208,o),
(164,264,cs),
(164,316,o),
(204,338,o),
(257,338,cs),
(278,338,o),
(298,336,o),
(308,333,c),
(320,405,l),
(305,408,o),
(277,411,o),
(259,411,cs),
(138,411,o),
(83,345,o),
(83,261,cs),
(83,171,o),
(154,107,o),
(274,107,cs)
);
},
{
closed = 1;
nodes = (
(220,374,l),
(150,400,o),
(125,431,o),
(125,470,cs),
(125,506,o),
(153,530,o),
(219,530,cs),
(242,530,o),
(270,526,o),
(290,521,c),
(304,592,l),
(278,599,o),
(238,603,o),
(210,603,cs),
(100,603,o),
(44,544,o),
(44,478,cs),
(44,400,o),
(101,357,o),
(166,323,c)
);
},
{
closed = 1;
nodes = (
(604,0,l),
(612,73,l),
(584,73,o),
(552,73,o),
(538,92,cs),
(530,103,o),
(526,116,o),
(526,152,cs),
(526,592,l),
(446,603,l),
(446,148,ls),
(446,89,o),
(455,60,o),
(477,37,cs),
(500,13,o),
(537,0,o),
(594,0,cs)
);
}
);
width = 620;
},
{
anchors = (
{
name = b.nuktagujr;
pos = (262,98);
}
);
layerId = "B78FB6F8-4888-4A20-9211-9CA65DB7E66A";
shapes = (
{
closed = 1;
nodes = (
(368,87,o),
(425,106,o),
(478,144,c),
(478,316,l),
(436,261,o),
(360,221,o),
(297,221,cs),
(257,221,o),
(237,233,o),
(237,256,cs),
(237,281,o),
(258,292,o),
(294,292,cs),
(308,292,o),
(324,290,o),
(334,288,c),
(353,409,l),
(332,414,o),
(302,417,o),
(275,417,cs),
(162,417,o),
(66,355,o),
(66,256,cs),
(66,159,o),
(142,87,o),
(275,87,cs)
);
},
{
closed = 1;
nodes = (
(248,388,l),
(219,400,o),
(197,415,o),
(197,441,cs),
(197,466,o),
(219,478,o),
(252,478,cs),
(275,478,o),
(291,476,o),
(311,472,c),
(338,591,l),
(305,598,o),
(264,603,o),
(224,603,cs),
(107,603,o),
(24,544,o),
(24,451,cs),
(24,383,o),
(72,329,o),
(130,300,c)
);
},
{
closed = 1;
nodes = (
(668,0,l),
(681,138,l),
(652,138,o),
(635,141,o),
(624,151,cs),
(612,162,o),
(609,180,o),
(609,209,cs),
(609,592,l),
(432,602,l),
(432,194,ls),
(432,121,o),
(445,73,o),
(477,42,cs),
(508,12,o),
(557,0,o),
(628,0,cs)
);
}
);
width = 684;
},
{
anchors = (
{
name = b.nuktagujr;
pos = (205,103);
}
);
layerId = "E5C9A917-AA5F-4208-B63B-4C942A1E52F0";
shapes = (
{
closed = 1;
nodes = (
(272,117,o),
(315,133,o),
(354,163,c),
(354,197,l),
(315,161,o),
(270,143,o),
(221,143,cs),
(144,143,o),
(96,188,o),
(96,258,cs),
(96,322,o),
(144,368,o),
(212,368,cs),
(220,368,o),
(229,367,o),
(235,366,c),
(238,392,l),
(230,393,o),
(221,394,o),
(212,394,cs),
(133,394,o),
(69,336,o),
(69,258,cs),
(69,175,o),
(130,117,o),
(221,117,cs)
);
},
{
closed = 1;
nodes = (
(137,360,l),
(99,394,o),
(67,429,o),
(67,484,cs),
(67,545,o),
(108,577,o),
(170,577,cs),
(185,577,o),
(198,576,o),
(213,572,c),
(218,598,l),
(204,601,o),
(187,603,o),
(170,603,cs),
(93,603,o),
(40,559,o),
(40,484,cs),
(40,425,o),
(77,379,o),
(117,344,c)
);
},
{
closed = 1;
nodes = (
(445,0,l),
(448,26,l),
(423,26,o),
(405,30,o),
(393,39,cs),
(379,50,o),
(373,69,o),
(373,98,cs),
(373,598,l),
(347,602,l),
(347,98,ls),
(347,61,o),
(356,35,o),
(375,19,cs),
(390,6,o),
(410,0,o),
(437,0,cs)
);
}
);
width = 451;
},
{
anchors = (
{
name = b.nuktagujr;
pos = (222,103);
}
);
layerId = "0BA4C117-BB0E-400D-AA02-27C87BA635D5";
shapes = (
{
closed = 1;
nodes = (
(289,107,o),
(329,125,o),
(359,146,c),
(359,230,l),
(325,195,o),
(286,175,o),
(237,175,cs),
(179,175,o),
(140,206,o),
(140,260,cs),
(140,311,o),
(174,341,o),
(225,341,cs),
(235,341,o),
(244,340,o),
(250,339,c),
(261,405,l),
(251,407,o),
(236,408,o),
(223,408,cs),
(126,408,o),
(65,345,o),
(65,260,cs),
(65,173,o),
(129,107,o),
(235,107,cs)
);
},
{
closed = 1;
nodes = (
(169,370,l),
(132,401,o),
(110,429,o),
(110,472,cs),
(110,512,o),
(141,534,o),
(190,534,cs),
(203,534,o),
(219,532,o),
(231,529,c),
(244,596,l),
(224,601,o),
(203,603,o),
(182,603,cs),
(91,603,o),
(34,552,o),
(34,476,cs),
(34,410,o),
(72,361,o),
(120,322,c)
);
},
{
closed = 1;
nodes = (
(482,0,l),
(486,68,l),
(462,68,o),
(450,72,o),
(441,79,cs),
(428,89,o),
(423,104,o),
(423,129,cs),
(423,593,l),
(348,603,l),
(348,117,ls),
(348,77,o),
(358,45,o),
(381,25,cs),
(401,8,o),
(427,0,o),
(462,0,cs)
);
}
);
width = 494;
},
{
anchors = (
{
name = b.nuktagujr;
pos = (223,103);
}
);
layerId = "5004026F-C7B4-4F0F-B515-084BD38674AE";
shapes = (
{
closed = 1;
nodes = (
(308,91,o),
(354,107,o),
(392,134,c),
(392,290,l),
(355,249,o),
(307,225,o),
(261,225,cs),
(225,225,o),
(206,239,o),
(206,261,cs),
(206,284,o),
(225,296,o),
(256,296,cs),
(264,296,o),
(274,295,o),
(280,294,c),
(297,413,l),
(279,416,o),
(256,418,o),
(238,418,cs),
(139,418,o),
(52,357,o),
(52,257,cs),
(52,162,o),
(135,91,o),
(246,91,cs)
);
},
{
closed = 1;
nodes = (
(214,385,l),
(191,398,o),
(173,414,o),
(173,439,cs),
(173,463,o),
(191,475,o),
(218,475,cs),
(231,475,o),
(242,474,o),
(257,471,c),
(281,593,l),
(255,600,o),
(226,603,o),
(197,603,cs),
(83,603,o),
(17,547,o),
(17,459,cs),
(17,390,o),
(56,335,o),
(103,303,c)
);
},
{
closed = 1;
nodes = (
(545,0,l),
(551,138,l),
(537,138,o),
(527,140,o),
(520,146,cs),
(512,152,o),
(509,163,o),
(509,180,cs),
(509,592,l),
(350,602,l),
(350,150,ls),
(350,98,o),
(364,59,o),
(393,34,cs),
(419,11,o),
(456,0,o),
(504,0,cs)
);
}
);
width = 561;
}
);
metricRight = aavowelsigngujr;
script = gujarati;
unicode = 2712;
},
{
glyphname = ngagujr;
lastChange = "2021-10-13 09:53:05 +0000";
layers = (
{
anchors = (
{
name = b.nuktagujr;
pos = (286,0);
},
{
name = b.uvattulowgujr;
pos = (241,0);
},
{
name = t.candrabindugujr;
pos = (309,603);
},
{
name = t.candrabinduleftgujr;
pos = (218,603);
}
);
layerId = UUID0;
shapes = (
{
closed = 1;
nodes = (
(431,367,o),
(457,390,o),
(457,424,cs),
(457,458,o),
(431,480,o),
(399,480,cs),
(368,480,o),
(342,458,o),
(342,424,cs),
(342,390,o),
(368,367,o),
(399,367,cs)
);
},
{
closed = 1;
nodes = (
(385,-10,o),
(450,56,o),
(450,153,cs),
(450,239,o),
(403,291,o),
(300,354,cs),
(220,403,o),
(193,422,o),
(193,464,cs),
(193,505,o),
(225,530,o),
(285,530,cs),
(316,530,o),
(341,529,o),
(376,521,c),
(391,591,l),
(355,600,o),
(320,603,o),
(286,603,cs),
(175,603,o),
(112,545,o),
(112,466,cs),
(112,399,o),
(144,354,o),
(241,296,cs),
(336,239,o),
(365,208,o),
(365,150,cs),
(365,94,o),
(325,63,o),
(261,63,cs),
(195,63,o),
(142,93,o),
(79,188,c),
(9,145,l),
(68,56,o),
(144,-10,o),
(264,-10,cs)
);
}
);
width = 490;
},
{
anchors = (
{
name = b.nuktagujr;
pos = (292,0);
},
{
name = b.uvattulowgujr;
pos = (244,0);
},
{
name = t.candrabindugujr;
pos = (312,603);
},
{
name = t.candrabinduleftgujr;
pos = (212,603);
}
);
layerId = "E837EE1F-8268-496F-836F-3DC25D441D7C";
shapes = (
{
closed = 1;
nodes = (
(362,400,o),
(375,412,o),
(375,438,cs),
(375,461,o),
(364,476,o),
(345,476,cs),
(327,476,o),
(314,462,o),
(314,438,cs),
(314,413,o),
(329,400,o),
(345,400,cs)
);
},
{
closed = 1;
nodes = (
(337,-10,o),
(397,50,o),
(397,138,cs),
(397,220,o),
(356,270,o),
(260,331,cs),
(177,384,o),
(140,423,o),
(140,481,cs),
(140,542,o),
(186,576,o),
(261,576,cs),
(291,576,o),
(316,573,o),
(342,567,c),
(348,593,l),
(317,599,o),
(292,602,o),
(261,602,cs),
(170,602,o),
(113,556,o),
(113,481,cs),
(113,412,o),
(154,367,o),
(246,308,cs),
(338,249,o),
(370,211,o),
(370,138,cs),
(370,63,o),
(321,16,o),
(245,16,cs),
(150,16,o),
(91,72,o),
(37,162,c),
(13,147,l),
(77,44,o),
(142,-10,o),
(244,-10,cs)
);
}
);
width = 435;
},
{
anchors = (
{
name = b.nuktagujr;
pos = (275,0);
},
{
name = b.uvattulowgujr;
pos = (283,0);
},
{
name = t.candrabindugujr;
pos = (279,603);
},
{
name = t.candrabinduleftgujr;
pos = (211,603);
}
);
layerId = "B78FB6F8-4888-4A20-9211-9CA65DB7E66A";
shapes = (
{
closed = 1;
nodes = (
(551,324,o),
(584,359,o),
(584,404,cs),
(584,449,o),
(551,484,o),
(506,484,cs),
(461,484,o),
(428,449,o),
(428,404,cs),
(428,359,o),
(461,324,o),
(506,324,cs)
);
},
{
closed = 1;
nodes = (
(445,-10,o),
(525,66,o),
(525,173,cs),
(525,259,o),
(481,314,o),
(371,371,cs),
(302,407,o),
(287,415,o),
(287,435,cs),
(287,455,o),
(307,464,o),
(342,464,cs),
(371,464,o),
(398,460,o),
(420,455,c),
(450,589,l),
(415,597,o),
(376,602,o),
(333,602,cs),
(195,602,o),
(110,535,o),
(110,439,cs),
(110,365,o),
(155,315,o),
(249,265,cs),
(323,226,o),
(344,205,o),
(344,171,cs),
(344,144,o),
(327,128,o),
(289,128,cs),
(232,128,o),
(179,160,o),
(134,220,c),
(7,141,l),
(76,43,o),
(166,-10,o),
(301,-10,cs)
);
}
);
width = 594;
},
{
anchors = (
{
name = b.nuktagujr;
pos = (211,0);
},
{
name = b.uvattulowgujr;
pos = (192,0);
},
{
name = t.candrabindugujr;
pos = (239,603);
},
{
name = t.candrabinduleftgujr;
pos = (171,603);
}
);
layerId = "E5C9A917-AA5F-4208-B63B-4C942A1E52F0";
shapes = (
{
closed = 1;
nodes = (
(285,404,o),
(297,414,o),
(297,441,cs),
(297,465,o),
(286,478,o),
(269,478,cs),
(252,478,o),
(239,466,o),
(239,441,cs),
(239,415,o),
(254,404,o),
(269,404,cs)
);
},
{
closed = 1;
nodes = (
(265,-10,o),
(312,48,o),
(312,125,cs),
(312,197,o),
(285,244,o),
(207,329,cs),
(146,395,o),
(124,430,o),
(124,484,cs),
(124,540,o),
(162,576,o),
(219,576,cs),
(238,576,o),
(257,573,o),
(271,569,c),
(277,595,l),
(258,599,o),
(241,602,o),
(219,602,cs),
(145,602,o),
(97,555,o),
(97,484,cs),
(97,421,o),
(125,379,o),
(188,312,cs),
(260,236,o),
(285,192,o),
(285,125,cs),
(285,63,o),
(250,16,o),
(188,16,cs),
(116,16,o),
(78,65,o),
(39,148,c),
(15,137,l),
(60,42,o),
(106,-10,o),
(188,-10,cs)
);
}
);
width = 342;
},
{
anchors = (
{
name = b.nuktagujr;
pos = (219,0);
},
{
name = b.uvattulowgujr;
pos = (219,0);
},
{
name = t.candrabindugujr;
pos = (215,603);
},
{
name = t.candrabinduleftgujr;
pos = (162,603);
}
);
layerId = "5004026F-C7B4-4F0F-B515-084BD38674AE";
shapes = (
{
closed = 1;
nodes = (
(446,323,o),
(475,350,o),
(475,398,cs),
(475,445,o),
(446,473,o),
(407,473,cs),
(369,473,o),
(340,446,o),
(340,398,cs),
(340,351,o),
(368,323,o),
(407,323,cs)
);
},
{
closed = 1;
nodes = (
(368,-10,o),
(438,48,o),
(438,153,cs),
(438,233,o),
(396,289,o),
(307,365,cs),
(259,406,o),
(248,416,o),
(248,435,cs),
(248,453,o),
(264,464,o),
(294,464,cs),
(315,464,o),
(332,460,o),
(347,456,c),
(376,592,l),
(349,599,o),
(319,602,o),
(285,602,cs),
(164,602,o),
(89,538,o),
(89,447,cs),
(89,376,o),
(126,331,o),
(197,270,cs),
(263,213,o),
(276,195,o),
(276,164,cs),
(276,140,o),
(263,128,o),
(238,128,cs),
(202,128,o),
(170,156,o),
(135,224,c),
(10,161,l),
(55,58,o),
(133,-10,o),
(253,-10,cs)
);
}
);
width = 489;
},
{
anchors = (
{
name = b.nuktagujr;
pos = (214,0);
},
{
name = b.uvattulowgujr;
pos = (185,0);
},
{
name = t.candrabindugujr;
pos = (240,603);
},
{
name = t.candrabinduleftgujr;
pos = (171,603);
}
);
layerId = "0BA4C117-BB0E-400D-AA02-27C87BA635D5";
shapes = (
{
closed = 1;
nodes = (
(349,361,o),
(371,381,o),
(371,418,cs),
(371,454,o),
(349,474,o),
(321,474,cs),
(295,474,o),
(272,455,o),
(272,418,cs),
(272,381,o),
(294,361,o),
(321,361,cs)
);
},
{
closed = 1;
nodes = (
(307,-10,o),
(364,44,o),
(364,127,cs),
(364,192,o),
(345,239,o),
(247,342,cs),
(183,409,o),
(166,428,o),
(166,469,cs),
(166,508,o),
(196,534,o),
(247,534,cs),
(268,534,o),
(285,531,o),
(304,526,c),
(319,591,l),
(294,598,o),
(268,602,o),
(242,602,cs),
(146,602,o),
(90,550,o),
(90,473,cs),
(90,417,o),
(111,373,o),
(194,290,cs),
(268,216,o),
(286,176,o),
(286,132,cs),
(286,83,o),
(261,58,o),
(212,58,cs),
(153,58,o),
(118,94,o),
(78,172,c),
(11,141,l),
(51,48,o),
(121,-10,o),
(215,-10,cs)
);
}
);
width = 394;
}
);
script = gujarati;
unicode = 2713;
},
{
glyphname = cagujr;
lastChange = "2024-05-22 09:46:33 +0000";
layers = (
{
anchors = (
{
name = b.nuktagujr;
pos = (261,138);
}
);
layerId = UUID0;
shapes = (
{
closed = 1;
nodes = (
(407,131,o),
(455,157,o),
(495,191,c),
(495,288,l),
(455,245,o),
(411,203,o),
(323,203,cs),
(263,203,o),
(233,224,o),
(201,257,c),
(187,295,l),
(158,328,o),
(135,346,o),
(94,346,cs),
(54,346,o),
(35,322,o),
(35,297,cs),
(35,258,o),
(65,237,o),
(117,237,cs),
(245,237,o),
(352,317,o),
(352,428,cs),
(352,539,o),
(282,603,o),
(161,603,cs),
(113,603,o),
(63,590,o),
(31,576,c),
(58,508,l),
(89,522,o),
(129,530,o),
(158,530,cs),
(236,530,o),
(272,494,o),
(272,430,cs),
(272,363,o),
(213,314,o),
(138,303,c),
(129,298,l),
(119,245,l),
(168,167,o),
(245,131,o),
(326,131,cs)
);
},
{
closed = 1;
nodes = (
(645,0,l),
(652,73,l),
(625,73,o),
(592,73,o),
(578,92,cs),
(570,103,o),
(566,116,o),
(566,152,cs),
(566,592,l),
(486,603,l),
(486,148,ls),
(486,89,o),
(495,60,o),
(517,37,cs),
(540,13,o),
(577,0,o),
(634,0,cs)
);
}
);
width = 660;
},
{
anchors = (
{
name = b.nuktagujr;
pos = (245,138);
}
);
layerId = "E837EE1F-8268-496F-836F-3DC25D441D7C";
shapes = (
{
closed = 1;
nodes = (
(412,141,o),
(466,172,o),
(503,215,c),
(503,250,l),
(459,198,o),
(414,167,o),
(337,167,cs),
(253,167,o),
(194,201,o),
(156,269,c),
(154,279,l),
(139,299,o),
(118,326,o),
(81,326,cs),
(55,326,o),
(42,314,o),
(42,294,cs),
(42,268,o),
(64,254,o),
(109,254,cs),
(232,254,o),
(325,330,o),
(325,435,cs),
(325,528,o),
(259,602,o),
(147,602,cs),
(107,602,o),
(72,595,o),
(38,582,c),
(48,555,l),
(80,567,o),
(114,576,o),
(146,576,cs),
(248,576,o),
(298,516,o),
(298,435,cs),
(298,350,o),
(233,291,o),
(129,281,c),
(128,278,l),
(127,268,l),
(171,186,o),
(244,141,o),
(337,141,cs)
);
},
{
closed = 1;
nodes = (
(623,0,l),
(626,26,l),
(593,26,o),
(570,29,o),
(552,41,cs),
(530,56,o),
(520,80,o),
(520,129,cs),
(520,598,l),
(494,602,l),
(494,128,ls),
(494,74,o),
(509,43,o),
(533,23,cs),
(554,6,o),
(580,0,o),
(614,0,cs)
);
}
);
width = 628;
},
{
anchors = (
{
name = b.nuktagujr;
pos = (278,118);
}
);
guides = (
{
angle = 90;
pos = (36,285);
}
);
layerId = "B78FB6F8-4888-4A20-9211-9CA65DB7E66A";
shapes = (
{
closed = 1;
nodes = (
(417,101,o),
(478,118,o),
(515,147,c),
(512,326,l),
(467,263,o),
(411,239,o),
(351,239,cs),
(313,239,o),
(285,244,o),
(255,261,c),
(234,316,l),
(204,350,o),
(167,379,o),
(108,379,cs),
(54,379,o),
(17,346,o),
(17,295,cs),
(17,230,o),
(69,201,o),
(141,201,cs),
(297,201,o),
(409,295,o),
(409,414,cs),
(409,530,o),
(321,602,o),
(181,602,cs),
(125,602,o),
(80,592,o),
(27,572,c),
(77,446,l),
(105,458,o),
(129,464,o),
(157,464,cs),
(205,464,o),
(232,442,o),
(232,405,cs),
(232,362,o),
(200,338,o),
(138,331,c),
(128,274,l),
(100,247,l),
(145,170,o),
(225,101,o),
(357,101,cs)
);
},
{
closed = 1;
nodes = (
(727,0,l),
(740,138,l),
(711,138,o),
(694,141,o),
(683,151,cs),
(671,162,o),
(668,180,o),
(668,209,cs),
(668,592,l),
(491,602,l),
(491,194,ls),
(491,121,o),
(504,73,o),
(536,42,cs),
(567,12,o),
(616,0,o),
(687,0,cs)
);
}
);
width = 743;
},
{
anchors = (
{
name = b.nuktagujr;
pos = (177,138);
}
);
layerId = "E5C9A917-AA5F-4208-B63B-4C942A1E52F0";
shapes = (
{
closed = 1;
nodes = (
(298,149,o),
(332,168,o),
(352,191,c),
(352,228,l),
(328,196,o),
(297,175,o),
(253,175,cs),
(191,175,o),
(148,207,o),
(121,268,c),
(120,279,l),
(106,307,o),
(89,325,o),
(60,325,cs),
(40,325,o),
(27,314,o),
(27,296,cs),
(27,268,o),
(53,259,o),
(93,259,cs),
(180,259,o),
(243,333,o),
(243,434,cs),
(243,531,o),
(194,602,o),
(103,602,cs),
(78,602,o),
(53,597,o),
(27,588,c),
(35,563,l),
(59,572,o),
(81,576,o),
(104,576,cs),
(179,576,o),
(216,517,o),
(216,434,cs),
(216,348,o),
(167,281,o),
(82,281,c),
(91,269,l),
(94,267,l),
(129,185,o),
(186,149,o),
(253,149,cs)
);
},
{
closed = 1;
nodes = (
(445,0,l),
(448,26,l),
(423,26,o),
(405,30,o),
(393,39,cs),
(379,50,o),
(373,69,o),
(373,98,cs),
(373,598,l),
(347,602,l),
(347,98,ls),
(347,61,o),
(356,35,o),
(375,19,cs),
(390,6,o),
(410,0,o),
(437,0,cs)
);
}
);
width = 451;
},
{
anchors = (
{
name = b.nuktagujr;
pos = (216,130);
}
);
layerId = "5004026F-C7B4-4F0F-B515-084BD38674AE";
shapes = (
{
closed = 1;
nodes = (
(331,101,o),
(365,111,o),
(392,128,c),
(392,305,l),
(368,263,o),
(339,239,o),
(294,239,cs),
(269,239,o),
(260,243,o),
(244,251,c),
(208,304,l),
(170,343,o),
(138,373,o),
(96,373,cs),
(37,373,o),
(15,334,o),
(15,293,cs),
(15,232,o),
(68,202,o),
(120,202,cs),
(237,202,o),
(333,285,o),
(333,414,cs),
(333,522,o),
(262,602,o),
(150,602,cs),
(98,602,o),
(59,593,o),
(18,576,c),
(60,453,l),
(78,460,o),
(101,464,o),
(116,464,cs),
(152,464,o),
(174,440,o),
(174,407,cs),
(174,362,o),
(147,345,o),
(108,327,c),
(64,274,l),
(91,224,l),
(123,170,o),
(179,101,o),
(292,101,cs)
);
},
{
closed = 1;
nodes = (
(577,0,l),
(583,138,l),
(569,138,o),
(559,140,o),
(552,146,cs),
(544,153,o),
(541,163,o),
(541,180,cs),
(541,592,l),
(382,602,l),
(382,150,ls),
(382,98,o),
(396,59,o),
(425,34,cs),
(451,11,o),
(488,0,o),
(536,0,cs)
);
}
);
width = 593;
},
{
anchors = (
{
name = b.nuktagujr;
pos = (197,138);
}
);
guides = (
{
angle = 90;
pos = (29,296);
}
);
layerId = "0BA4C117-BB0E-400D-AA02-27C87BA635D5";
shapes = (
{
closed = 1;
nodes = (
(306,126,o),
(344,140,o),
(370,164,c),
(370,255,l),
(343,214,o),
(308,194,o),
(267,194,cs),
(218,194,o),
(188,218,o),
(157,263,c),
(150,282,l),
(125,325,o),
(101,341,o),
(75,341,cs),
(40,341,o),
(20,320,o),
(20,289,cs),
(20,253,o),
(54,228,o),
(103,228,cs),
(195,228,o),
(268,311,o),
(268,424,cs),
(268,526,o),
(208,602,o),
(107,602,cs),
(81,602,o),
(51,595,o),
(22,583,c),
(43,521,l),
(62,529,o),
(85,534,o),
(102,534,cs),
(161,534,o),
(193,489,o),
(193,422,cs),
(193,354,o),
(155,305,o),
(103,295,c),
(80,276,l),
(86,250,l),
(120,175,o),
(189,126,o),
(261,126,cs)
);
},
{
closed = 1;
nodes = (
(490,0,l),
(494,68,l),
(470,68,o),
(458,72,o),
(449,79,cs),
(436,89,o),
(431,104,o),
(431,129,cs),
(431,592,l),
(356,602,l),
(356,117,ls),
(356,77,o),
(366,45,o),
(389,25,cs),
(409,8,o),
(435,0,o),
(470,0,cs)
);
}
);
width = 502;
}
);
metricRight = aavowelsigngujr;
script = gujarati;
unicode = 2714;
},
{
glyphname = chagujr;
lastChange = "2021-10-13 09:53:05 +0000";
layers = (
{
anchors = (
{
name = b.nuktagujr;
pos = (377,0);
},
{
name = b.uvattulowgujr;
pos = (347,0);
},
{
name = t.candrabindugujr;
pos = (525,603);
},
{
name = t.candrabinduleftgujr;
pos = (435,603);
}
);
guides = (
{
pos = (656,119);
}
);
layerId = UUID0;
shapes = (
{
closed = 1;
nodes = (
(575,-10,o),
(701,187,o),
(701,375,cs),
(701,547,o),
(611,603,o),
(528,603,cs),
(425,603,o),
(376,536,o),
(376,461,cs),
(376,344,o),
(473,297,o),
(571,267,c),
(596,338,l),
(494,362,o),
(455,401,o),
(455,455,cs),
(455,496,o),
(478,530,o),
(526,530,cs),
(563,530,o),
(619,508,o),
(619,382,cs),
(619,244,o),
(527,64,o),
(316,64,cs),
(217,64,o),
(168,103,o),
(168,177,cs),
(168,253,o),
(229,286,o),
(300,286,cs),
(310,286,o),
(319,286,o),
(329,285,c),
(338,357,l),
(325,358,o),
(311,359,o),
(299,359,cs),
(164,359,o),
(88,278,o),
(88,176,cs),
(88,67,o),
(162,-10,o),
(318,-10,cs)
);
},
{
closed = 1;
nodes = (
(220,338,l),
(150,371,o),
(125,407,o),
(125,456,cs),
(125,499,o),
(157,529,o),
(219,529,cs),
(248,529,o),
(270,525,o),
(290,520,c),
(304,592,l),
(278,599,o),
(244,603,o),
(210,603,cs),
(102,603,o),
(44,537,o),
(44,461,cs),
(44,375,o),
(98,324,o),
(166,286,c)
);
}
);
width = 738;
},
{
anchors = (
{
name = b.nuktagujr;
pos = (401,0);
},
{
name = b.uvattulowgujr;
pos = (350,0);
},
{
name = t.candrabindugujr;
pos = (528,603);
},
{
name = t.candrabinduleftgujr;
pos = (429,603);
}
);
layerId = "E837EE1F-8268-496F-836F-3DC25D441D7C";
shapes = (
{
closed = 1;
nodes = (
(511,-10,o),
(655,160,o),
(655,378,cs),
(655,511,o),
(602,602,o),
(504,602,cs),
(425,602,o),
(375,546,o),
(375,470,cs),
(375,372,o),
(447,310,o),
(570,282,c),
(578,307,l),
(475,328,o),
(402,376,o),
(402,470,cs),
(402,531,o),
(438,576,o),
(504,576,cs),
(587,576,o),
(628,497,o),
(628,378,cs),
(628,174,o),
(497,16,o),
(315,16,cs),
(203,16,o),
(124,76,o),
(124,171,cs),
(124,260,o),
(186,319,o),
(282,319,cs),
(294,319,o),
(305,318,o),
(316,316,c),
(320,342,l),
(308,344,o),
(296,345,o),
(282,345,cs),
(173,345,o),
(97,273,o),
(97,171,cs),
(97,63,o),
(191,-10,o),
(315,-10,cs)
);
},
{
closed = 1;
nodes = (
(189,317,l),
(123,347,o),
(81,391,o),
(81,459,cs),
(81,535,o),
(138,576,o),
(217,576,cs),
(244,576,o),
(265,573,o),
(287,568,c),
(293,593,l),
(268,599,o),
(246,602,o),
(217,602,cs),
(123,602,o),
(54,550,o),
(54,459,cs),
(54,383,o),
(103,331,o),
(174,297,c)
);
}
);
width = 702;
},
{
anchors = (
{
name = b.nuktagujr;
pos = (384,0);
},
{
name = b.uvattulowgujr;
pos = (368,0);
},
{
name = t.candrabindugujr;
pos = (498,603);
},
{
name = t.candrabinduleftgujr;
pos = (450,603);
}
);
layerId = "B78FB6F8-4888-4A20-9211-9CA65DB7E66A";
shapes = (
{
closed = 1;
nodes = (
(617,-10,o),
(782,148,o),
(782,365,cs),
(782,515,o),
(700,603,o),
(563,603,cs),
(444,603,o),
(368,538,o),
(368,438,cs),
(368,344,o),
(438,269,o),
(553,249,c),
(592,382,l),
(555,390,o),
(522,407,o),
(522,439,cs),
(522,456,o),
(534,470,o),
(553,470,cs),
(587,470,o),
(606,434,o),
(606,373,cs),
(606,241,o),
(513,132,o),
(353,132,cs),
(280,132,o),
(241,151,o),
(241,190,cs),
(241,226,o),
(271,245,o),
(314,245,cs),
(326,245,o),
(347,244,o),
(355,243,c),
(371,380,l),
(352,382,o),
(329,383,o),
(301,383,cs),
(178,383,o),
(64,304,o),
(64,190,cs),
(64,73,o),
(157,-10,o),
(351,-10,cs)
);
},
{
closed = 1;
nodes = (
(274,356,l),
(237,369,o),
(205,393,o),
(205,423,cs),
(205,449,o),
(229,464,o),
(262,464,cs),
(288,464,o),
(306,461,o),
(325,457,c),
(352,590,l),
(313,598,o),
(276,602,o),
(232,602,cs),
(117,602,o),
(28,556,o),
(28,454,cs),
(28,368,o),
(91,305,o),
(157,267,c)
);
}
);
width = 807;
},
{
anchors = (
{
name = b.nuktagujr;
pos = (316,0);
},
{
name = b.uvattulowgujr;
pos = (272,0);
},
{
name = t.candrabindugujr;
pos = (389,603);
},
{
name = t.candrabinduleftgujr;
pos = (316,603);
}
);
layerId = "E5C9A917-AA5F-4208-B63B-4C942A1E52F0";
shapes = (
{
closed = 1;
nodes = (
(427,-10,o),
(503,172,o),
(503,382,cs),
(503,522,o),
(462,602,o),
(382,602,cs),
(315,602,o),
(278,547,o),
(278,474,cs),
(278,385,o),
(339,306,o),
(438,277,c),
(444,302,l),
(362,325,o),
(305,392,o),
(305,474,cs),
(305,533,o),
(331,576,o),
(382,576,cs),
(446,576,o),
(476,501,o),
(476,382,cs),
(476,185,o),
(407,16,o),
(250,16,cs),
(161,16,o),
(96,76,o),
(96,174,cs),
(96,266,o),
(149,319,o),
(223,319,cs),
(231,319,o),
(240,318,o),
(245,317,c),
(248,343,l),
(242,344,o),
(232,345,o),
(223,345,cs),
(136,345,o),
(69,278,o),
(69,174,cs),
(69,63,o),
(146,-10,o),
(250,-10,cs)
);
},
{
closed = 1;
nodes = (
(139,313,l),
(97,346,o),
(65,396,o),
(65,460,cs),
(65,538,o),
(108,576,o),
(167,576,cs),
(182,576,o),
(199,575,o),
(213,571,c),
(217,596,l),
(205,600,o),
(184,602,o),
(167,602,cs),
(95,602,o),
(38,553,o),
(38,460,cs),
(38,387,o),
(76,331,o),
(123,294,c)
);
}
);
width = 548;
},
{
anchors = (
{
name = b.nuktagujr;
pos = (314,0);
},
{
name = b.uvattulowgujr;
pos = (292,0);
},
{
name = t.candrabindugujr;
pos = (393,603);
},
{
name = t.candrabinduleftgujr;
pos = (336,603);
}
);
layerId = "5004026F-C7B4-4F0F-B515-084BD38674AE";
shapes = (
{
closed = 1;
nodes = (
(508,-10,o),
(638,168,o),
(638,380,cs),
(638,505,o),
(574,602,o),
(444,602,cs),
(342,602,o),
(278,543,o),
(278,453,cs),
(278,366,o),
(336,289,o),
(427,257,c),
(469,377,l),
(445,390,o),
(420,411,o),
(420,445,cs),
(420,460,o),
(429,474,o),
(444,474,cs),
(466,474,o),
(479,447,o),
(479,387,cs),
(479,250,o),
(406,128,o),
(284,128,cs),
(231,128,o),
(203,151,o),
(203,187,cs),
(203,218,o),
(223,237,o),
(255,237,cs),
(262,237,o),
(272,236,o),
(278,235,c),
(291,373,l),
(283,374,o),
(271,375,o),
(260,375,cs),
(142,375,o),
(44,302,o),
(44,187,cs),
(44,78,o),
(118,-10,o),
(280,-10,cs)
);
},
{
closed = 1;
nodes = (
(222,361,l),
(195,372,o),
(176,393,o),
(176,419,cs),
(176,447,o),
(197,464,o),
(224,464,cs),
(239,464,o),
(251,463,o),
(258,461,c),
(277,596,l),
(260,599,o),
(229,602,o),
(208,602,cs),
(95,602,o),
(20,536,o),
(20,443,cs),
(20,379,o),
(52,326,o),
(120,275,c)
);
}
);
width = 659;
},
{
anchors = (
{
name = b.nuktagujr;
pos = (284,0);
},
{
name = b.uvattulowgujr;
pos = (268,0);
},
{
name = t.candrabindugujr;
pos = (381,603);
},
{
name = t.candrabinduleftgujr;
pos = (322,603);
}
);
layerId = "0BA4C117-BB0E-400D-AA02-27C87BA635D5";
shapes = (
{
closed = 1;
nodes = (
(430,-10,o),
(541,127,o),
(541,379,cs),
(541,521,o),
(493,602,o),
(398,602,cs),
(328,602,o),
(279,551,o),
(279,471,cs),
(279,388,o),
(334,315,o),
(424,275,c),
(447,344,l),
(390,369,o),
(354,414,o),
(354,469,cs),
(354,511,o),
(373,535,o),
(403,535,cs),
(447,535,o),
(465,477,o),
(465,379,cs),
(465,174,o),
(386,59,o),
(262,59,cs),
(180,59,o),
(134,105,o),
(134,179,cs),
(134,248,o),
(169,288,o),
(232,288,cs),
(238,288,o),
(246,288,o),
(256,287,c),
(263,354,l),
(255,355,o),
(241,356,o),
(231,356,cs),
(127,356,o),
(60,285,o),
(60,181,cs),
(60,65,o),
(137,-10,o),
(265,-10,cs)
);
},
{
closed = 1;
nodes = (
(176,331,l),
(133,359,o),
(107,401,o),
(107,446,cs),
(107,500,o),
(137,534,o),
(186,534,cs),
(199,534,o),
(207,533,o),
(221,530,c),
(230,596,l),
(213,600,o),
(196,602,o),
(179,602,cs),
(90,602,o),
(32,544,o),
(32,455,cs),
(32,392,o),
(63,333,o),
(121,287,c)
);
}
);
width = 575;
}
);
script = gujarati;
unicode = 2715;
},
{
glyphname = jagujr;
lastChange = "2021-10-13 14:39:48 +0000";
layers = (
{
anchors = (
{
name = b.nuktagujr;
pos = (555,0);
},
{
name = b.uvattulowgujr;
pos = (513,0);
},
{
name = t.candrabindugujr;
pos = (667,603);
},
{
name = t.candrabinduleftgujr;
pos = (528,603);
}
);
layerId = UUID0;
shapes = (
{
closed = 1;
nodes = (
(654,-10,o),
(721,55,o),
(721,169,cs),
(721,267,o),
(676,357,o),
(605,436,c),
(508,543,o),
(390,603,o),
(240,603,cs),
(106,603,o),
(33,524,o),
(33,430,cs),
(33,341,o),
(89,270,o),
(191,270,cs),
(315,270,o),
(356,352,o),
(356,428,cs),
(356,485,o),
(332,525,o),
(307,555,c),
(236,544,l),
(261,514,o),
(276,476,o),
(276,434,cs),
(276,377,o),
(252,343,o),
(191,343,cs),
(145,343,o),
(113,372,o),
(113,429,cs),
(113,483,o),
(147,533,o),
(234,533,cs),
(369,533,o),
(472,479,o),
(552,385,c),
(608,324,o),
(639,254,o),
(639,170,cs),
(639,95,o),
(603,63,o),
(547,63,cs),
(482,63,o),
(454,100,o),
(454,161,cs),
(454,224,o),
(473,291,o),
(585,374,cs),
(659,429,o),
(731,477,o),
(827,539,c),
(782,604,l),
(685,539,o),
(621,492,o),
(549,437,c),
(431,346,o),
(372,266,o),
(372,160,cs),
(372,74,o),
(421,-10,o),
(549,-10,cs)
);
}
);
width = 822;
},
{
anchors = (
{
name = b.nuktagujr;
pos = (522,0);
},
{
name = b.uvattulowgujr;
pos = (511,0);
},
{
name = t.candrabindugujr;
pos = (684,603);
},
{
name = t.candrabinduleftgujr;
pos = (514,603);
}
);
layerId = "E837EE1F-8268-496F-836F-3DC25D441D7C";
shapes = (
{
closed = 1;
nodes = (
(599,-10,o),
(659,44,o),
(659,161,cs),
(659,271,o),
(616,357,o),
(548,437,cs),
(460,541,o),
(348,602,o),
(230,602,cs),
(123,602,o),
(43,538,o),
(43,439,cs),
(43,351,o),
(99,299,o),
(176,299,cs),
(261,299,o),
(312,343,o),
(312,438,cs),
(312,504,o),
(285,554,o),
(240,592,c),
(209,592,l),
(260,548,o),
(285,499,o),
(285,438,cs),
(285,361,o),
(246,325,o),
(176,325,cs),
(119,325,o),
(70,361,o),
(70,439,cs),
(70,525,o),
(138,577,o),
(228,577,cs),
(337,577,o),
(445,520,o),
(529,421,cs),
(593,346,o),
(632,266,o),
(632,161,cs),
(632,64,o),
(585,16,o),
(508,16,cs),
(428,16,o),
(382,71,o),
(382,159,cs),
(382,259,o),
(443,334,o),
(544,412,c),
(616,468,o),
(671,510,o),
(772,582,c),
(756,603,l),
(656,530,o),
(600,488,o),
(526,431,cs),
(421,349,o),
(355,267,o),
(355,159,cs),
(355,61,o),
(409,-10,o),
(507,-10,cs)
);
}
);
width = 774;
},
{
anchors = (
{
name = b.nuktagujr;
pos = (592,0);
},
{
name = b.uvattulowgujr;
pos = (615,0);
},
{
name = t.candrabindugujr;
pos = (635,603);
},
{
name = t.candrabinduleftgujr;
pos = (555,603);
}
);
layerId = "B78FB6F8-4888-4A20-9211-9CA65DB7E66A";
shapes = (
{
closed = 1;
nodes = (
(767,-10,o),
(842,66,o),
(842,177,cs),
(842,273,o),
(801,347,o),
(701,439,c),
(567,557,o),
(433,602,o),
(279,602,cs),
(115,602,o),
(25,517,o),
(25,405,cs),
(25,288,o),
(114,223,o),
(228,223,cs),
(356,223,o),
(419,290,o),
(419,389,cs),
(419,433,o),
(397,487,o),
(370,517,c),
(252,484,l),
(265,467,o),
(276,438,o),
(276,407,cs),
(276,373,o),
(260,357,o),
(233,357,cs),
(208,357,o),
(192,373,o),
(192,403,cs),
(192,439,o),
(217,467,o),
(265,467,cs),
(414,467,o),
(493,429,o),
(590,340,c),
(637,296,o),
(673,252,o),
(673,178,cs),
(673,147,o),
(657,126,o),
(626,126,cs),
(597,126,o),
(579,145,o),
(579,178,cs),
(579,232,o),
(609,278,o),
(689,331,c),
(750,373,o),
(825,421,o),
(919,477,c),
(830,606,l),
(731,548,o),
(652,493,o),
(576,432,c),
(465,344,o),
(412,269,o),
(412,178,cs),
(412,67,o),
(491,-10,o),
(629,-10,cs)
);
}
);
width = 913;
},
{
anchors = (
{
name = b.nuktagujr;
pos = (464,0);
},
{
name = b.uvattulowgujr;
pos = (480,0);
},
{
name = t.candrabindugujr;
pos = (484,603);
},
{
name = t.candrabinduleftgujr;
pos = (418,603);
}
);
layerId = "5004026F-C7B4-4F0F-B515-084BD38674AE";
shapes = (
{
closed = 1;
nodes = (
(625,-10,o),
(682,64,o),
(682,179,cs),
(682,272,o),
(644,355,o),
(571,437,c),
(496,539,o),
(387,602,o),
(247,602,cs),
(108,602,o),
(20,524,o),
(20,399,cs),
(20,294,o),
(87,228,o),
(186,228,cs),
(290,228,o),
(346,289,o),
(346,389,cs),
(346,438,o),
(331,480,o),
(310,515,c),
(204,484,l),
(219,456,o),
(225,435,o),
(225,403,cs),
(225,365,o),
(213,356,o),
(194,356,cs),
(174,356,o),
(163,372,o),
(163,403,cs),
(163,455,o),
(202,473,o),
(245,473,cs),
(349,473,o),
(410,433,o),
(476,348,c),
(516,300,o),
(537,240,o),
(537,175,cs),
(537,139,o),
(523,122,o),
(503,122,cs),
(483,122,o),
(469,138,o),
(469,169,cs),
(469,231,o),
(499,273,o),
(568,335,c),
(613,379,o),
(680,437,o),
(751,495,c),
(645,606,l),
(574,546,o),
(520,493,o),
(472,442,c),
(359,330,o),
(326,251,o),
(326,167,cs),
(326,65,o),
(387,-10,o),
(504,-10,cs)
);
}
);
width = 748;
},
{
anchors = (
{
name = b.nuktagujr;
pos = (393,0);
},
{
name = b.uvattulowgujr;
pos = (387,0);
},
{
name = t.candrabindugujr;
pos = (479,603);
},
{
name = t.candrabinduleftgujr;
pos = (385,603);
}
);
layerId = "E5C9A917-AA5F-4208-B63B-4C942A1E52F0";
shapes = (
{
closed = 1;
nodes = (
(462,-10,o),
(502,54,o),
(502,165,cs),
(502,283,o),
(473,368,o),
(427,444,c),
(370,537,o),
(292,602,o),
(182,602,cs),
(98,602,o),
(34,539,o),
(34,435,cs),
(34,354,o),
(73,299,o),
(139,299,cs),
(209,299,o),
(243,348,o),
(243,428,cs),
(243,496,o),
(216,548,o),
(182,587,c),
(155,584,l),
(194,537,o),
(216,493,o),
(216,428,cs),
(216,362,o),
(191,325,o),
(139,325,cs),
(89,325,o),
(61,368,o),
(61,436,cs),
(61,523,o),
(111,577,o),
(182,577,cs),
(274,577,o),
(358,518,o),
(410,423,c),
(454,351,o),
(475,265,o),
(475,165,cs),
(475,75,o),
(448,16,o),
(387,16,cs),
(328,16,o),
(300,67,o),
(300,150,cs),
(300,247,o),
(344,327,o),
(427,424,c),
(469,471,o),
(519,525,o),
(583,586,c),
(564,604,l),
(503,545,o),
(447,486,o),
(411,444,c),
(321,340,o),
(273,253,o),
(273,150,cs),
(273,47,o),
(316,-10,o),
(387,-10,cs)
);
}
);
width = 585;
},
{
anchors = (
{
name = b.nuktagujr;
pos = (433,0);
},
{
name = b.uvattulowgujr;
pos = (400,0);
},
{
name = t.candrabindugujr;
pos = (485,603);
},
{
name = t.candrabinduleftgujr;
pos = (385,603);
}
);
layerId = "0BA4C117-BB0E-400D-AA02-27C87BA635D5";
shapes = (
{
closed = 1;
nodes = (
(516,-10,o),
(567,60,o),
(567,165,cs),
(567,271,o),
(536,360,o),
(480,440,c),
(405,547,o),
(318,602,o),
(210,602,cs),
(97,602,o),
(27,531,o),
(27,428,cs),
(27,337,o),
(78,279,o),
(156,279,cs),
(246,279,o),
(287,338,o),
(287,414,cs),
(287,465,o),
(269,522,o),
(236,564,c),
(170,553,l),
(199,513,o),
(214,468,o),
(214,420,cs),
(214,373,o),
(196,345,o),
(157,345,cs),
(121,345,o),
(99,376,o),
(99,428,cs),
(99,487,o),
(125,538,o),
(208,538,cs),
(300,538,o),
(375,479,o),
(430,394,cs),
(473,328,o),
(492,247,o),
(492,167,cs),
(492,101,o),
(470,57,o),
(427,57,cs),
(383,57,o),
(362,94,o),
(362,156,cs),
(362,241,o),
(403,315,o),
(471,390,cs),
(518,441,o),
(574,493,o),
(643,550,c),
(597,603,l),
(536,550,o),
(482,499,o),
(434,448,cs),
(347,354,o),
(288,267,o),
(288,156,cs),
(288,51,o),
(343,-10,o),
(429,-10,cs)
);
}
);
width = 642;
}
);
script = gujarati;
unicode = 2716;
},
{
glyphname = jhagujr;
lastChange = "2021-10-13 09:53:05 +0000";
layers = (
{
anchors = (
{
name = b.nuktagujr;
pos = (494,0);
},
{
name = t.candrabindugujr;
pos = (456,603);
}
);
layerId = UUID0;
shapes = (
{
closed = 1;
nodes = (
(295,-10,o),
(398,32,o),
(398,232,cs),
(398,402,o),
(320,492,o),
(195,492,cs),
(149,492,o),
(94,479,o),
(52,460,c),
(78,392,l),
(110,408,o),
(138,419,o),
(188,419,cs),
(273,419,o),
(316,354,o),
(316,235,cs),
(316,110,o),
(272,63,o),
(213,63,cs),
(146,63,o),
(115,98,o),
(74,158,c),
(11,115,l),
(73,17,o),
(142,-10,o),
(215,-10,cs)
);
},
{
closed = 1;
nodes = (
(622,63,o),
(656,133,o),
(656,218,cs),
(656,340,o),
(586,412,o),
(466,412,cs),
(407,412,o),
(357,390,o),
(320,362,c),
(353,291,l),
(386,325,o),
(427,341,o),
(467,341,cs),
(534,341,o),
(576,296,o),
(576,221,cs),
(576,151,o),
(549,106,o),
(481,55,c),
(537,-6,l)
);
},
{
closed = 1;
nodes = (
(536,388,l),
(536,592,l),
(456,603,l),
(456,388,l)
);
}
);
width = 698;
},
{
anchors = (
{
name = b.nuktagujr;
pos = (470,0);
},
{
name = t.candrabindugujr;
pos = (470,603);
}
);
layerId = "E837EE1F-8268-496F-836F-3DC25D441D7C";
shapes = (
{
closed = 1;
nodes = (
(321,-10,o),
(366,99,o),
(366,238,cs),
(366,400,o),
(298,492,o),
(177,492,cs),
(130,492,o),
(89,480,o),
(49,459,c),
(60,436,l),
(99,456,o),
(139,466,o),
(177,466,cs),
(282,466,o),
(339,386,o),
(339,238,cs),
(339,122,o),
(311,16,o),
(194,16,cs),
(124,16,o),
(73,59,o),
(35,140,c),
(12,129,l),
(53,43,o),
(113,-10,o),
(194,-10,cs)
);
},
{
closed = 1;
nodes = (
(572,60,o),
(619,131,o),
(619,232,cs),
(619,334,o),
(551,412,o),
(454,412,cs),
(409,412,o),
(366,397,o),
(325,370,c),
(338,346,l),
(376,373,o),
(413,386,o),
(455,386,cs),
(537,386,o),
(592,323,o),
(592,232,cs),
(592,139,o),
(548,75,o),
(466,15,c),
(485,-6,l)
);
},
{
closed = 1;
nodes = (
(497,398,l),
(497,598,l),
(471,602,l),
(471,398,l)
);
}
);
width = 671;
},
{
anchors = (
{
name = b.nuktagujr;
pos = (515,0);
},
{
name = t.candrabindugujr;
pos = (473,603);
}
);
layerId = "B78FB6F8-4888-4A20-9211-9CA65DB7E66A";
shapes = (
{
closed = 1;
nodes = (
(402,-10,o),
(474,92,o),
(474,235,cs),
(474,393,o),
(387,508,o),
(223,508,cs),
(168,508,o),
(117,498,o),
(63,474,c),
(107,346,l),
(138,361,o),
(171,370,o),
(200,370,cs),
(264,370,o),
(297,326,o),
(297,239,cs),
(297,169,o),
(274,134,o),
(227,134,cs),
(185,134,o),
(162,161,o),
(137,209,c),
(9,134,l),
(57,47,o),
(126,-10,o),
(244,-10,cs)
);
},
{
closed = 1;
nodes = (
(710,39,o),
(758,122,o),
(758,214,cs),
(758,333,o),
(673,428,o),
(534,428,cs),
(470,428,o),
(415,412,o),
(366,380,c),
(419,245,l),
(454,277,o),
(488,296,o),
(523,296,cs),
(562,296,o),
(582,270,o),
(582,226,cs),
(582,179,o),
(557,141,o),
(508,100,c),
(639,-17,l)
);
},
{
closed = 1;
nodes = (
(650,347,l),
(650,592,l),
(473,602,l),
(473,347,l)
);
}
);
width = 778;
},
{
anchors = (
{
name = b.nuktagujr;
pos = (353,0);
},
{
name = t.candrabindugujr;
pos = (353,603);
}
);
layerId = "E5C9A917-AA5F-4208-B63B-4C942A1E52F0";
shapes = (
{
closed = 1;
nodes = (
(237,-10,o),
(281,73,o),
(281,238,cs),
(281,400,o),
(222,492,o),
(127,492,cs),
(97,492,o),
(69,485,o),
(44,474,c),
(54,450,l),
(79,461,o),
(104,466,o),
(127,466,cs),
(209,466,o),
(254,386,o),
(254,238,cs),
(254,89,o),
(219,16,o),
(148,16,cs),
(92,16,o),
(59,58,o),
(37,140,c),
(13,130,l),
(37,43,o),
(79,-10,o),
(149,-10,cs)
);
},
{
closed = 1;
nodes = (
(434,61,o),
(469,130,o),
(469,232,cs),
(469,334,o),
(417,412,o),
(330,412,cs),
(302,412,o),
(273,403,o),
(246,388,c),
(258,364,l),
(282,379,o),
(306,386,o),
(331,386,cs),
(403,386,o),
(442,322,o),
(442,232,cs),
(442,139,o),
(407,72,o),
(349,13,c),
(372,-6,l)
);
},
{
closed = 1;
nodes = (
(379,398,l),
(379,598,l),
(353,602,l),
(353,398,l)
);
}
);
width = 506;
},
{
anchors = (
{
name = b.nuktagujr;
pos = (420,0);
},
{
name = t.candrabindugujr;
pos = (382,603);
}
);
layerId = "5004026F-C7B4-4F0F-B515-084BD38674AE";
shapes = (
{
closed = 1;
nodes = (
(323,-10,o),
(393,78,o),
(393,235,cs),
(393,394,o),
(317,505,o),
(176,505,cs),
(124,505,o),
(85,496,o),
(49,480,c),
(97,355,l),
(116,363,o),
(134,367,o),
(152,367,cs),
(205,367,o),
(233,324,o),
(233,238,cs),
(233,169,o),
(216,134,o),
(188,134,cs),
(158,134,o),
(145,155,o),
(129,195,c),
(9,148,l),
(40,49,o),
(95,-10,o),
(202,-10,cs)
);
},
{
closed = 1;
nodes = (
(588,45,o),
(627,126,o),
(627,216,cs),
(627,339,o),
(554,426,o),
(435,426,cs),
(383,426,o),
(336,411,o),
(298,382,c),
(353,265,l),
(377,288,o),
(399,298,o),
(420,298,cs),
(457,298,o),
(470,270,o),
(470,226,cs),
(470,175,o),
(452,133,o),
(414,88,c),
(531,-15,l)
);
},
{
closed = 1;
nodes = (
(541,355,l),
(541,592,l),
(382,602,l),
(382,355,l)
);
}
);
width = 644;
},
{
anchors = (
{
name = b.nuktagujr;
pos = (386,0);
},
{
name = t.candrabindugujr;
pos = (363,603);
}
);
layerId = "0BA4C117-BB0E-400D-AA02-27C87BA635D5";
shapes = (
{
closed = 1;
nodes = (
(270,-10,o),
(326,76,o),
(326,235,cs),
(326,397,o),
(258,492,o),
(143,492,cs),
(108,492,o),
(77,485,o),
(44,472,c),
(66,410,l),
(89,419,o),
(111,424,o),
(138,424,cs),
(212,424,o),
(251,359,o),
(251,235,cs),
(251,118,o),
(220,58,o),
(161,58,cs),
(114,58,o),
(90,89,o),
(74,138,c),
(12,115,l),
(39,31,o),
(92,-10,o),
(167,-10,cs)
);
},
{
closed = 1;
nodes = (
(508,69,o),
(532,144,o),
(532,228,cs),
(532,342,o),
(478,412,o),
(377,412,cs),
(331,412,o),
(290,393,o),
(256,362,c),
(289,298,l),
(318,326,o),
(344,346,o),
(379,346,cs),
(432,346,o),
(457,303,o),
(457,228,cs),
(457,157,o),
(431,102,o),
(380,42,c),
(446,-6,l)
);
},
{
closed = 1;
nodes = (
(438,388,l),
(438,592,l),
(363,602,l),
(363,388,l)
);
}
);
width = 559;
}
);
script = gujarati;
unicode = 2717;
},
{
glyphname = nyagujr;
lastChange = "2024-05-22 09:46:33 +0000";
layers = (
{
anchors = (
{
name = b.nuktagujr;
pos = (250,183);
}
);
layerId = UUID0;
shapes = (
{
closed = 1;
nodes = (
(288,178,o),
(378,213,o),
(378,383,cs),
(378,534,o),
(303,603,o),
(192,603,cs),
(149,603,o),
(98,592,o),
(54,570,c),
(79,503,l),
(108,519,o),
(146,530,o),
(188,530,cs),
(257,530,o),
(299,487,o),
(299,384,cs),
(299,289,o),
(260,251,o),
(206,251,cs),
(155,251,o),
(119,278,o),
(74,346,c),
(11,303,l),
(72,210,o),
(139,178,o),
(208,178,cs)
);
},
{
closed = 1;
nodes = (
(481,332,o),
(524,350,o),
(561,389,c),
(545,472,l),
(516,427,o),
(475,404,o),
(416,404,cs),
(372,404,o),
(342,420,o),
(316,450,c),
(311,361,l),
(344,339,o),
(379,332,o),
(417,332,cs)
);
},
{
closed = 1;
nodes = (
(676,0,l),
(684,73,l),
(656,73,o),
(623,73,o),
(609,92,cs),
(601,103,o),
(597,116,o),
(597,152,cs),
(597,592,l),
(517,603,l),
(517,148,ls),
(517,89,o),
(526,60,o),
(548,37,cs),
(571,13,o),
(608,0,o),
(666,0,cs)
);
}
);
width = 692;
},
{
anchors = (
{
name = b.nuktagujr;
pos = (228,183);
}
);
layerId = "E837EE1F-8268-496F-836F-3DC25D441D7C";
shapes = (
{
closed = 1;
nodes = (
(302,193,o),
(348,271,o),
(348,389,cs),
(348,516,o),
(296,602,o),
(177,602,cs),
(134,602,o),
(92,591,o),
(54,575,c),
(64,549,l),
(100,564,o),
(139,576,o),
(177,576,cs),
(282,576,o),
(321,503,o),
(321,389,cs),
(321,285,o),
(288,219,o),
(194,219,cs),
(126,219,o),
(78,259,o),
(35,332,c),
(11,317,l),
(62,236,o),
(118,193,o),
(194,193,cs)
);
},
{
closed = 1;
nodes = (
(462,356,o),
(503,372,o),
(535,401,c),
(535,440,l),
(505,403,o),
(462,382,o),
(409,382,cs),
(381,382,o),
(353,389,o),
(328,404,c),
(328,377,l),
(353,363,o),
(383,356,o),
(413,356,cs)
);
},
{
closed = 1;
nodes = (
(640,0,l),
(643,26,l),
(610,26,o),
(587,29,o),
(569,41,cs),
(547,56,o),
(537,80,o),
(537,129,cs),
(537,598,l),
(511,602,l),
(511,128,ls),
(511,74,o),
(526,43,o),
(550,23,cs),
(571,6,o),
(597,0,o),
(631,0,cs)
);
}
);
width = 645;
},
{
anchors = (
{
name = b.nuktagujr;
pos = (266,163);
}
);
layerId = "B78FB6F8-4888-4A20-9211-9CA65DB7E66A";
shapes = (
{
closed = 1;
nodes = (
(402,142,o),
(460,242,o),
(460,370,cs),
(460,506,o),
(388,602,o),
(229,602,cs),
(167,602,o),
(105,586,o),
(62,566,c),
(107,441,l),
(136,454,o),
(167,464,o),
(204,464,cs),
(257,464,o),
(286,437,o),
(286,371,cs),
(286,316,o),
(265,286,o),
(221,286,cs),
(178,286,o),
(153,313,o),
(124,365,c),
(3,294,l),
(54,204,o),
(121,142,o),
(246,142,cs)
);
},
{
closed = 1;
nodes = (
(520,296,o),
(563,318,o),
(591,353,c),
(559,483,l),
(536,454,o),
(506,434,o),
(464,434,cs),
(447,434,o),
(426,437,o),
(405,445,c),
(400,309,l),
(422,302,o),
(448,296,o),
(473,296,cs)
);
},
{
closed = 1;
nodes = (
(768,0,l),
(781,138,l),
(752,138,o),
(735,141,o),
(724,151,cs),
(712,162,o),
(709,180,o),
(709,209,cs),
(709,592,l),
(532,602,l),
(532,194,ls),
(532,121,o),
(545,73,o),
(577,42,cs),
(608,12,o),
(657,0,o),
(728,0,cs)
);
}
);
width = 784;
},
{
anchors = (
{
name = b.nuktagujr;
pos = (167,183);
}
);
layerId = "E5C9A917-AA5F-4208-B63B-4C942A1E52F0";
shapes = (
{
closed = 1;
nodes = (
(225,193,o),
(258,269,o),
(258,386,cs),
(258,515,o),
(218,602,o),
(122,602,cs),
(95,602,o),
(67,595,o),
(43,584,c),
(53,560,l),
(75,569,o),
(98,576,o),
(122,576,cs),
(202,576,o),
(231,501,o),
(231,386,cs),
(231,283,o),
(208,219,o),
(140,219,cs),
(91,219,o),
(59,253,o),
(36,327,c),
(12,317,l),
(39,229,o),
(83,193,o),
(141,193,cs)
);
},
{
closed = 1;
nodes = (
(347,354,o),
(379,367,o),
(403,393,c),
(403,433,l),
(381,399,o),
(347,380,o),
(303,380,cs),
(280,380,o),
(259,385,o),
(238,400,c),
(238,372,l),
(258,360,o),
(283,354,o),
(306,354,cs)
);
},
{
closed = 1;
nodes = (
(483,0,l),
(486,26,l),
(461,26,o),
(443,30,o),
(431,39,cs),
(417,50,o),
(411,69,o),
(411,98,cs),
(411,598,l),
(385,602,l),
(385,98,ls),
(385,61,o),
(394,35,o),
(413,19,cs),
(428,6,o),
(448,0,o),
(475,0,cs)
);
}
);
width = 489;
},
{
anchors = (
{
name = b.nuktagujr;
pos = (213,172);
}
);
layerId = "5004026F-C7B4-4F0F-B515-084BD38674AE";
shapes = (
{
closed = 1;
nodes = (
(311,142,o),
(369,234,o),
(369,370,cs),
(369,506,o),
(312,602,o),
(175,602,cs),
(130,602,o),
(90,592,o),
(57,578,c),
(101,453,l),
(117,459,o),
(133,464,o),
(152,464,cs),
(197,464,o),
(214,434,o),
(214,370,cs),
(214,318,o),
(204,286,o),
(174,286,cs),
(150,286,o),
(138,305,o),
(123,353,c),
(3,311,l),
(31,212,o),
(82,142,o),
(194,142,cs)
);
},
{
closed = 1;
nodes = (
(423,300,o),
(460,318,o),
(483,349,c),
(453,474,l),
(435,448,o),
(412,431,o),
(379,431,cs),
(368,431,o),
(351,435,o),
(333,446,c),
(328,315,l),
(346,307,o),
(367,300,o),
(387,300,cs)
);
},
{
closed = 1;
nodes = (
(624,0,l),
(630,138,l),
(616,138,o),
(606,140,o),
(599,146,cs),
(591,153,o),
(588,163,o),
(588,180,cs),
(588,592,l),
(429,602,l),
(429,150,ls),
(429,98,o),
(443,59,o),
(472,34,cs),
(498,11,o),
(535,0,o),
(583,0,cs)
);
}
);
width = 640;
},
{
anchors = (
{
name = b.nuktagujr;
pos = (189,183);
}
);
layerId = "0BA4C117-BB0E-400D-AA02-27C87BA635D5";
shapes = (
{
closed = 1;
nodes = (
(256,178,o),
(300,259,o),
(300,380,cs),
(300,510,o),
(252,602,o),
(142,602,cs),
(109,602,o),
(76,594,o),
(49,582,c),
(71,520,l),
(91,528,o),
(113,534,o),
(133,534,cs),
(201,534,o),
(225,476,o),
(225,380,cs),
(225,299,o),
(207,246,o),
(153,246,cs),
(114,246,o),
(91,276,o),
(69,341,c),
(9,316,l),
(38,224,o),
(88,178,o),
(162,178,cs)
);
},
{
closed = 1;
nodes = (
(383,332,o),
(413,345,o),
(440,366,c),
(424,439,l),
(401,413,o),
(372,400,o),
(338,400,cs),
(305,400,o),
(282,412,o),
(260,431,c),
(255,356,l),
(283,341,o),
(313,332,o),
(343,332,cs)
);
},
{
closed = 1;
nodes = (
(539,0,l),
(543,68,l),
(519,68,o),
(507,72,o),
(498,79,cs),
(485,89,o),
(480,104,o),
(480,129,cs),
(480,592,l),
(405,602,l),
(405,117,ls),
(405,77,o),
(415,45,o),
(438,25,cs),
(458,8,o),
(484,0,o),
(519,0,cs)
);
}
);
width = 551;
}
);
metricRight = aavowelsigngujr;
script = gujarati;
unicode = 2718;
},
{
glyphname = ttagujr;
lastChange = "2021-10-13 10:07:21 +0000";
layers = (
{
anchors = (
{
name = b.nuktagujr;
pos = (268,0);
},
{
name = b.uvattulowgujr;
pos = (220,0);
},
{
name = t.candrabindugujr;
pos = (274,603);
},
{
name = t.candrabinduleftgujr;
pos = (195,603);
}
);
layerId = UUID0;
shapes = (
{
closed = 1;
nodes = (
(335,-10,o),
(391,9,o),
(454,44,c),
(417,115,l),
(363,81,o),
(315,63,o),
(251,63,cs),
(173,63,o),
(129,101,o),
(129,154,cs),
(129,218,o),
(165,247,o),
(275,307,cs),
(348,347,o),
(403,385,o),
(403,469,cs),
(403,547,o),
(350,603,o),
(239,603,cs),
(182,603,o),
(132,591,o),
(88,572,c),
(113,504,l),
(153,523,o),
(190,530,o),
(237,530,cs),
(288,530,o),
(323,512,o),
(323,467,cs),
(323,423,o),
(290,402,o),
(208,359,cs),
(107,306,o),
(46,253,o),
(46,162,cs),
(46,58,o),
(121,-10,o),
(249,-10,cs)
);
}
);
width = 451;
},
{
anchors = (
{
name = b.nuktagujr;
pos = (288,0);
},
{
name = b.uvattulowgujr;
pos = (239,0);
},
{
name = t.candrabindugujr;
pos = (294,603);
},
{
name = t.candrabinduleftgujr;
pos = (204,603);
}
);
layerId = "E837EE1F-8268-496F-836F-3DC25D441D7C";
shapes = (
{
closed = 1;
nodes = (
(306,-10,o),
(350,5,o),
(414,44,c),
(400,68,l),
(339,29,o),
(298,16,o),
(237,16,cs),
(140,16,o),
(81,67,o),
(81,144,cs),
(81,217,o),
(123,260,o),
(219,315,cs),
(324,375,o),
(370,414,o),
(370,486,cs),
(370,559,o),
(316,603,o),
(226,603,cs),
(182,603,o),
(139,594,o),
(96,576,c),
(105,551,l),
(149,569,o),
(189,577,o),
(226,577,cs),
(302,577,o),
(343,546,o),
(343,486,cs),
(343,425,o),
(301,393,o),
(203,337,cs),
(97,276,o),
(54,227,o),
(54,144,cs),
(54,53,o),
(126,-10,o),
(237,-10,cs)
);
}
);
width = 420;
},
{
anchors = (
{
name = b.nuktagujr;
pos = (254,0);
},
{
name = b.uvattulowgujr;
pos = (266,0);
},
{
name = t.candrabindugujr;
pos = (239,603);
},
{
name = t.candrabinduleftgujr;
pos = (184,603);
}
);
layerId = "B78FB6F8-4888-4A20-9211-9CA65DB7E66A";
shapes = (
{
closed = 1;
nodes = (
(367,-10,o),
(447,11,o),
(523,51,c),
(458,182,l),
(395,147,o),
(334,128,o),
(275,128,cs),
(228,128,o),
(206,140,o),
(206,172,cs),
(206,200,o),
(222,216,o),
(295,252,cs),
(427,318,o),
(473,359,o),
(473,446,cs),
(473,531,o),
(402,603,o),
(269,603,cs),
(192,603,o),
(126,588,o),
(66,565,c),
(114,433,l),
(161,452,o),
(205,465,o),
(255,465,cs),
(286,465,o),
(296,458,o),
(296,442,cs),
(296,421,o),
(269,407,o),
(206,377,cs),
(90,322,o),
(24,268,o),
(24,167,cs),
(24,57,o),
(113,-10,o),
(262,-10,cs)
);
}
);
width = 507;
},
{
anchors = (
{
name = b.nuktagujr;
pos = (217,0);
},
{
name = b.uvattulowgujr;
pos = (185,0);
},
{
name = t.candrabindugujr;
pos = (222,603);
},
{
name = t.candrabinduleftgujr;
pos = (160,603);
}
);
layerId = "E5C9A917-AA5F-4208-B63B-4C942A1E52F0";
shapes = (
{
closed = 1;
nodes = (
(248,-10,o),
(280,0,o),
(324,27,c),
(310,52,l),
(269,25,o),
(239,16,o),
(198,16,cs),
(118,16,o),
(67,70,o),
(67,142,cs),
(67,206,o),
(96,249,o),
(175,317,cs),
(256,386,o),
(291,427,o),
(291,493,cs),
(291,558,o),
(245,602,o),
(169,602,cs),
(139,602,o),
(107,595,o),
(78,583,c),
(87,559,l),
(116,571,o),
(145,576,o),
(169,576,cs),
(233,576,o),
(264,545,o),
(264,493,cs),
(264,436,o),
(233,403,o),
(156,336,cs),
(73,264,o),
(40,213,o),
(40,142,cs),
(40,56,o),
(104,-10,o),
(198,-10,cs)
);
}
);
width = 329;
},
{
anchors = (
{
name = b.nuktagujr;
pos = (216,0);
},
{
name = b.uvattulowgujr;
pos = (218,0);
},
{
name = t.candrabindugujr;
pos = (196,603);
},
{
name = t.candrabinduleftgujr;
pos = (145,603);
}
);
layerId = "5004026F-C7B4-4F0F-B515-084BD38674AE";
shapes = (
{
closed = 1;
nodes = (
(316,-10,o),
(382,9,o),
(443,47,c),
(380,178,l),
(328,145,o),
(283,128,o),
(238,128,cs),
(204,128,o),
(190,142,o),
(190,166,cs),
(190,192,o),
(207,211,o),
(268,256,cs),
(380,339,o),
(403,387,o),
(403,450,cs),
(403,537,o),
(342,602,o),
(222,602,cs),
(162,602,o),
(107,591,o),
(57,574,c),
(102,444,l),
(136,457,o),
(170,464,o),
(202,464,cs),
(235,464,o),
(246,455,o),
(246,438,cs),
(246,419,o),
(232,406,o),
(150,349,cs),
(61,287,o),
(25,230,o),
(25,160,cs),
(25,52,o),
(104,-10,o),
(237,-10,cs)
);
}
);
width = 431;
},
{
anchors = (
{
name = b.nuktagujr;
pos = (207,0);
},
{
name = b.uvattulowgujr;
pos = (172,0);
},
{
name = t.candrabindugujr;
pos = (213,603);
},
{
name = t.candrabinduleftgujr;
pos = (149,603);
}
);
layerId = "0BA4C117-BB0E-400D-AA02-27C87BA635D5";
shapes = (
{
closed = 1;
nodes = (
(271,-10,o),
(314,3,o),
(360,31,c),
(327,95,l),
(290,71,o),
(255,58,o),
(212,58,cs),
(147,58,o),
(109,92,o),
(109,149,cs),
(109,209,o),
(145,253,o),
(217,309,cs),
(288,364,o),
(325,405,o),
(325,477,cs),
(325,547,o),
(273,602,o),
(182,602,cs),
(143,602,o),
(104,594,o),
(70,579,c),
(93,515,l),
(121,527,o),
(147,534,o),
(176,534,cs),
(223,534,o),
(250,513,o),
(250,475,cs),
(250,432,o),
(222,405,o),
(155,353,cs),
(87,300,o),
(32,239,o),
(32,155,cs),
(32,53,o),
(101,-10,o),
(210,-10,cs)
);
}
);
width = 357;
}
);
script = gujarati;
unicode = 2719;
},
{
glyphname = tthagujr;
lastChange = "2021-10-13 09:53:05 +0000";
layers = (
{
anchors = (
{
name = b.nuktagujr;
pos = (298,0);
},
{
name = b.uvattulowgujr;
pos = (254,0);
},
{
name = t.candrabindugujr;
pos = (332,603);
},
{
name = t.candrabinduleftgujr;
pos = (227,603);
}
);
layerId = UUID0;
shapes = (
{
closed = 1;
nodes = (
(406,-10,o),
(485,61,o),
(485,165,cs),
(485,259,o),
(433,316,o),
(328,380,cs),
(249,428,o),
(225,448,o),
(225,481,cs),
(225,511,o),
(249,530,o),
(304,530,cs),
(330,530,o),
(368,528,o),
(399,520,c),
(414,591,l),
(378,600,o),
(336,603,o),
(302,603,cs),
(198,603,o),
(145,549,o),
(145,483,cs),
(145,420,o),
(195,377,o),
(244,348,c),
(260,334,l),
(364,274,o),
(403,238,o),
(403,167,cs),
(403,92,o),
(342,63,o),
(263,63,cs),
(175,63,o),
(126,103,o),
(126,173,cs),
(126,259,o),
(202,306,o),
(299,306,cs),
(309,306,o),
(346,305,o),
(370,303,c),
(356,348,l),
(276,367,l),
(126,354,o),
(44,276,o),
(44,175,cs),
(44,68,o),
(117,-10,o),
(265,-10,cs)
);
}
);
width = 517;
},
{
anchors = (
{
name = b.nuktagujr;
pos = (317,0);
},
{
name = b.uvattulowgujr;
pos = (258,0);
},
{
name = t.candrabindugujr;
pos = (340,603);
},
{
name = t.candrabinduleftgujr;
pos = (238,603);
}
);
layerId = "E837EE1F-8268-496F-836F-3DC25D441D7C";
shapes = (
{
closed = 1;
nodes = (
(362,-10,o),
(437,54,o),
(437,155,cs),
(437,242,o),
(390,295,o),
(289,358,cs),
(207,409,o),
(178,440,o),
(178,491,cs),
(178,543,o),
(219,576,o),
(291,576,cs),
(324,576,o),
(347,572,o),
(374,565,c),
(380,591,l),
(345,599,o),
(320,602,o),
(291,602,cs),
(206,602,o),
(151,559,o),
(151,491,cs),
(151,425,o),
(196,386,o),
(265,344,c),
(285,331,l),
(367,281,o),
(410,233,o),
(410,156,cs),
(410,68,o),
(347,16,o),
(243,16,cs),
(134,16,o),
(79,80,o),
(79,163,cs),
(79,261,o),
(161,326,o),
(274,326,cs),
(301,326,o),
(316,325,o),
(330,323,c),
(314,339,l),
(274,350,l),
(146,350,o),
(52,275,o),
(52,163,cs),
(52,62,o),
(123,-10,o),
(243,-10,cs)
);
}
);
width = 477;
},
{
anchors = (
{
name = b.nuktagujr;
pos = (285,0);
},
{
name = b.uvattulowgujr;
pos = (289,0);
},
{
name = t.candrabindugujr;
pos = (294,603);
},
{
name = t.candrabinduleftgujr;
pos = (214,603);
}
);
layerId = "B78FB6F8-4888-4A20-9211-9CA65DB7E66A";
shapes = (
{
closed = 1;
nodes = (
(453,-10,o),
(548,57,o),
(548,178,cs),
(548,273,o),
(492,331,o),
(381,390,cs),
(324,420,o),
(311,428,o),
(311,443,cs),
(311,457,o),
(322,464,o),
(355,464,cs),
(384,464,o),
(422,456,o),
(441,451,c),
(472,590,l),
(434,598,o),
(384,603,o),
(337,603,cs),
(218,603,o),
(138,549,o),
(138,459,cs),
(138,392,o),
(166,353,o),
(226,309,c),
(277,278,l),
(350,248,o),
(371,219,o),
(371,186,cs),
(371,149,o),
(341,128,o),
(288,128,cs),
(235,128,o),
(203,151,o),
(203,195,cs),
(203,246,o),
(249,272,o),
(321,272,cs),
(340,272,o),
(356,271,o),
(373,269,c),
(374,312,l),
(285,394,l),
(131,390,o),
(26,317,o),
(26,195,cs),
(26,68,o),
(125,-10,o),
(291,-10,cs)
);
}
);
width = 567;
},
{
anchors = (
{
name = b.nuktagujr;
pos = (220,0);
},
{
name = b.uvattulowgujr;
pos = (219,0);
},
{
name = t.candrabindugujr;
pos = (224,603);
},
{
name = t.candrabinduleftgujr;
pos = (165,603);
}
);
layerId = "5004026F-C7B4-4F0F-B515-084BD38674AE";
shapes = (
{
closed = 1;
nodes = (
(384,-10,o),
(448,62,o),
(448,160,cs),
(448,250,o),
(409,296,o),
(320,374,cs),
(273,415,o),
(263,424,o),
(263,442,cs),
(263,453,o),
(272,464,o),
(300,464,cs),
(324,464,o),
(342,461,o),
(358,456,c),
(387,592,l),
(360,598,o),
(327,602,o),
(291,602,cs),
(176,602,o),
(104,547,o),
(104,464,cs),
(104,402,o),
(130,370,o),
(169,329,c),
(217,281,l),
(271,242,o),
(290,209,o),
(290,177,cs),
(290,145,o),
(269,128,o),
(236,128,cs),
(204,128,o),
(183,147,o),
(183,186,cs),
(183,235,o),
(217,269,o),
(267,269,cs),
(290,269,o),
(307,268,o),
(316,266,c),
(318,306,l),
(223,386,l),
(96,366,o),
(24,289,o),
(24,186,cs),
(24,78,o),
(94,-10,o),
(238,-10,cs)
);
}
);
width = 459;
},
{
anchors = (
{
name = b.nuktagujr;
pos = (223,0);
},
{
name = b.uvattulowgujr;
pos = (193,0);
},
{
name = t.candrabindugujr;
pos = (251,603);
},
{
name = t.candrabinduleftgujr;
pos = (179,603);
}
);
layerId = "E5C9A917-AA5F-4208-B63B-4C942A1E52F0";
shapes = (
{
closed = 1;
nodes = (
(282,-10,o),
(337,46,o),
(337,148,cs),
(337,240,o),
(293,290,o),
(222,356,cs),
(160,414,o),
(135,441,o),
(135,496,cs),
(135,550,o),
(178,576,o),
(230,576,cs),
(249,576,o),
(268,574,o),
(284,569,c),
(290,595,l),
(270,600,o),
(251,602,o),
(230,602,cs),
(159,602,o),
(108,562,o),
(108,496,cs),
(108,438,o),
(140,398,o),
(198,345,c),
(207,334,l),
(276,275,o),
(310,227,o),
(310,148,cs),
(310,64,o),
(269,16,o),
(189,16,cs),
(111,16,o),
(67,72,o),
(67,155,cs),
(67,274,o),
(146,323,o),
(225,323,cs),
(240,323,o),
(245,323,o),
(254,321,c),
(231,342,l),
(212,348,l),
(125,341,o),
(40,287,o),
(40,154,cs),
(40,50,o),
(104,-10,o),
(189,-10,cs)
);
}
);
width = 368;
},
{
anchors = (
{
name = b.nuktagujr;
pos = (220,0);
},
{
name = b.uvattulowgujr;
pos = (191,0);
},
{
name = t.candrabindugujr;
pos = (249,603);
},
{
name = t.candrabinduleftgujr;
pos = (173,603);
}
);
layerId = "0BA4C117-BB0E-400D-AA02-27C87BA635D5";
shapes = (
{
closed = 1;
nodes = (
(315,-10,o),
(381,49,o),
(381,156,cs),
(381,241,o),
(336,299,o),
(263,366,cs),
(198,425,o),
(176,447,o),
(176,482,cs),
(176,517,o),
(207,534,o),
(250,534,cs),
(270,534,o),
(294,531,o),
(308,527,c),
(324,593,l),
(303,599,o),
(273,602,o),
(245,602,cs),
(160,602,o),
(101,560,o),
(101,483,cs),
(101,423,o),
(140,383,o),
(186,341,c),
(215,315,l),
(266,276,o),
(305,224,o),
(305,161,cs),
(305,97,o),
(274,58,o),
(207,58,cs),
(146,58,o),
(108,93,o),
(108,162,cs),
(108,255,o),
(175,304,o),
(245,304,c),
(258,304,o),
(266,303,o),
(278,301,c),
(276,329,l),
(226,366,l),
(135,355,o),
(32,296,o),
(32,161,cs),
(32,62,o),
(92,-10,o),
(208,-10,cs)
);
}
);
width = 404;
}
);
script = gujarati;
unicode = 2720;
},
{
glyphname = ddagujr;
lastChange = "2021-10-13 09:53:05 +0000";
layers = (
{
anchors = (
{
name = b.nuktagujr;
pos = (286,0);
},
{
name = b.uvattulowgujr;
pos = (237,0);
},
{
name = t.candrabindugujr;
pos = (309,603);
},
{
name = t.candrabinduleftgujr;
pos = (218,603);
}
);
layerId = UUID0;
shapes = (
{
closed = 1;
nodes = (
(385,-10,o),
(450,56,o),
(450,153,cs),
(450,239,o),
(403,291,o),
(300,354,cs),
(220,403,o),
(193,422,o),
(193,464,cs),
(193,505,o),
(225,530,o),
(285,530,cs),
(316,530,o),
(341,529,o),
(376,521,c),
(391,591,l),
(355,600,o),
(320,603,o),
(286,603,cs),
(175,603,o),
(112,545,o),
(112,466,cs),
(112,399,o),
(144,354,o),
(241,296,cs),
(336,239,o),
(365,208,o),
(365,150,cs),
(365,94,o),
(325,63,o),
(261,63,cs),
(195,63,o),
(142,93,o),
(79,188,c),
(9,145,l),
(68,56,o),
(144,-10,o),
(264,-10,cs)
);
}
);
width = 481;
},
{
anchors = (
{
name = b.nuktagujr;
pos = (292,0);
},
{
name = b.uvattulowgujr;
pos = (244,0);
},
{
name = t.candrabindugujr;
pos = (312,603);
},
{
name = t.candrabinduleftgujr;
pos = (212,603);
}
);
layerId = "E837EE1F-8268-496F-836F-3DC25D441D7C";
shapes = (
{
closed = 1;
nodes = (
(337,-10,o),
(397,50,o),
(397,138,cs),
(397,220,o),
(356,270,o),
(260,331,cs),
(177,384,o),
(140,423,o),
(140,481,cs),
(140,542,o),
(186,576,o),
(261,576,cs),
(291,576,o),
(316,573,o),
(342,567,c),
(348,593,l),
(317,599,o),
(292,602,o),
(261,602,cs),
(170,602,o),
(113,556,o),
(113,481,cs),
(113,412,o),
(154,367,o),
(246,308,cs),
(338,249,o),
(370,211,o),
(370,138,cs),
(370,63,o),
(321,16,o),
(245,16,cs),
(150,16,o),
(91,72,o),
(37,162,c),
(13,147,l),
(77,44,o),
(142,-10,o),
(244,-10,cs)
);
}
);
width = 435;
},
{
anchors = (
{
name = b.nuktagujr;
pos = (273,0);
},
{
name = b.uvattulowgujr;
pos = (283,0);
},
{
name = t.candrabindugujr;
pos = (279,603);
},
{
name = t.candrabinduleftgujr;
pos = (211,603);
}
);
layerId = "B78FB6F8-4888-4A20-9211-9CA65DB7E66A";
shapes = (
{
closed = 1;
nodes = (
(445,-10,o),
(525,66,o),
(525,173,cs),
(525,259,o),
(480,314,o),
(371,371,cs),
(302,407,o),
(287,415,o),
(287,436,cs),
(287,455,o),
(307,464,o),
(342,464,cs),
(371,464,o),
(398,460,o),
(420,455,c),
(450,589,l),
(415,597,o),
(376,602,o),
(333,602,cs),
(195,602,o),
(110,535,o),
(110,439,cs),
(110,365,o),
(155,315,o),
(249,265,cs),
(323,226,o),
(344,205,o),
(344,171,cs),
(344,144,o),
(327,128,o),
(289,128,cs),
(232,128,o),
(179,160,o),
(134,220,c),
(7,141,l),
(76,43,o),
(166,-10,o),
(301,-10,cs)
);
}
);
width = 541;
},
{
anchors = (
{
name = b.nuktagujr;
pos = (211,0);
},
{
name = b.uvattulowgujr;
pos = (192,0);
},
{
name = t.candrabindugujr;
pos = (239,603);
},
{
name = t.candrabinduleftgujr;
pos = (171,603);
}
);
layerId = "E5C9A917-AA5F-4208-B63B-4C942A1E52F0";
shapes = (
{
closed = 1;
nodes = (
(265,-10,o),
(312,48,o),
(312,125,cs),
(312,197,o),
(285,244,o),
(207,329,cs),
(146,395,o),
(124,430,o),
(124,484,cs),
(124,540,o),
(162,576,o),
(219,576,cs),
(238,576,o),
(257,573,o),
(271,569,c),
(277,595,l),
(258,599,o),
(241,602,o),
(219,602,cs),
(145,602,o),
(97,555,o),
(97,484,cs),
(97,421,o),
(125,379,o),
(188,312,cs),
(260,236,o),
(285,192,o),
(285,125,cs),
(285,63,o),
(250,16,o),
(188,16,cs),
(116,16,o),
(78,65,o),
(39,148,c),
(15,137,l),
(60,42,o),
(106,-10,o),
(188,-10,cs)
);
}
);
width = 342;
},
{
anchors = (
{
name = b.nuktagujr;
pos = (217,0);
},
{
name = b.uvattulowgujr;
pos = (219,0);
},
{
name = t.candrabindugujr;
pos = (216,603);
},
{
name = t.candrabinduleftgujr;
pos = (162,603);
}
);
layerId = "5004026F-C7B4-4F0F-B515-084BD38674AE";
shapes = (
{
closed = 1;
nodes = (
(368,-10,o),
(438,48,o),
(438,153,cs),
(438,233,o),
(396,289,o),
(307,365,cs),
(259,406,o),
(248,416,o),
(248,435,cs),
(248,453,o),
(264,464,o),
(294,464,cs),
(315,464,o),
(332,460,o),
(347,456,c),
(376,592,l),
(349,599,o),
(319,602,o),
(285,602,cs),
(164,602,o),
(89,538,o),
(89,447,cs),
(89,376,o),
(126,331,o),
(197,270,cs),
(263,213,o),
(276,195,o),
(276,166,cs),
(276,140,o),
(261,128,o),
(238,128,cs),
(202,128,o),
(170,156,o),
(135,224,c),
(10,161,l),
(55,58,o),
(133,-10,o),
(253,-10,cs)
);
}
);
width = 449;
},
{
anchors = (
{
name = b.nuktagujr;
pos = (214,0);
},
{
name = b.uvattulowgujr;
pos = (185,0);
},
{
name = t.candrabindugujr;
pos = (240,603);
},
{
name = t.candrabinduleftgujr;
pos = (171,603);
}
);
layerId = "0BA4C117-BB0E-400D-AA02-27C87BA635D5";
shapes = (
{
closed = 1;
nodes = (
(307,-10,o),
(364,44,o),
(364,127,cs),
(364,192,o),
(345,239,o),
(247,342,cs),
(183,409,o),
(166,428,o),
(166,469,cs),
(166,508,o),
(196,534,o),
(247,534,cs),
(268,534,o),
(285,531,o),
(304,526,c),
(319,591,l),
(294,598,o),
(268,602,o),
(242,602,cs),
(146,602,o),
(90,550,o),
(90,473,cs),
(90,417,o),
(111,373,o),
(194,290,cs),
(268,216,o),
(286,176,o),
(286,132,cs),
(286,83,o),
(261,58,o),
(212,58,cs),
(153,58,o),
(118,94,o),
(78,172,c),
(11,141,l),
(51,48,o),
(121,-10,o),
(215,-10,cs)
);
}
);
width = 386;
}
);
script = gujarati;
unicode = 2721;
},
{
glyphname = ddhagujr;
lastChange = "2021-10-13 09:53:05 +0000";
layers = (
{
anchors = (
{
name = b.nuktagujr;
pos = (314,0);
},
{
name = b.uvattulowgujr;
pos = (269,0);
},
{
name = t.candrabindugujr;
pos = (300,603);
},
{
name = t.candrabinduleftgujr;
pos = (227,603);
}
);
layerId = "E837EE1F-8268-496F-836F-3DC25D441D7C";
shapes = (
{
closed = 1;
nodes = (
(384,-10,o),
(450,46,o),
(450,133,cs),
(450,208,o),
(400,246,o),
(340,246,cs),
(268,246,o),
(221,196,o),
(221,130,cs),
(221,79,o),
(240,43,o),
(268,2,c),
(292,12,l),
(263,51,o),
(248,88,o),
(248,128,cs),
(248,180,o),
(281,220,o),
(340,220,cs),
(386,220,o),
(423,192,o),
(423,133,cs),
(423,62,o),
(365,15,o),
(268,15,cs),
(254,15,ls),
(146,15,o),
(81,62,o),
(81,152,cs),
(81,230,o),
(124,265,o),
(195,308,cs),
(258,346,ls),
(335,392,o),
(368,427,o),
(368,490,cs),
(368,559,o),
(323,603,o),
(229,603,cs),
(186,603,o),
(137,592,o),
(99,578,c),
(109,552,l),
(146,566,o),
(190,577,o),
(227,577,cs),
(306,577,o),
(341,546,o),
(341,490,cs),
(341,439,o),
(315,412,o),
(243,368,cs),
(180,330,ls),
(100,282,o),
(54,235,o),
(54,153,cs),
(54,44,o),
(131,-10,o),
(259,-10,cs)
);
}
);
width = 480;
},
{
anchors = (
{
name = b.nuktagujr;
pos = (300,0);
},
{
name = b.uvattulowgujr;
pos = (254,0);
},
{
name = t.candrabindugujr;
pos = (294,603);
},
{
name = t.candrabinduleftgujr;
pos = (213,603);
}
);
layerId = UUID0;
shapes = (
{
closed = 1;
nodes = (
(433,-10,o),
(496,58,o),
(496,140,cs),
(496,220,o),
(444,269,o),
(360,269,cs),
(279,269,o),
(220,220,o),
(220,144,cs),
(220,92,o),
(236,57,o),
(264,9,c),
(334,22,l),
(307,62,o),
(294,88,o),
(294,127,cs),
(294,172,o),
(321,199,o),
(364,199,cs),
(399,199,o),
(420,177,o),
(420,141,cs),
(420,86,o),
(366,60,o),
(291,60,cs),
(276,60,ls),
(168,60,o),
(125,106,o),
(125,171,cs),
(125,228,o),
(161,260,o),
(239,299,cs),
(261,310,ls),
(351,355,o),
(409,392,o),
(409,474,cs),
(409,548,o),
(353,603,o),
(247,603,cs),
(187,603,o),
(147,591,o),
(102,572,c),
(127,505,l),
(165,522,o),
(198,530,o),
(245,530,cs),
(294,530,o),
(329,512,o),
(329,472,cs),
(329,438,o),
(309,419,o),
(233,381,cs),
(205,367,ls),
(103,316,o),
(44,268,o),
(44,172,cs),
(44,69,o),
(116,-10,o),
(278,-10,cs)
);
}
);
width = 516;
},
{
anchors = (
{
name = b.nuktagujr;
pos = (281,0);
},
{
name = b.uvattulowgujr;
pos = (287,0);
},
{
name = t.candrabindugujr;
pos = (257,603);
},
{
name = t.candrabinduleftgujr;
pos = (191,603);
}
);
layerId = "B78FB6F8-4888-4A20-9211-9CA65DB7E66A";
shapes = (
{
closed = 1;
nodes = (
(460,-10,o),
(551,43,o),
(551,147,cs),
(551,234,o),
(491,288,o),
(388,288,cs),
(297,288,o),
(229,241,o),
(229,156,cs),
(229,120,o),
(246,75,o),
(267,42,c),
(376,58,l),
(356,83,o),
(343,107,o),
(343,136,cs),
(343,164,o),
(359,182,o),
(384,182,cs),
(406,182,o),
(415,169,o),
(415,152,cs),
(415,120,o),
(380,109,o),
(337,109,cs),
(279,109,ls),
(216,109,o),
(180,133,o),
(180,176,cs),
(180,218,o),
(207,242,o),
(272,274,cs),
(356,316,ls),
(436,356,o),
(469,393,o),
(469,457,cs),
(469,548,o),
(391,602,o),
(269,602,cs),
(203,602,o),
(140,592,o),
(80,568,c),
(126,440,l),
(171,457,o),
(219,467,o),
(256,467,cs),
(284,467,o),
(293,461,o),
(293,449,cs),
(293,434,o),
(283,426,o),
(213,393,cs),
(182,378,ls),
(69,324,o),
(24,267,o),
(24,186,cs),
(24,61,o),
(111,-10,o),
(302,-10,cs)
);
}
);
width = 551;
},
{
anchors = (
{
name = b.nuktagujr;
pos = (235,0);
},
{
name = b.uvattulowgujr;
pos = (209,0);
},
{
name = t.candrabindugujr;
pos = (230,603);
},
{
name = t.candrabinduleftgujr;
pos = (175,603);
}
);
layerId = "E5C9A917-AA5F-4208-B63B-4C942A1E52F0";
shapes = (
{
closed = 1;
nodes = (
(298,-10,o),
(358,51,o),
(358,138,cs),
(358,205,o),
(326,248,o),
(269,248,cs),
(206,248,o),
(171,196,o),
(171,132,cs),
(171,79,o),
(185,44,o),
(205,3,c),
(230,11,l),
(208,50,o),
(198,88,o),
(198,131,cs),
(198,181,o),
(222,222,o),
(269,222,cs),
(315,222,o),
(331,182,o),
(331,138,cs),
(331,63,o),
(281,15,o),
(208,15,cs),
(202,15,ls),
(121,15,o),
(67,69,o),
(67,152,cs),
(67,212,o),
(91,256,o),
(163,315,cs),
(208,352,ls),
(259,394,o),
(296,432,o),
(296,495,cs),
(296,554,o),
(256,602,o),
(183,602,cs),
(150,602,o),
(114,594,o),
(83,582,c),
(92,556,l),
(122,568,o),
(156,576,o),
(183,576,cs),
(243,576,o),
(269,542,o),
(269,495,cs),
(269,451,o),
(245,416,o),
(190,371,cs),
(145,334,ls),
(70,273,o),
(40,221,o),
(40,152,cs),
(40,58,o),
(102,-10,o),
(205,-10,cs)
);
}
);
width = 380;
},
{
anchors = (
{
name = b.nuktagujr;
pos = (224,0);
},
{
name = b.uvattulowgujr;
pos = (227,0);
},
{
name = t.candrabindugujr;
pos = (206,603);
},
{
name = t.candrabinduleftgujr;
pos = (160,603);
}
);
layerId = "5004026F-C7B4-4F0F-B515-084BD38674AE";
shapes = (
{
closed = 1;
nodes = (
(394,-10,o),
(471,50,o),
(471,147,cs),
(471,231,o),
(418,279,o),
(334,279,cs),
(256,279,o),
(199,233,o),
(199,151,cs),
(199,113,o),
(214,68,o),
(243,32,c),
(335,56,l),
(312,86,o),
(300,109,o),
(300,140,cs),
(300,168,o),
(312,184,o),
(330,184,cs),
(348,184,o),
(354,170,o),
(354,150,cs),
(354,116,o),
(323,104,o),
(274,104,cs),
(243,104,ls),
(202,104,o),
(165,124,o),
(165,168,cs),
(165,210,o),
(191,234,o),
(256,279,cs),
(304,312,ls),
(366,355,o),
(398,399,o),
(398,461,cs),
(398,548,o),
(337,602,o),
(224,602,cs),
(165,602,o),
(118,593,o),
(72,578,c),
(116,450,l),
(151,463,o),
(179,469,o),
(207,469,cs),
(231,469,o),
(241,463,o),
(241,449,cs),
(241,435,o),
(231,428,o),
(200,407,cs),
(144,369,ls),
(64,314,o),
(24,254,o),
(24,177,cs),
(24,52,o),
(113,-10,o),
(258,-10,cs)
);
}
);
width = 471;
},
{
anchors = (
{
name = b.nuktagujr;
pos = (228,0);
},
{
name = b.uvattulowgujr;
pos = (201,0);
},
{
name = t.candrabindugujr;
pos = (225,603);
},
{
name = t.candrabinduleftgujr;
pos = (167,603);
}
);
layerId = "0BA4C117-BB0E-400D-AA02-27C87BA635D5";
shapes = (
{
closed = 1;
nodes = (
(330,-10,o),
(396,51,o),
(396,148,cs),
(396,220,o),
(356,267,o),
(286,267,cs),
(217,267,o),
(171,218,o),
(171,146,cs),
(171,103,o),
(184,64,o),
(213,10,c),
(276,22,l),
(249,65,o),
(238,94,o),
(238,135,cs),
(238,175,o),
(258,202,o),
(287,202,cs),
(315,202,o),
(327,179,o),
(327,146,cs),
(327,91,o),
(294,55,o),
(231,55,cs),
(217,55,ls),
(150,55,o),
(107,90,o),
(107,159,cs),
(107,218,o),
(134,257,o),
(199,305,cs),
(218,319,ls),
(285,368,o),
(327,408,o),
(327,475,cs),
(327,546,o),
(275,602,o),
(183,602,cs),
(148,602,o),
(106,593,o),
(72,579,c),
(95,515,l),
(121,527,o),
(150,534,o),
(178,534,cs),
(224,534,o),
(252,515,o),
(252,475,cs),
(252,437,o),
(220,411,o),
(173,375,cs),
(152,359,ls),
(66,293,o),
(32,236,o),
(32,164,cs),
(32,59,o),
(97,-10,o),
(219,-10,cs)
);
}
);
width = 412;
}
);
script = gujarati;
unicode = 2722;
},
{
glyphname = nnagujr;
lastChange = "2024-05-22 09:46:33 +0000";
layers = (
{
anchors = (
{
name = b.nuktagujr;
pos = (225,0);
}
);
layerId = UUID0;
shapes = (
{
closed = 1;
nodes = (
(448,-113,o),
(472,-76,o),
(472,-30,cs),
(472,32,o),
(439,70,o),
(346,113,cs),
(207,177,ls),
(155,201,o),
(155,233,o),
(155,291,cs),
(155,592,l),
(75,603,l),
(75,276,ls),
(75,191,o),
(90,147,o),
(163,114,cs),
(302,52,ls),
(364,24,o),
(388,1,o),
(388,-35,cs),
(388,-58,o),
(377,-77,o),
(360,-97,c),
(425,-142,l)
);
},
{
closed = 1;
nodes = (
(471,210,o),
(555,242,o),
(555,404,cs),
(555,535,o),
(485,603,o),
(385,603,cs),
(346,603,o),
(302,595,o),
(259,574,c),
(284,509,l),
(314,525,o),
(345,532,o),
(380,532,cs),
(438,532,o),
(475,494,o),
(475,404,cs),
(475,308,o),
(440,282,o),
(396,282,cs),
(345,282,o),
(310,314,o),
(277,355,c),
(217,310,l),
(268,246,o),
(335,210,o),
(398,210,cs)
);
},
{
closed = 1;
nodes = (
(806,0,l),
(813,73,l),
(786,73,o),
(753,73,o),
(739,92,cs),
(731,103,o),
(727,116,o),
(727,152,cs),
(727,592,l),
(647,603,l),
(647,148,ls),
(647,89,o),
(656,60,o),
(678,37,cs),
(701,13,o),
(738,0,o),
(795,0,cs)
);
}
);
width = 821;
},
{
anchors = (
{
name = b.nuktagujr;
pos = (205,0);
}
);
layerId = "E837EE1F-8268-496F-836F-3DC25D441D7C";
shapes = (
{
closed = 1;
nodes = (
(424,-101,o),
(442,-69,o),
(442,-35,cs),
(442,9,o),
(422,40,o),
(343,78,cs),
(184,154,ls),
(121,184,o),
(108,209,o),
(108,276,cs),
(108,598,l),
(82,602,l),
(82,277,ls),
(82,201,o),
(101,167,o),
(167,135,cs),
(322,60,ls),
(403,21,o),
(415,0,o),
(415,-35,cs),
(415,-62,o),
(400,-91,o),
(380,-117,c),
(401,-132,l)
);
},
{
closed = 1;
nodes = (
(475,223,o),
(523,297,o),
(523,407,cs),
(523,518,o),
(471,602,o),
(364,602,cs),
(327,602,o),
(291,594,o),
(253,578,c),
(264,552,l),
(301,568,o),
(334,576,o),
(364,576,cs),
(455,576,o),
(496,505,o),
(496,407,cs),
(496,310,o),
(459,249,o),
(376,249,cs),
(317,249,o),
(270,284,o),
(234,342,c),
(211,327,l),
(254,261,o),
(310,223,o),
(376,223,cs)
);
},
{
closed = 1;
nodes = (
(776,0,l),
(779,26,l),
(746,26,o),
(723,29,o),
(705,41,cs),
(683,56,o),
(673,80,o),
(673,129,cs),
(673,598,l),
(647,602,l),
(647,128,ls),
(647,74,o),
(662,43,o),
(686,23,cs),
(707,6,o),
(733,0,o),
(767,0,cs)
);
}
);
width = 781;
},
{
anchors = (
{
name = b.nuktagujr;
pos = (233,0);
}
);
layerId = "B78FB6F8-4888-4A20-9211-9CA65DB7E66A";
shapes = (
{
closed = 1;
nodes = (
(532,-112,o),
(555,-76,o),
(555,-17,cs),
(555,55,o),
(516,95,o),
(406,142,cs),
(312,182,ls),
(254,207,o),
(237,227,o),
(237,295,cs),
(237,592,l),
(60,602,l),
(60,238,ls),
(60,172,o),
(85,127,o),
(164,91,cs),
(325,18,ls),
(355,4,o),
(369,-10,o),
(369,-32,cs),
(369,-49,o),
(359,-64,o),
(341,-81,c),
(473,-176,l)
);
},
{
closed = 1;
nodes = (
(601,184,o),
(675,264,o),
(675,392,cs),
(675,521,o),
(594,602,o),
(467,602,cs),
(412,602,o),
(366,593,o),
(314,571,c),
(361,451,l),
(391,464,o),
(415,471,o),
(445,471,cs),
(485,471,o),
(505,449,o),
(505,399,cs),
(505,354,o),
(491,331,o),
(458,331,cs),
(422,331,o),
(397,362,o),
(380,392,c),
(262,319,l),
(312,234,o),
(385,184,o),
(478,184,cs)
);
},
{
closed = 1;
nodes = (
(954,0,l),
(967,138,l),
(938,138,o),
(921,141,o),
(910,151,cs),
(898,162,o),
(895,180,o),
(895,209,cs),
(895,592,l),
(718,602,l),
(718,194,ls),
(718,121,o),
(731,73,o),
(763,42,cs),
(794,12,o),
(843,0,o),
(914,0,cs)
);
}
);
width = 970;
},
{
anchors = (
{
name = b.nuktagujr;
pos = (152,0);
}
);
layerId = "E5C9A917-AA5F-4208-B63B-4C942A1E52F0";
shapes = (
{
closed = 1;
nodes = (
(324,-114,o),
(340,-89,o),
(340,-54,cs),
(340,-11,o),
(322,18,o),
(286,45,cs),
(139,154,ls),
(85,194,o),
(85,227,o),
(85,276,cs),
(85,598,l),
(59,602,l),
(59,277,ls),
(59,204,o),
(71,171,o),
(120,135,cs),
(268,26,ls),
(303,0,o),
(314,-19,o),
(314,-54,cs),
(314,-79,o),
(301,-102,o),
(278,-125,c),
(300,-141,l)
);
},
{
closed = 1;
nodes = (
(350,223,o),
(384,296,o),
(384,409,cs),
(384,523,o),
(346,602,o),
(260,602,cs),
(233,602,o),
(205,595,o),
(180,584,c),
(190,560,l),
(212,569,o),
(236,576,o),
(260,576,cs),
(331,576,o),
(357,506,o),
(357,409,cs),
(357,311,o),
(333,249,o),
(275,249,cs),
(226,249,o),
(194,283,o),
(171,357,c),
(147,347,l),
(174,259,o),
(218,223,o),
(276,223,cs)
);
},
{
closed = 1;
nodes = (
(566,0,l),
(569,26,l),
(544,26,o),
(526,30,o),
(514,39,cs),
(500,50,o),
(494,69,o),
(494,98,cs),
(494,598,l),
(468,602,l),
(468,98,ls),
(468,61,o),
(477,35,o),
(496,19,cs),
(511,6,o),
(531,0,o),
(558,0,cs)
);
}
);
width = 572;
},
{
anchors = (
{
name = b.nuktagujr;
pos = (201,0);
}
);
layerId = "5004026F-C7B4-4F0F-B515-084BD38674AE";
shapes = (
{
closed = 1;
nodes = (
(457,-131,o),
(489,-85,o),
(489,-26,cs),
(489,29,o),
(461,68,o),
(398,107,cs),
(254,196,ls),
(222,216,o),
(204,233,o),
(204,277,cs),
(204,592,l),
(45,602,l),
(45,265,ls),
(45,179,o),
(78,140,o),
(142,100,cs),
(290,8,ls),
(316,-8,o),
(323,-24,o),
(323,-43,cs),
(323,-63,o),
(311,-81,o),
(300,-96,c),
(420,-172,l)
);
},
{
closed = 1;
nodes = (
(503,184,o),
(553,266,o),
(553,391,cs),
(553,508,o),
(494,602,o),
(374,602,cs),
(338,602,o),
(299,593,o),
(267,578,c),
(309,462,l),
(323,468,o),
(337,472,o),
(353,472,cs),
(390,472,o),
(404,442,o),
(404,391,cs),
(404,350,o),
(398,322,o),
(378,322,cs),
(359,322,o),
(347,343,o),
(334,384,c),
(222,342,l),
(247,256,o),
(297,184,o),
(399,184,cs)
);
},
{
closed = 1;
nodes = (
(782,0,l),
(788,138,l),
(774,138,o),
(764,140,o),
(757,146,cs),
(749,153,o),
(746,163,o),
(746,180,cs),
(746,592,l),
(587,602,l),
(587,150,ls),
(587,98,o),
(601,59,o),
(630,34,cs),
(656,11,o),
(693,0,o),
(741,0,cs)
);
}
);
width = 798;
},
{
anchors = (
{
name = b.nuktagujr;
pos = (175,0);
}
);
layerId = "0BA4C117-BB0E-400D-AA02-27C87BA635D5";
shapes = (
{
closed = 1;
nodes = (
(377,-120,o),
(398,-86,o),
(398,-42,cs),
(398,12,o),
(370,45,o),
(332,70,cs),
(185,165,ls),
(144,192,o),
(128,223,o),
(128,273,cs),
(128,592,l),
(53,602,l),
(53,259,ls),
(53,189,o),
(72,155,o),
(123,122,cs),
(274,24,ls),
(310,1,o),
(321,-18,o),
(321,-47,cs),
(321,-74,o),
(306,-96,o),
(284,-118,c),
(342,-159,l)
);
},
{
closed = 1;
nodes = (
(416,209,o),
(454,288,o),
(454,402,cs),
(454,518,o),
(410,602,o),
(309,602,cs),
(277,602,o),
(246,595,o),
(217,582,c),
(239,520,l),
(258,528,o),
(281,534,o),
(300,534,cs),
(356,534,o),
(379,481,o),
(379,402,cs),
(379,319,o),
(361,277,o),
(315,277,cs),
(281,277,o),
(258,308,o),
(237,367,c),
(177,342,l),
(207,253,o),
(255,209,o),
(324,209,cs)
);
},
{
closed = 1;
nodes = (
(659,0,l),
(663,68,l),
(639,68,o),
(627,72,o),
(618,79,cs),
(605,89,o),
(600,104,o),
(600,129,cs),
(600,592,l),
(525,602,l),
(525,117,ls),
(525,77,o),
(535,45,o),
(558,25,cs),
(578,8,o),
(604,0,o),
(639,0,cs)
);
}
);
width = 671;
}
);
metricRight = aavowelsigngujr;
script = gujarati;
unicode = 2723;
},
{
glyphname = tagujr;
lastChange = "2024-05-22 09:46:33 +0000";
layers = (
{
anchors = (
{
name = b.nuktagujr;
pos = (233,14);
}
);
layerId = UUID0;
shapes = (
{
closed = 1;
nodes = (
(262,68,l),
(177,137,o),
(125,192,o),
(125,261,cs),
(125,291,o),
(136,315,o),
(156,331,cs),
(182,351,o),
(209,360,o),
(300,360,cs),
(418,360,l),
(418,433,l),
(306,433,ls),
(188,433,o),
(133,416,o),
(93,381,cs),
(61,353,o),
(43,313,o),
(43,261,cs),
(43,165,o),
(119,84,o),
(209,12,c)
);
},
{
closed = 1;
nodes = (
(557,0,l),
(564,73,l),
(537,73,o),
(504,73,o),
(490,92,cs),
(482,103,o),
(478,116,o),
(478,152,cs),
(478,592,l),
(398,603,l),
(398,148,ls),
(398,89,o),
(407,60,o),
(429,37,cs),
(452,13,o),
(489,0,o),
(546,0,cs)
);
}
);
width = 572;
},
{
anchors = (
{
name = b.nuktagujr;
pos = (215,14);
}
);
layerId = "E837EE1F-8268-496F-836F-3DC25D441D7C";
shapes = (
{
closed = 1;
nodes = (
(243,32,l),
(152,105,o),
(79,172,o),
(79,262,cs),
(79,301,o),
(92,329,o),
(115,349,cs),
(146,375,o),
(185,386,o),
(269,386,cs),
(415,386,l),
(415,412,l),
(274,412,ls),
(181,412,o),
(132,398,o),
(96,367,cs),
(68,343,o),
(52,308,o),
(52,262,cs),
(52,161,o),
(128,92,o),
(226,11,c)
);
},
{
closed = 1;
nodes = (
(529,0,l),
(532,26,l),
(499,26,o),
(476,29,o),
(458,41,cs),
(436,56,o),
(426,80,o),
(426,129,cs),
(426,598,l),
(400,602,l),
(400,128,ls),
(400,74,o),
(415,43,o),
(439,23,cs),
(460,6,o),
(486,0,o),
(520,0,cs)
);
}
);
width = 534;
},
{
anchors = (
{
name = b.nuktagujr;
pos = (268,15);
}
);
layerId = "B78FB6F8-4888-4A20-9211-9CA65DB7E66A";
shapes = (
{
closed = 1;
nodes = (
(309,104,l),
(240,161,o),
(202,197,o),
(202,254,cs),
(202,273,o),
(207,287,o),
(218,297,cs),
(235,312,o),
(255,318,o),
(306,318,cs),
(428,318,l),
(428,456,l),
(297,456,ls),
(191,456,o),
(139,441,o),
(93,407,cs),
(51,376,o),
(26,331,o),
(26,266,cs),
(26,173,o),
(72,106,o),
(201,-3,c)
);
},
{
closed = 1;
nodes = (
(635,0,l),
(648,138,l),
(619,138,o),
(602,141,o),
(591,151,cs),
(579,162,o),
(576,180,o),
(576,209,cs),
(576,592,l),
(399,602,l),
(399,194,ls),
(399,121,o),
(412,73,o),
(444,42,cs),
(475,12,o),
(524,0,o),
(595,0,cs)
);
}
);
width = 651;
},
{
anchors = (
{
name = b.nuktagujr;
pos = (159,14);
}
);
layerId = "E5C9A917-AA5F-4208-B63B-4C942A1E52F0";
shapes = (
{
closed = 1;
nodes = (
(184,24,l),
(116,98,o),
(65,175,o),
(65,256,cs),
(65,296,o),
(77,327,o),
(100,350,cs),
(126,376,o),
(165,389,o),
(232,389,cs),
(313,389,l),
(313,415,l),
(226,415,ls),
(160,415,o),
(116,400,o),
(85,372,cs),
(55,345,o),
(38,305,o),
(38,256,cs),
(38,169,o),
(90,88,o),
(164,7,c)
);
},
{
closed = 1;
nodes = (
(401,0,l),
(404,26,l),
(378,26,o),
(359,31,o),
(348,42,cs),
(334,56,o),
(329,75,o),
(329,105,cs),
(329,598,l),
(303,602,l),
(303,104,ls),
(303,68,o),
(311,42,o),
(326,25,cs),
(341,8,o),
(364,0,o),
(393,0,cs)
);
}
);
width = 407;
},
{
anchors = (
{
name = b.nuktagujr;
pos = (201,20);
}
);
layerId = "5004026F-C7B4-4F0F-B515-084BD38674AE";
shapes = (
{
closed = 1;
nodes = (
(271,90,l),
(206,153,o),
(178,205,o),
(178,255,cs),
(178,276,o),
(185,292,o),
(197,304,cs),
(211,317,o),
(230,326,o),
(269,326,cs),
(332,326,l),
(332,464,l),
(258,464,ls),
(174,464,o),
(113,441,o),
(77,408,cs),
(40,375,o),
(19,333,o),
(19,278,cs),
(19,180,o),
(65,93,o),
(161,-3,c)
);
},
{
closed = 1;
nodes = (
(496,0,l),
(502,138,l),
(488,138,o),
(478,140,o),
(471,146,cs),
(463,153,o),
(460,163,o),
(460,180,cs),
(460,592,l),
(301,602,l),
(301,150,ls),
(301,98,o),
(315,59,o),
(344,34,cs),
(370,11,o),
(407,0,o),
(455,0,cs)
);
}
);
width = 512;
},
{
anchors = (
{
name = b.nuktagujr;
pos = (183,14);
}
);
layerId = "0BA4C117-BB0E-400D-AA02-27C87BA635D5";
shapes = (
{
closed = 1;
nodes = (
(215,52,l),
(147,122,o),
(105,189,o),
(105,255,cs),
(105,286,o),
(114,311,o),
(131,329,cs),
(151,351,o),
(183,363,o),
(244,363,cs),
(314,363,l),
(314,431,l),
(233,431,ls),
(159,431,o),
(111,415,o),
(77,382,cs),
(48,353,o),
(30,313,o),
(30,263,cs),
(30,169,o),
(82,87,o),
(161,5,c)
);
},
{
closed = 1;
nodes = (
(430,0,l),
(434,68,l),
(410,68,o),
(398,72,o),
(389,79,cs),
(376,89,o),
(371,104,o),
(371,129,cs),
(371,592,l),
(296,602,l),
(296,117,ls),
(296,77,o),
(306,45,o),
(329,25,cs),
(349,8,o),
(375,0,o),
(410,0,cs)
);
}
);
width = 442;
}
);
metricRight = aavowelsigngujr;
script = gujarati;
unicode = 2724;
},
{
glyphname = thagujr;
lastChange = "2024-05-22 09:46:33 +0000";
layers = (
{
anchors = (
{
name = b.nuktagujr;
pos = (236,149);
}
);
layerId = UUID0;
shapes = (
{
closed = 1;
nodes = (
(363,146,o),
(415,174,o),
(455,205,c),
(455,297,l),
(413,254,o),
(359,218,o),
(276,218,cs),
(205,218,o),
(166,249,o),
(143,295,c),
(124,270,l),
(247,317,o),
(318,379,o),
(318,474,cs),
(318,538,o),
(279,603,o),
(178,603,cs),
(88,603,o),
(40,551,o),
(40,491,cs),
(40,443,o),
(63,405,o),
(116,376,c),
(162,430,l),
(127,448,o),
(117,466,o),
(117,489,cs),
(117,517,o),
(140,535,o),
(179,535,cs),
(213,535,o),
(240,516,o),
(240,477,cs),
(240,404,o),
(174,358,o),
(48,321,c),
(86,210,o),
(156,146,o),
(275,146,cs)
);
},
{
closed = 1;
nodes = (
(609,0,l),
(617,73,l),
(589,73,o),
(556,73,o),
(542,92,cs),
(534,103,o),
(530,116,o),
(530,152,cs),
(530,592,l),
(450,603,l),
(450,148,ls),
(450,89,o),
(459,60,o),
(481,37,cs),
(504,13,o),
(541,0,o),
(599,0,cs)
);
}
);
width = 625;
},
{
anchors = (
{
name = b.nuktagujr;
pos = (223,149);
}
);
layerId = "E837EE1F-8268-496F-836F-3DC25D441D7C";
shapes = (
{
closed = 1;
nodes = (
(362,156,o),
(430,193,o),
(469,239,c),
(469,277,l),
(424,220,o),
(361,182,o),
(276,182,cs),
(183,182,o),
(127,216,o),
(89,301,c),
(80,286,l),
(216,331,o),
(278,389,o),
(278,485,cs),
(278,555,o),
(231,602,o),
(163,602,cs),
(92,602,o),
(46,558,o),
(46,493,cs),
(46,447,o),
(70,414,o),
(109,388,c),
(125,408,l),
(92,428,o),
(73,455,o),
(73,493,cs),
(73,543,o),
(108,576,o),
(163,576,cs),
(216,576,o),
(251,540,o),
(251,485,cs),
(251,397,o),
(189,347,o),
(60,307,c),
(99,201,o),
(169,156,o),
(276,156,cs)
);
},
{
closed = 1;
nodes = (
(582,0,l),
(585,26,l),
(552,26,o),
(529,29,o),
(511,41,cs),
(489,56,o),
(479,80,o),
(479,129,cs),
(479,598,l),
(453,602,l),
(453,128,ls),
(453,74,o),
(468,43,o),
(492,23,cs),
(513,6,o),
(539,0,o),
(573,0,cs)
);
}
);
width = 587;
},
{
anchors = (
{
name = b.nuktagujr;
pos = (279,129);
}
);
layerId = "B78FB6F8-4888-4A20-9211-9CA65DB7E66A";
shapes = (
{
closed = 1;
nodes = (
(389,107,o),
(452,124,o),
(501,159,c),
(501,324,l),
(455,270,o),
(386,245,o),
(325,245,cs),
(271,245,o),
(231,261,o),
(204,294,c),
(200,248,l),
(317,282,o),
(401,348,o),
(401,451,cs),
(401,536,o),
(335,602,o),
(213,602,cs),
(100,602,o),
(26,549,o),
(26,463,cs),
(26,419,o),
(46,384,o),
(75,357,c),
(197,420,l),
(187,430,o),
(179,442,o),
(179,458,cs),
(179,479,o),
(193,492,o),
(215,492,cs),
(237,492,o),
(249,475,o),
(249,452,cs),
(249,392,o),
(170,351,o),
(38,317,c),
(67,182,o),
(182,107,o),
(311,107,cs)
);
},
{
closed = 1;
nodes = (
(709,0,l),
(722,138,l),
(693,138,o),
(676,141,o),
(665,151,cs),
(653,162,o),
(650,180,o),
(650,209,cs),
(650,592,l),
(473,602,l),
(473,194,ls),
(473,121,o),
(486,73,o),
(518,42,cs),
(549,12,o),
(598,0,o),
(669,0,cs)
);
}
);
width = 725;
},
{
anchors = (
{
name = b.nuktagujr;
pos = (185,149);
}
);
layerId = "E5C9A917-AA5F-4208-B63B-4C942A1E52F0";
shapes = (
{
closed = 1;
nodes = (
(273,156,o),
(318,184,o),
(349,224,c),
(349,264,l),
(311,212,o),
(273,182,o),
(214,182,cs),
(147,182,o),
(93,223,o),
(70,301,c),
(61,289,l),
(169,334,o),
(226,392,o),
(226,487,cs),
(226,554,o),
(187,602,o),
(130,602,cs),
(71,602,o),
(33,559,o),
(33,496,cs),
(33,455,o),
(51,419,o),
(76,392,c),
(95,408,l),
(74,431,o),
(60,460,o),
(60,496,cs),
(60,544,o),
(87,576,o),
(130,576,cs),
(171,576,o),
(199,540,o),
(199,487,cs),
(199,397,o),
(141,348,o),
(41,308,c),
(70,205,o),
(135,156,o),
(214,156,cs)
);
},
{
closed = 1;
nodes = (
(434,0,l),
(437,26,l),
(412,26,o),
(394,30,o),
(382,39,cs),
(368,50,o),
(362,69,o),
(362,98,cs),
(362,598,l),
(336,602,l),
(336,98,ls),
(336,61,o),
(345,35,o),
(364,19,cs),
(379,6,o),
(399,0,o),
(426,0,cs)
);
}
);
width = 440;
},
{
anchors = (
{
name = b.nuktagujr;
pos = (238,140);
}
);
layerId = "5004026F-C7B4-4F0F-B515-084BD38674AE";
shapes = (
{
closed = 1;
nodes = (
(336,115,o),
(383,129,o),
(421,156,c),
(421,316,l),
(384,273,o),
(337,249,o),
(286,249,cs),
(243,249,o),
(211,265,o),
(187,302,c),
(178,251,l),
(287,289,o),
(348,352,o),
(348,448,cs),
(348,535,o),
(292,602,o),
(185,602,cs),
(89,602,o),
(26,547,o),
(26,464,cs),
(26,423,o),
(43,388,o),
(65,361,c),
(174,418,l),
(164,433,o),
(159,447,o),
(159,461,cs),
(159,480,o),
(169,494,o),
(186,494,cs),
(203,494,o),
(211,478,o),
(211,457,cs),
(211,394,o),
(145,352,o),
(38,317,c),
(68,183,o),
(163,115,o),
(278,115,cs)
);
},
{
closed = 1;
nodes = (
(579,0,l),
(585,138,l),
(571,138,o),
(561,140,o),
(554,146,cs),
(546,152,o),
(543,163,o),
(543,180,cs),
(543,592,l),
(384,602,l),
(384,150,ls),
(384,98,o),
(398,59,o),
(427,34,cs),
(453,11,o),
(490,0,o),
(538,0,cs)
);
}
);
width = 595;
},
{
anchors = (
{
name = b.nuktagujr;
pos = (203,149);
}
);
layerId = "0BA4C117-BB0E-400D-AA02-27C87BA635D5";
shapes = (
{
closed = 1;
nodes = (
(300,146,o),
(342,165,o),
(376,190,c),
(376,280,l),
(340,244,o),
(298,214,o),
(235,214,cs),
(183,214,o),
(143,238,o),
(122,292,c),
(111,276,l),
(211,321,o),
(269,377,o),
(269,475,cs),
(269,545,o),
(229,602,o),
(150,602,cs),
(77,602,o),
(32,554,o),
(32,488,cs),
(32,440,o),
(52,406,o),
(87,376,c),
(135,420,l),
(112,442,o),
(103,462,o),
(103,486,cs),
(103,518,o),
(122,538,o),
(151,538,cs),
(180,538,o),
(197,516,o),
(197,478,cs),
(197,405,o),
(139,360,o),
(38,320,c),
(68,206,o),
(137,146,o),
(235,146,cs)
);
},
{
closed = 1;
nodes = (
(486,0,l),
(490,68,l),
(466,68,o),
(454,72,o),
(445,79,cs),
(432,89,o),
(427,104,o),
(427,129,cs),
(427,592,l),
(352,602,l),
(352,117,ls),
(352,77,o),
(362,45,o),
(385,25,cs),
(405,8,o),
(431,0,o),
(466,0,cs)
);
}
);
width = 498;
}
);
metricRight = aavowelsigngujr;
script = gujarati;
unicode = 2725;
},
{
glyphname = dagujr;
lastChange = "2021-10-13 14:10:49 +0000";
layers = (
{
anchors = (
{
name = b.nuktagujr;
pos = (312,0);
},
{
name = t.candrabindugujr;
pos = (273,603);
},
{
name = t.candrabinduleftgujr;
pos = (184,603);
}
);
layerId = UUID0;
shapes = (
{
closed = 1;
nodes = (
(390,-10,o),
(473,21,o),
(473,90,cs),
(473,120,o),
(453,148,o),
(415,148,cs),
(380,148,o),
(357,128,o),
(357,94,cs),
(357,76,o),
(361,66,o),
(377,47,c),
(378,80,l),
(359,67,o),
(335,63,o),
(299,63,cs),
(214,63,o),
(168,101,o),
(168,176,cs),
(168,253,o),
(235,286,o),
(310,286,cs),
(331,286,o),
(353,284,o),
(369,281,c),
(383,353,l),
(363,356,o),
(338,359,o),
(308,359,cs),
(184,359,o),
(87,287,o),
(87,176,cs),
(87,67,o),
(166,-10,o),
(298,-10,cs)
);
},
{
closed = 1;
nodes = (
(232,333,l),
(153,366,o),
(125,404,o),
(125,451,cs),
(125,494,o),
(159,529,o),
(244,529,cs),
(275,529,o),
(308,523,o),
(329,518,c),
(343,589,l),
(319,596,o),
(270,603,o),
(233,603,cs),
(100,603,o),
(44,532,o),
(44,457,cs),
(44,379,o),
(93,330,o),
(156,292,c)
);
}
);
width = 467;
},
{
anchors = (
{
name = b.nuktagujr;
pos = (311,0);
},
{
name = t.candrabindugujr;
pos = (303,603);
},
{
name = t.candrabinduleftgujr;
pos = (196,603);
}
);
layerId = "E837EE1F-8268-496F-836F-3DC25D441D7C";
shapes = (
{
closed = 1;
nodes = (
(380,-10,o),
(455,32,o),
(455,90,cs),
(455,116,o),
(437,134,o),
(410,134,cs),
(384,134,o),
(365,115,o),
(365,89,cs),
(365,69,o),
(378,52,o),
(400,43,c),
(400,48,l),
(373,26,o),
(336,16,o),
(292,16,cs),
(199,16,o),
(125,74,o),
(125,168,cs),
(125,266,o),
(203,317,o),
(295,317,cs),
(316,317,o),
(339,315,o),
(361,310,c),
(366,335,l),
(343,340,o),
(320,343,o),
(295,343,cs),
(189,343,o),
(98,280,o),
(98,168,cs),
(98,60,o),
(185,-10,o),
(292,-10,cs)
);
},
{
closed = 1;
nodes = (
(191,310,l),
(122,344,o),
(81,392,o),
(81,457,cs),
(81,534,o),
(141,577,o),
(225,577,cs),
(258,577,o),
(289,573,o),
(321,565,c),
(326,591,l),
(294,598,o),
(261,603,o),
(225,603,cs),
(127,603,o),
(54,548,o),
(54,457,cs),
(54,384,o),
(103,327,o),
(175,290,c)
);
}
);
width = 446;
},
{
anchors = (
{
name = b.nuktagujr;
pos = (289,0);
},
{
name = t.candrabindugujr;
pos = (227,603);
},
{
name = t.candrabinduleftgujr;
pos = (160,603);
}
);
layerId = "B78FB6F8-4888-4A20-9211-9CA65DB7E66A";
shapes = (
{
closed = 1;
nodes = (
(460,-10,o),
(538,36,o),
(538,120,cs),
(538,171,o),
(505,213,o),
(444,213,cs),
(388,213,o),
(351,179,o),
(351,133,cs),
(351,100,o),
(362,71,o),
(388,46,c),
(398,138,l),
(373,132,o),
(354,128,o),
(325,128,cs),
(279,128,o),
(243,148,o),
(243,187,cs),
(243,223,o),
(275,245,o),
(333,245,cs),
(356,245,o),
(378,243,o),
(397,240,c),
(423,375,l),
(394,380,o),
(361,383,o),
(330,383,cs),
(186,383,o),
(66,315,o),
(66,183,cs),
(66,67,o),
(162,-10,o),
(323,-10,cs)
);
},
{
closed = 1;
nodes = (
(278,350,l),
(231,371,o),
(205,392,o),
(205,421,cs),
(205,449,o),
(231,464,o),
(280,464,cs),
(305,464,o),
(326,461,o),
(347,457,c),
(374,587,l),
(334,596,o),
(291,602,o),
(247,602,cs),
(113,602,o),
(28,539,o),
(28,441,cs),
(28,362,o),
(79,308,o),
(148,263,c)
);
}
);
width = 535;
},
{
anchors = (
{
name = b.nuktagujr;
pos = (229,0);
},
{
name = t.candrabindugujr;
pos = (217,603);
},
{
name = t.candrabinduleftgujr;
pos = (158,603);
}
);
layerId = "E5C9A917-AA5F-4208-B63B-4C942A1E52F0";
shapes = (
{
closed = 1;
nodes = (
(286,-10,o),
(338,21,o),
(338,71,cs),
(338,100,o),
(323,118,o),
(301,118,cs),
(280,118,o),
(264,102,o),
(264,76,cs),
(264,56,o),
(274,37,o),
(294,27,c),
(294,40,l),
(278,24,o),
(255,16,o),
(228,16,cs),
(152,16,o),
(96,80,o),
(96,167,cs),
(96,259,o),
(158,317,o),
(231,317,cs),
(245,317,o),
(257,316,o),
(267,314,c),
(272,339,l),
(257,342,o),
(246,343,o),
(231,343,cs),
(144,343,o),
(69,273,o),
(69,167,cs),
(69,66,o),
(139,-10,o),
(228,-10,cs)
);
},
{
closed = 1;
nodes = (
(147,304,l),
(95,340,o),
(65,390,o),
(65,456,cs),
(65,528,o),
(112,576,o),
(181,576,cs),
(200,576,o),
(223,573,o),
(238,569,c),
(244,594,l),
(224,599,o),
(206,602,o),
(181,602,cs),
(98,602,o),
(38,542,o),
(38,456,cs),
(38,381,o),
(74,325,o),
(126,288,c)
);
}
);
width = 335;
},
{
anchors = (
{
name = b.nuktagujr;
pos = (205,0);
},
{
name = t.candrabindugujr;
pos = (159,603);
},
{
name = t.candrabinduleftgujr;
pos = (117,603);
}
);
layerId = "5004026F-C7B4-4F0F-B515-084BD38674AE";
shapes = (
{
closed = 1;
nodes = (
(361,-10,o),
(417,45,o),
(417,119,cs),
(417,168,o),
(389,209,o),
(336,209,cs),
(286,209,o),
(255,174,o),
(255,129,cs),
(255,100,o),
(265,77,o),
(284,55,c),
(284,126,l),
(276,123,o),
(271,122,o),
(263,122,cs),
(231,122,o),
(205,145,o),
(205,189,cs),
(205,230,o),
(230,255,o),
(269,255,cs),
(278,255,o),
(287,254,o),
(296,252,c),
(317,387,l),
(299,391,o),
(280,393,o),
(261,393,cs),
(138,393,o),
(46,310,o),
(46,191,cs),
(46,74,o),
(130,-10,o),
(257,-10,cs)
);
},
{
closed = 1;
nodes = (
(237,353,l),
(195,375,o),
(176,397,o),
(176,421,cs),
(176,448,o),
(196,464,o),
(231,464,cs),
(247,464,o),
(258,463,o),
(273,460,c),
(296,592,l),
(273,598,o),
(242,602,o),
(210,602,cs),
(94,602,o),
(20,540,o),
(20,442,cs),
(20,380,o),
(51,323,o),
(113,271,c)
);
}
);
width = 415;
},
{
anchors = (
{
name = b.nuktagujr;
pos = (230,0);
},
{
name = t.candrabindugujr;
pos = (195,603);
},
{
name = t.candrabinduleftgujr;
pos = (142,603);
}
);
layerId = "0BA4C117-BB0E-400D-AA02-27C87BA635D5";
shapes = (
{
closed = 1;
nodes = (
(308,-10,o),
(364,28,o),
(364,90,cs),
(364,129,o),
(344,157,o),
(310,157,cs),
(279,157,o),
(257,134,o),
(257,102,cs),
(257,79,o),
(267,56,o),
(287,41,c),
(288,77,l),
(275,65,o),
(257,58,o),
(237,58,cs),
(180,58,o),
(136,104,o),
(136,180,cs),
(136,257,o),
(185,300,o),
(246,300,cs),
(256,300,o),
(266,299,o),
(274,297,c),
(286,362,l),
(271,366,o),
(257,368,o),
(240,368,cs),
(141,368,o),
(61,296,o),
(61,180,cs),
(61,66,o),
(136,-10,o),
(237,-10,cs)
);
},
{
closed = 1;
nodes = (
(176,328,l),
(132,357,o),
(107,396,o),
(107,445,cs),
(107,499,o),
(144,534,o),
(204,534,cs),
(219,534,o),
(235,533,o),
(252,530,c),
(263,595,l),
(244,599,o),
(223,602,o),
(196,602,cs),
(97,602,o),
(32,540,o),
(32,451,cs),
(32,378,o),
(68,321,o),
(118,282,c)
);
}
);
width = 361;
}
);
script = gujarati;
unicode = 2726;
},
{
glyphname = dhagujr;
lastChange = "2024-05-22 09:46:33 +0000";
layers = (
{
anchors = (
{
name = b.nuktagujr;
pos = (256,103);
}
);
layerId = UUID0;
shapes = (
{
closed = 1;
nodes = (
(357,107,o),
(408,136,o),
(447,165,c),
(447,259,l),
(392,203,o),
(340,179,o),
(273,179,cs),
(201,179,o),
(164,208,o),
(164,264,cs),
(164,316,o),
(204,338,o),
(257,338,cs),
(276,338,o),
(294,336,o),
(308,333,c),
(320,405,l),
(302,408,o),
(277,411,o),
(259,411,cs),
(138,411,o),
(83,345,o),
(83,261,cs),
(83,171,o),
(153,107,o),
(273,107,cs)
);
},
{
closed = 1;
nodes = (
(220,374,l),
(153,397,o),
(125,431,o),
(125,474,cs),
(125,505,o),
(138,547,o),
(235,574,c),
(206,646,l),
(96,613,o),
(44,554,o),
(44,481,cs),
(44,401,o),
(107,353,o),
(166,323,c)
);
},
{
closed = 1;
nodes = (
(590,0,l),
(598,73,l),
(570,73,o),
(537,73,o),
(523,92,cs),
(515,103,o),
(511,116,o),
(511,152,cs),
(511,592,l),
(431,603,l),
(431,148,ls),
(431,89,o),
(440,60,o),
(462,37,cs),
(485,13,o),
(522,0,o),
(580,0,cs)
);
}
);
width = 606;
},
{
anchors = (
{
name = b.nuktagujr;
pos = (240,103);
}
);
layerId = "E837EE1F-8268-496F-836F-3DC25D441D7C";
shapes = (
{
closed = 1;
nodes = (
(336,117,o),
(391,138,o),
(454,189,c),
(454,226,l),
(392,167,o),
(338,143,o),
(265,143,cs),
(176,143,o),
(120,189,o),
(120,261,cs),
(120,327,o),
(172,374,o),
(248,374,cs),
(268,374,o),
(285,372,o),
(300,369,c),
(304,394,l),
(286,398,o),
(268,400,o),
(248,400,cs),
(158,400,o),
(93,342,o),
(93,261,cs),
(93,177,o),
(164,117,o),
(265,117,cs)
);
},
{
closed = 1;
nodes = (
(165,366,l),
(112,393,o),
(81,436,o),
(81,484,cs),
(81,551,o),
(137,589,o),
(215,614,c),
(206,638,l),
(113,607,o),
(54,562,o),
(54,484,cs),
(54,426,o),
(88,385,o),
(143,350,c)
);
},
{
closed = 1;
nodes = (
(564,0,l),
(567,26,l),
(534,26,o),
(511,29,o),
(493,41,cs),
(471,56,o),
(461,80,o),
(461,129,cs),
(461,598,l),
(435,602,l),
(435,128,ls),
(435,74,o),
(450,43,o),
(474,23,cs),
(495,6,o),
(521,0,o),
(555,0,cs)
);
}
);
width = 569;
},
{
anchors = (
{
name = b.nuktagujr;
pos = (262,99);
}
);
layerId = "B78FB6F8-4888-4A20-9211-9CA65DB7E66A";
shapes = (
{
closed = 1;
nodes = (
(346,87,o),
(411,101,o),
(452,135,c),
(443,289,l),
(413,258,o),
(360,221,o),
(297,221,cs),
(257,221,o),
(237,233,o),
(237,256,cs),
(237,281,o),
(258,292,o),
(294,292,cs),
(308,292,o),
(323,291,o),
(334,289,c),
(353,414,l),
(332,419,o),
(301,422,o),
(275,422,cs),
(162,422,o),
(66,360,o),
(66,256,cs),
(66,159,o),
(142,87,o),
(275,87,cs)
);
},
{
closed = 1;
nodes = (
(251,392,l),
(219,400,o),
(197,422,o),
(197,449,cs),
(197,480,o),
(227,496,o),
(293,512,c),
(236,654,l),
(83,613,o),
(24,546,o),
(24,455,cs),
(24,383,o),
(72,329,o),
(130,300,c)
);
},
{
closed = 1;
nodes = (
(658,0,l),
(671,138,l),
(642,138,o),
(625,141,o),
(614,151,cs),
(602,162,o),
(599,180,o),
(599,209,cs),
(599,592,l),
(422,602,l),
(422,194,ls),
(422,121,o),
(435,73,o),
(467,42,cs),
(498,12,o),
(547,0,o),
(618,0,cs)
);
}
);
width = 674;
},
{
anchors = (
{
name = b.nuktagujr;
pos = (191,103);
}
);
layerId = "E5C9A917-AA5F-4208-B63B-4C942A1E52F0";
shapes = (
{
closed = 1;
nodes = (
(262,117,o),
(314,131,o),
(348,163,c),
(348,197,l),
(315,161,o),
(268,143,o),
(221,143,cs),
(144,143,o),
(96,188,o),
(96,258,cs),
(96,322,o),
(144,368,o),
(212,368,cs),
(220,368,o),
(230,367,o),
(235,366,c),
(238,392,l),
(230,393,o),
(221,394,o),
(212,394,cs),
(133,394,o),
(69,336,o),
(69,258,cs),
(69,174,o),
(130,117,o),
(221,117,cs)
);
},
{
closed = 1;
nodes = (
(137,360,l),
(99,394,o),
(67,429,o),
(67,484,cs),
(67,537,o),
(102,576,o),
(183,614,c),
(171,638,l),
(92,601,o),
(40,557,o),
(40,484,cs),
(40,425,o),
(77,379,o),
(117,344,c)
);
},
{
closed = 1;
nodes = (
(431,0,l),
(434,26,l),
(409,26,o),
(391,30,o),
(379,39,cs),
(365,50,o),
(359,69,o),
(359,98,cs),
(359,598,l),
(333,602,l),
(333,98,ls),
(333,61,o),
(342,35,o),
(361,19,cs),
(376,6,o),
(396,0,o),
(423,0,cs)
);
}
);
width = 437;
},
{
anchors = (
{
name = b.nuktagujr;
pos = (206,110);
}
);
layerId = "5004026F-C7B4-4F0F-B515-084BD38674AE";
shapes = (
{
closed = 1;
nodes = (
(313,90,o),
(353,109,o),
(380,127,c),
(380,282,l),
(348,247,o),
(312,224,o),
(259,224,cs),
(225,224,o),
(206,238,o),
(206,260,cs),
(206,283,o),
(225,295,o),
(256,295,cs),
(264,295,o),
(274,294,o),
(280,293,c),
(297,415,l),
(279,418,o),
(257,420,o),
(238,420,cs),
(148,420,o),
(52,372,o),
(52,258,cs),
(52,161,o),
(135,90,o),
(246,90,cs)
);
},
{
closed = 1;
nodes = (
(223,388,l),
(193,402,o),
(174,422,o),
(174,448,cs),
(174,483,o),
(205,502,o),
(261,526,c),
(189,653,l),
(69,605,o),
(17,547,o),
(17,465,cs),
(17,390,o),
(56,335,o),
(103,303,c)
);
},
{
closed = 1;
nodes = (
(534,0,l),
(540,138,l),
(526,138,o),
(516,140,o),
(509,146,cs),
(501,153,o),
(498,163,o),
(498,180,cs),
(498,592,l),
(339,602,l),
(339,150,ls),
(339,98,o),
(353,59,o),
(382,34,cs),
(408,11,o),
(445,0,o),
(493,0,cs)
);
}
);
width = 550;
},
{
anchors = (
{
name = b.nuktagujr;
pos = (216,103);
}
);
layerId = "0BA4C117-BB0E-400D-AA02-27C87BA635D5";
shapes = (
{
closed = 1;
nodes = (
(275,107,o),
(324,121,o),
(355,146,c),
(355,230,l),
(321,195,o),
(280,175,o),
(237,175,cs),
(179,175,o),
(140,206,o),
(140,261,cs),
(140,311,o),
(174,341,o),
(225,341,cs),
(235,341,o),
(246,340,o),
(250,339,c),
(261,405,l),
(251,407,o),
(236,408,o),
(223,408,cs),
(126,408,o),
(65,345,o),
(65,260,cs),
(65,174,o),
(127,107,o),
(235,107,cs)
);
},
{
closed = 1;
nodes = (
(169,370,l),
(132,401,o),
(111,429,o),
(111,467,cs),
(111,514,o),
(150,544,o),
(218,575,c),
(180,644,l),
(87,602,o),
(34,550,o),
(34,477,cs),
(34,411,o),
(72,361,o),
(120,322,c)
);
},
{
closed = 1;
nodes = (
(470,0,l),
(474,68,l),
(450,68,o),
(438,72,o),
(429,79,cs),
(416,89,o),
(411,104,o),
(411,129,cs),
(411,592,l),
(336,602,l),
(336,117,ls),
(336,77,o),
(346,45,o),
(369,25,cs),
(389,8,o),
(415,0,o),
(450,0,cs)
);
}
);
width = 482;
}
);
metricRight = aavowelsigngujr;
script = gujarati;
unicode = 2727;
},
{
glyphname = nagujr;
lastChange = "2024-05-22 09:46:33 +0000";
layers = (
{
anchors = (
{
name = b.nuktagujr;
pos = (194,183);
}
);
layerId = UUID0;
shapes = (
{
closed = 1;
nodes = (
(530,0,l),
(538,73,l),
(510,73,o),
(478,73,o),
(464,92,cs),
(456,103,o),
(452,116,o),
(452,152,cs),
(452,592,l),
(372,603,l),
(372,148,ls),
(372,92,o),
(378,63,o),
(403,37,cs),
(431,8,o),
(473,0,o),
(520,0,cs)
);
},
{
closed = 1;
nodes = (
(171,214,o),
(191,232,o),
(191,271,cs),
(191,328,l),
(408,328,l),
(408,400,l),
(84,400,ls),
(40,400,o),
(24,379,o),
(24,348,cs),
(24,290,o),
(91,214,o),
(140,214,cs)
);
}
);
width = 546;
},
{
anchors = (
{
name = b.nuktagujr;
pos = (173,183);
}
);
layerId = "E837EE1F-8268-496F-836F-3DC25D441D7C";
shapes = (
{
closed = 1;
nodes = (
(497,0,l),
(500,26,l),
(467,26,o),
(444,29,o),
(426,41,cs),
(404,56,o),
(394,80,o),
(394,129,cs),
(394,598,l),
(368,602,l),
(368,128,ls),
(368,74,o),
(383,43,o),
(407,23,cs),
(428,6,o),
(454,0,o),
(488,0,cs)
);
},
{
closed = 1;
nodes = (
(113,260,o),
(125,271,o),
(125,299,cs),
(125,348,l),
(378,348,l),
(378,374,l),
(69,374,ls),
(38,374,o),
(27,362,o),
(27,341,cs),
(27,306,o),
(64,260,o),
(96,260,cs)
);
}
);
width = 502;
},
{
anchors = (
{
name = b.nuktagujr;
pos = (235,177);
}
);
layerId = "B78FB6F8-4888-4A20-9211-9CA65DB7E66A";
shapes = (
{
closed = 1;
nodes = (
(622,0,l),
(635,138,l),
(606,138,o),
(589,141,o),
(578,151,cs),
(566,162,o),
(563,180,o),
(563,209,cs),
(563,592,l),
(386,602,l),
(386,194,ls),
(386,121,o),
(399,73,o),
(431,42,cs),
(462,12,o),
(511,0,o),
(582,0,cs)
);
},
{
closed = 1;
nodes = (
(252,157,o),
(277,185,o),
(277,238,cs),
(277,288,l),
(448,288,l),
(448,426,l),
(95,426,ls),
(51,426,o),
(18,400,o),
(18,353,cs),
(18,255,o),
(118,157,o),
(200,157,cs)
);
}
);
width = 638;
},
{
anchors = (
{
name = b.nuktagujr;
pos = (136,183);
}
);
layerId = "E5C9A917-AA5F-4208-B63B-4C942A1E52F0";
shapes = (
{
closed = 1;
nodes = (
(374,0,l),
(377,26,l),
(352,26,o),
(334,30,o),
(322,39,cs),
(308,50,o),
(302,69,o),
(302,98,cs),
(302,598,l),
(276,602,l),
(276,98,ls),
(276,61,o),
(285,35,o),
(304,19,cs),
(319,6,o),
(339,0,o),
(366,0,cs)
);
},
{
closed = 1;
nodes = (
(91,267,o),
(100,275,o),
(100,298,cs),
(100,348,l),
(285,348,l),
(285,374,l),
(54,374,ls),
(28,374,o),
(19,362,o),
(19,343,cs),
(19,306,o),
(48,267,o),
(76,267,cs)
);
}
);
width = 380;
},
{
anchors = (
{
name = b.nuktagujr;
pos = (193,188);
}
);
layerId = "5004026F-C7B4-4F0F-B515-084BD38674AE";
shapes = (
{
closed = 1;
nodes = (
(493,0,l),
(499,138,l),
(485,138,o),
(475,140,o),
(468,146,cs),
(460,153,o),
(457,163,o),
(457,180,cs),
(457,592,l),
(298,602,l),
(298,150,ls),
(298,98,o),
(312,59,o),
(341,34,cs),
(367,11,o),
(404,0,o),
(452,0,cs)
);
},
{
closed = 1;
nodes = (
(205,166,o),
(226,188,o),
(226,235,cs),
(226,286,l),
(340,286,l),
(340,424,l),
(105,424,ls),
(39,424,o),
(13,391,o),
(13,344,cs),
(13,247,o),
(103,166,o),
(163,166,cs)
);
}
);
width = 509;
},
{
anchors = (
{
name = b.nuktagujr;
pos = (155,183);
}
);
layerId = "0BA4C117-BB0E-400D-AA02-27C87BA635D5";
shapes = (
{
closed = 1;
nodes = (
(416,0,l),
(420,68,l),
(396,68,o),
(384,72,o),
(375,79,cs),
(362,89,o),
(357,104,o),
(357,129,cs),
(357,592,l),
(282,602,l),
(282,117,ls),
(282,77,o),
(292,45,o),
(315,25,cs),
(335,8,o),
(361,0,o),
(396,0,cs)
);
},
{
closed = 1;
nodes = (
(138,223,o),
(152,235,o),
(152,268,cs),
(152,325,l),
(304,325,l),
(304,393,l),
(66,393,ls),
(36,393,o),
(17,375,o),
(17,343,cs),
(17,289,o),
(72,223,o),
(115,223,cs)
);
}
);
width = 428;
}
);
metricRight = aavowelsigngujr;
script = gujarati;
unicode = 2728;
},
{
glyphname = pagujr;
lastChange = "2024-05-22 09:46:33 +0000";
layers = (
{
anchors = (
{
name = b.nuktagujr;
pos = (204,157);
}
);
layerId = UUID0;
shapes = (
{
closed = 1;
nodes = (
(323,161,o),
(368,180,o),
(405,208,c),
(405,298,l),
(374,263,o),
(325,233,o),
(272,233,cs),
(240,233,o),
(217,239,o),
(202,253,cs),
(184,270,o),
(173,295,o),
(173,357,cs),
(173,443,ls),
(173,503,o),
(164,532,o),
(142,555,cs),
(119,579,o),
(82,592,o),
(24,592,cs),
(14,592,l),
(6,519,l),
(34,519,o),
(67,519,o),
(81,500,cs),
(89,489,o),
(93,476,o),
(93,440,cs),
(93,350,ls),
(93,276,o),
(109,237,o),
(143,204,cs),
(170,178,o),
(212,161,o),
(264,161,cs)
);
},
{
closed = 1;
nodes = (
(552,0,l),
(560,73,l),
(532,73,o),
(499,73,o),
(485,92,cs),
(477,103,o),
(473,116,o),
(473,152,cs),
(473,592,l),
(393,603,l),
(393,148,ls),
(393,89,o),
(402,60,o),
(424,37,cs),
(447,13,o),
(484,0,o),
(542,0,cs)
);
}
);
width = 568;
},
{
anchors = (
{
name = b.nuktagujr;
pos = (194,157);
}
);
layerId = "E837EE1F-8268-496F-836F-3DC25D441D7C";
shapes = (
{
closed = 1;
nodes = (
(321,171,o),
(378,195,o),
(420,234,c),
(420,269,l),
(369,220,o),
(321,197,o),
(263,197,cs),
(227,197,o),
(198,206,o),
(176,224,cs),
(149,247,o),
(134,282,o),
(134,330,cs),
(134,464,ls),
(134,505,o),
(127,536,o),
(110,557,cs),
(92,580,o),
(63,592,o),
(22,592,cs),
(15,592,l),
(12,566,l),
(52,566,o),
(77,558,o),
(91,539,cs),
(103,523,o),
(108,499,o),
(108,464,cs),
(108,330,ls),
(108,275,o),
(127,231,o),
(160,204,cs),
(186,183,o),
(221,171,o),
(263,171,cs)
);
},
{
closed = 1;
nodes = (
(538,0,l),
(541,26,l),
(508,26,o),
(485,29,o),
(467,41,cs),
(445,56,o),
(435,80,o),
(435,129,cs),
(435,598,l),
(409,602,l),
(409,128,ls),
(409,74,o),
(424,43,o),
(448,23,cs),
(469,6,o),
(495,0,o),
(529,0,cs)
);
}
);
width = 543;
},
{
anchors = (
{
name = b.nuktagujr;
pos = (219,147);
}
);
layerId = "B78FB6F8-4888-4A20-9211-9CA65DB7E66A";
shapes = (
{
closed = 1;
nodes = (
(327,149,o),
(366,157,o),
(399,172,c),
(399,335,l),
(375,304,o),
(344,287,o),
(310,287,cs),
(295,287,o),
(284,291,o),
(276,298,cs),
(266,307,o),
(261,321,o),
(261,339,cs),
(261,398,ls),
(261,443,o),
(258,505,o),
(221,545,cs),
(186,582,o),
(136,592,o),
(65,592,cs),
(19,592,l),
(10,454,l),
(39,454,o),
(57,450,o),
(69,438,cs),
(80,427,o),
(84,409,o),
(84,383,cs),
(84,329,ls),
(84,271,o),
(104,224,o),
(142,193,cs),
(176,165,o),
(223,149,o),
(282,149,cs)
);
},
{
closed = 1;
nodes = (
(624,0,l),
(637,138,l),
(608,138,o),
(591,141,o),
(580,151,cs),
(568,162,o),
(565,180,o),
(565,209,cs),
(565,592,l),
(388,602,l),
(388,194,ls),
(388,121,o),
(401,73,o),
(433,42,cs),
(464,12,o),
(513,0,o),
(584,0,cs)
);
}
);
width = 640;
},
{
anchors = (
{
name = b.nuktagujr;
pos = (162,161);
}
);
layerId = "5004026F-C7B4-4F0F-B515-084BD38674AE";
shapes = (
{
closed = 1;
nodes = (
(251,149,o),
(275,154,o),
(298,165,c),
(298,320,l),
(276,294,o),
(260,287,o),
(241,287,cs),
(233,287,o),
(226,289,o),
(221,293,cs),
(214,298,o),
(210,308,o),
(210,331,cs),
(210,442,ls),
(210,494,o),
(196,533,o),
(167,558,cs),
(141,581,o),
(104,592,o),
(56,592,cs),
(13,592,l),
(7,454,l),
(24,454,o),
(35,451,o),
(42,444,cs),
(49,437,o),
(51,427,o),
(51,412,cs),
(51,312,ls),
(51,261,o),
(68,219,o),
(99,191,cs),
(129,164,o),
(171,149,o),
(223,149,cs)
);
},
{
closed = 1;
nodes = (
(479,0,l),
(485,138,l),
(471,138,o),
(461,140,o),
(454,146,cs),
(446,153,o),
(443,163,o),
(443,180,cs),
(443,592,l),
(284,602,l),
(284,150,ls),
(284,98,o),
(298,59,o),
(327,34,cs),
(353,11,o),
(390,0,o),
(438,0,cs)
);
}
);
width = 495;
},
{
anchors = (
{
name = b.nuktagujr;
pos = (142,157);
}
);
layerId = "E5C9A917-AA5F-4208-B63B-4C942A1E52F0";
shapes = (
{
closed = 1;
nodes = (
(240,171,o),
(276,184,o),
(301,203,c),
(301,237,l),
(271,211,o),
(237,197,o),
(201,197,cs),
(169,197,o),
(144,205,o),
(127,222,cs),
(109,240,o),
(100,267,o),
(100,303,cs),
(100,494,ls),
(100,529,o),
(92,554,o),
(77,570,cs),
(63,585,o),
(42,592,o),
(15,592,cs),
(11,592,l),
(9,566,l),
(30,566,o),
(45,562,o),
(55,554,cs),
(69,543,o),
(74,524,o),
(74,494,cs),
(74,303,ls),
(74,257,o),
(88,221,o),
(114,199,cs),
(135,181,o),
(165,171,o),
(201,171,cs)
);
},
{
closed = 1;
nodes = (
(391,0,l),
(394,26,l),
(369,26,o),
(351,30,o),
(339,39,cs),
(325,50,o),
(319,69,o),
(319,98,cs),
(319,598,l),
(293,602,l),
(293,98,ls),
(293,61,o),
(302,35,o),
(321,19,cs),
(336,6,o),
(356,0,o),
(383,0,cs)
);
}
);
width = 397;
},
{
anchors = (
{
name = b.nuktagujr;
pos = (163,157);
}
);
layerId = "0BA4C117-BB0E-400D-AA02-27C87BA635D5";
shapes = (
{
closed = 1;
nodes = (
(239,163,o),
(273,175,o),
(297,193,c),
(297,277,l),
(271,246,o),
(242,231,o),
(213,231,cs),
(190,231,o),
(173,237,o),
(161,249,cs),
(147,264,o),
(141,282,o),
(141,312,cs),
(141,475,ls),
(141,518,o),
(130,546,o),
(110,565,cs),
(89,585,o),
(61,592,o),
(30,592,cs),
(12,592,l),
(8,524,l),
(26,524,o),
(41,521,o),
(50,513,cs),
(64,501,o),
(66,482,o),
(66,463,cs),
(66,313,ls),
(66,267,o),
(79,224,o),
(106,198,cs),
(130,175,o),
(163,163,o),
(202,163,cs)
);
},
{
closed = 1;
nodes = (
(418,0,l),
(422,68,l),
(398,68,o),
(386,72,o),
(377,79,cs),
(364,89,o),
(359,104,o),
(359,129,cs),
(359,592,l),
(284,602,l),
(284,117,ls),
(284,77,o),
(294,45,o),
(317,25,cs),
(337,8,o),
(363,0,o),
(398,0,cs)
);
}
);
width = 430;
}
);
metricRight = aavowelsigngujr;
script = gujarati;
unicode = 2730;
},
{
glyphname = phagujr;
lastChange = "2024-05-22 09:46:33 +0000";
layers = (
{
anchors = (
{
name = b.nuktagujr;
pos = (187,-78);
},
{
name = t.candrabindugujr;
pos = (314,603);
},
{
name = t.candrabinduleftgujr;
pos = (214,603);
}
);
layerId = UUID0;
shapes = (
{
closed = 1;
nodes = (
(395,-178,l),
(404,-103,l),
(378,-103,ls),
(302,-103,o),
(256,-63,o),
(188,48,c),
(200,56,l),
(167,98,o),
(136,122,o),
(96,122,cs),
(67,122,o),
(43,104,o),
(43,73,cs),
(43,47,o),
(59,4,o),
(153,-4,cs),
(183,-7,o),
(225,-10,o),
(259,-10,cs),
(402,-10,o),
(453,68,o),
(453,142,cs),
(453,217,o),
(405,270,o),
(313,322,c),
(285,347,l),
(212,384,o),
(185,419,o),
(185,455,cs),
(185,500,o),
(218,529,o),
(286,529,cs),
(321,529,o),
(344,525,o),
(379,517,c),
(394,589,l),
(358,598,o),
(320,603,o),
(277,603,cs),
(171,603,o),
(103,545,o),
(103,462,cs),
(103,393,o),
(148,351,o),
(219,306,c),
(246,285,l),
(350,224,o),
(371,182,o),
(371,144,cs),
(371,92,o),
(333,61,o),
(257,61,cs),
(185,61,o),
(154,77,o),
(96,109,c),
(117,38,l),
(181,-78,o),
(246,-178,o),
(379,-178,cs)
);
},
{
closed = 1;
nodes = (
(289,297,l),
(496,368,l),
(464,438,l),
(229,350,l),
(38,282,l),
(65,211,l)
);
}
);
width = 511;
},
{
anchors = (
{
name = b.nuktagujr;
pos = (218,-89);
},
{
name = t.candrabindugujr;
pos = (324,603);
},
{
name = t.candrabinduleftgujr;
pos = (225,603);
}
);
layerId = "E837EE1F-8268-496F-836F-3DC25D441D7C";
shapes = (
{
closed = 1;
nodes = (
(363,-153,l),
(366,-127,l),
(345,-127,ls),
(262,-127,o),
(214,-85,o),
(150,15,c),
(153,19,l),
(127,67,o),
(98,98,o),
(64,98,cs),
(44,98,o),
(33,86,o),
(33,69,cs),
(33,30,o),
(93,7,o),
(143,-2,cs),
(168,-7,o),
(196,-10,o),
(225,-10,cs),
(336,-10,o),
(398,54,o),
(398,135,cs),
(398,227,o),
(328,276,o),
(258,320,c),
(244,329,l),
(180,369,o),
(121,407,o),
(121,472,cs),
(121,539,o),
(169,576,o),
(255,576,cs),
(293,576,o),
(326,571,o),
(360,562,c),
(366,588,l),
(327,597,o),
(295,602,o),
(255,602,cs),
(155,602,o),
(94,552,o),
(94,472,cs),
(94,399,o),
(152,358,o),
(215,318,c),
(226,311,l),
(298,267,o),
(371,222,o),
(371,135,cs),
(371,67,o),
(323,16,o),
(225,16,cs),
(187,16,o),
(156,20,o),
(118,32,c),
(113,27,l),
(196,-109,o),
(252,-153,o),
(345,-153,cs)
);
},
{
closed = 1;
nodes = (
(248,308,l),
(448,379,l),
(439,403,l),
(225,327,l),
(42,262,l),
(51,238,l)
);
}
);
width = 460;
},
{
anchors = (
{
name = b.nuktagujr;
pos = (138,-47);
},
{
name = t.candrabindugujr;
pos = (285,603);
},
{
name = t.candrabinduleftgujr;
pos = (206,603);
}
);
layerId = "B78FB6F8-4888-4A20-9211-9CA65DB7E66A";
shapes = (
{
closed = 1;
nodes = (
(430,-195,l),
(447,-55,l),
(423,-55,ls),
(309,-55,o),
(274,23,o),
(257,73,c),
(261,82,l),
(237,125,o),
(187,182,o),
(121,182,cs),
(66,182,o),
(35,151,o),
(35,104,cs),
(35,44,o),
(79,15,o),
(139,1,cs),
(174,-7,o),
(229,-10,o),
(274,-10,cs),
(424,-10,o),
(510,52,o),
(510,145,cs),
(510,225,o),
(462,280,o),
(366,321,c),
(338,366,l),
(303,383,o),
(273,398,o),
(273,426,cs),
(273,451,o),
(299,464,o),
(335,464,cs),
(368,464,o),
(404,458,o),
(433,449,c),
(460,585,l),
(408,596,o),
(356,602,o),
(309,602,cs),
(183,602,o),
(99,541,o),
(99,448,cs),
(99,391,o),
(139,349,o),
(185,315,c),
(228,255,l),
(296,232,o),
(333,211,o),
(333,176,cs),
(333,146,o),
(300,128,o),
(241,128,cs),
(211,128,o),
(177,135,o),
(143,149,c),
(97,58,l),
(160,-83,o),
(261,-195,o),
(409,-195,cs)
);
},
{
closed = 1;
nodes = (
(304,254,l),
(554,311,l),
(513,445,l),
(265,382,l),
(35,329,l),
(79,195,l)
);
}
);
width = 567;
},
{
anchors = (
{
name = b.nuktagujr;
pos = (176,-79);
},
{
name = t.candrabindugujr;
pos = (246,603);
},
{
name = t.candrabinduleftgujr;
pos = (178,603);
}
);
layerId = "E5C9A917-AA5F-4208-B63B-4C942A1E52F0";
shapes = (
{
closed = 1;
nodes = (
(276,-147,l),
(278,-121,l),
(270,-121,ls),
(205,-121,o),
(181,-88,o),
(120,15,c),
(122,19,l),
(101,76,o),
(80,98,o),
(57,98,cs),
(39,98,o),
(29,87,o),
(29,72,cs),
(29,36,o),
(71,12,o),
(108,0,cs),
(127,-6,o),
(148,-10,o),
(169,-10,cs),
(264,-10,o),
(317,49,o),
(317,125,cs),
(317,208,o),
(263,261,o),
(205,316,c),
(193,328,l),
(153,369,o),
(114,412,o),
(114,472,cs),
(114,540,o),
(153,577,o),
(225,577,cs),
(244,577,o),
(260,575,o),
(279,570,c),
(285,595,l),
(266,600,o),
(247,603,o),
(225,603,cs),
(141,603,o),
(87,552,o),
(87,472,cs),
(87,405,o),
(128,358,o),
(170,316,c),
(179,307,l),
(237,253,o),
(290,202,o),
(290,125,cs),
(290,62,o),
(250,16,o),
(169,16,cs),
(143,16,o),
(119,20,o),
(90,32,c),
(86,26,l),
(160,-109,o),
(193,-147,o),
(267,-147,cs)
);
},
{
closed = 1;
nodes = (
(201,307,l),
(351,374,l),
(341,398,l),
(173,323,l),
(34,261,l),
(44,237,l)
);
}
);
width = 363;
},
{
anchors = (
{
name = b.nuktagujr;
pos = (105,-55);
},
{
name = t.candrabindugujr;
pos = (223,603);
},
{
name = t.candrabinduleftgujr;
pos = (154,603);
}
);
layerId = "5004026F-C7B4-4F0F-B515-084BD38674AE";
shapes = (
{
closed = 1;
nodes = (
(354,-189,l),
(371,-55,l),
(353,-55,ls),
(274,-55,o),
(243,-32,o),
(207,62,c),
(217,69,l),
(198,123,o),
(156,170,o),
(99,170,cs),
(55,170,o),
(26,142,o),
(26,100,cs),
(26,50,o),
(66,15,o),
(115,2,cs),
(145,-6,o),
(186,-10,o),
(226,-10,cs),
(349,-10,o),
(426,49,o),
(426,142,cs),
(426,215,o),
(385,267,o),
(310,320,c),
(282,375,l),
(255,390,o),
(238,403,o),
(238,426,cs),
(238,449,o),
(255,464,o),
(292,464,cs),
(318,464,o),
(340,461,o),
(360,456,c),
(386,589,l),
(347,597,o),
(311,602,o),
(264,602,cs),
(154,602,o),
(79,543,o),
(79,453,cs),
(79,394,o),
(110,353,o),
(151,320,c),
(184,250,l),
(244,224,o),
(266,197,o),
(266,167,cs),
(266,138,o),
(240,120,o),
(197,120,cs),
(173,120,o),
(145,127,o),
(116,141,c),
(72,54,l),
(126,-132,o),
(214,-189,o),
(337,-189,cs)
);
},
{
closed = 1;
nodes = (
(255,252,l),
(464,309,l),
(421,443,l),
(220,380,l),
(23,327,l),
(70,193,l)
);
}
);
width = 472;
},
{
anchors = (
{
name = b.nuktagujr;
pos = (140,-79);
},
{
name = t.candrabindugujr;
pos = (240,603);
},
{
name = t.candrabinduleftgujr;
pos = (164,603);
}
);
layerId = "0BA4C117-BB0E-400D-AA02-27C87BA635D5";
shapes = (
{
closed = 1;
nodes = (
(299,-177,l),
(308,-108,l),
(295,-108,ls),
(230,-108,o),
(194,-68,o),
(146,44,c),
(150,52,l),
(125,97,o),
(99,122,o),
(64,122,cs),
(34,122,o),
(13,102,o),
(13,74,cs),
(13,36,o),
(49,3,o),
(99,-4,cs),
(122,-7,o),
(158,-10,o),
(186,-10,cs),
(287,-10,o),
(350,50,o),
(350,132,cs),
(350,203,o),
(314,256,o),
(239,320,c),
(216,344,l),
(179,376,o),
(149,415,o),
(149,457,cs),
(149,506,o),
(180,534,o),
(236,534,cs),
(257,534,o),
(280,531,o),
(301,526,c),
(314,591,l),
(284,598,o),
(259,602,o),
(225,602,cs),
(135,602,o),
(74,546,o),
(74,465,cs),
(74,405,o),
(107,360,o),
(153,314,c),
(173,289,l),
(235,242,o),
(275,197,o),
(275,136,cs),
(275,89,o),
(240,56,o),
(175,56,cs),
(128,56,o),
(105,73,o),
(65,109,c),
(71,38,l),
(142,-108,o),
(196,-177,o),
(284,-177,cs)
);
},
{
closed = 1;
nodes = (
(209,285,l),
(380,352,l),
(353,415,l),
(186,345,l),
(25,284,l),
(53,220,l)
);
}
);
width = 393;
}
);
script = gujarati;
unicode = 2731;
},
